<?xml version="1.0" encoding="utf-8"?>
<!-- Generator: Adobe Illustrator 27.5.0, SVG Export Plug-In . SVG Version: 6.00 Build 0)  -->
<svg version="1.1" xmlns="http://www.w3.org/2000/svg" xmlns:xlink="http://www.w3.org/1999/xlink" x="0px" y="0px"
	 viewBox="0 0 750 500" style="enable-background:new 0 0 750 500;" xml:space="preserve">
<g id="BACKGROUND">
	<rect style="fill:#FFFCF5;" width="750" height="500"/>
</g>
<g id="OBJECTS">
	<g>
		<path style="fill:#FC6232;" d="M375,174.793c-140.686,0-254.734,114.049-254.734,254.744c0,11.63-0.211,36.471,1.3,47.686
			c4.877-1.267,11.445-16.061,17.681-17.521c7.665-1.805,16.335-3.721,25.916-5.648c8.264-1.663,17.207-3.346,26.799-4.978
			c8.02-1.379,16.487-2.717,25.369-4.005c6.935-0.993,14.124-1.947,21.556-2.849c7.726-0.943,15.716-1.825,23.95-2.626
			c-0.294-3.316-0.446-6.672-0.446-10.059c0-62.195,50.414-112.619,112.609-112.619c62.196,0,112.619,50.424,112.619,112.619
			c0,4.674-0.284,9.278-0.841,13.8c8.182,1.146,16.122,2.363,23.807,3.65c7.382,1.237,14.52,2.525,21.425,3.863
			c8.781,1.693,17.176,3.457,25.146,5.242c9.44,2.129,18.292,4.289,26.525,6.439c9.359,2.433,17.906,4.847,25.602,7.159
			c6.013,1.795,11.508,3.529,16.446,5.151c2.636-14.702,4.015-29.841,4.015-45.303C629.744,288.842,515.695,174.793,375,174.793z"/>
		<path style="fill:#EDC137;" d="M375,200.782c-122.455,0-221.732,99.277-221.732,221.741c0,9.536,0.605,18.93,1.769,28.145
			c7.152-1.684,15.241-3.472,24.181-5.269c7.71-1.552,16.054-3.122,25.004-4.645c7.483-1.287,15.383-2.535,23.67-3.737
			c6.471-0.927,13.178-1.816,20.113-2.658c7.209-0.88,14.663-1.703,22.345-2.45c-0.274-3.094-0.416-6.225-0.416-9.385
			c0-58.03,47.037-105.076,105.067-105.076c58.03,0,105.076,47.047,105.076,105.076c0,4.361-0.265,8.656-0.785,12.876
			c7.634,1.069,15.042,2.204,22.213,3.406c6.887,1.154,13.547,2.356,19.99,3.604c8.193,1.58,16.026,3.226,23.462,4.891
			c8.808,1.987,17.066,4.002,24.748,6.007c8.732,2.27,16.707,4.522,23.887,6.679c2.072-12.176,3.15-24.692,3.15-37.463
			C596.742,300.059,497.465,200.782,375,200.782z"/>
		<path style="fill:#4C9E75;" d="M375,225.417c-108.851,0-197.097,88.246-197.097,197.107c0,7.738,0.445,15.373,1.315,22.875
			c7.71-1.552,16.054-3.122,25.004-4.645c7.483-1.287,15.383-2.535,23.67-3.737c6.471-0.927,13.178-1.816,20.113-2.658
			c7.209-0.88,14.663-1.703,22.345-2.45c-0.274-3.094-0.416-6.225-0.416-9.385c0-58.03,47.037-105.076,105.067-105.076
			c58.03,0,105.076,47.047,105.076,105.076c0,4.361-0.265,8.656-0.785,12.876c7.634,1.069,15.042,2.204,22.213,3.406
			c6.887,1.154,13.547,2.356,19.99,3.604c8.193,1.58,16.026,3.226,23.462,4.891c8.808,1.987,17.066,4.002,24.748,6.007
			c1.58-10.028,2.393-20.311,2.393-30.784C572.097,313.663,483.861,225.417,375,225.417z"/>
		<path style="fill:#77B384;" d="M375,250.78c-94.84,0-171.734,76.894-171.734,171.743c0,6.159,0.322,12.242,0.956,18.23
			c7.483-1.287,15.383-2.535,23.67-3.737c6.471-0.927,13.178-1.816,20.113-2.658c7.209-0.88,14.663-1.703,22.345-2.45
			c-0.274-3.094-0.416-6.225-0.416-9.385c0-58.03,47.037-105.076,105.067-105.076c58.03,0,105.076,47.047,105.076,105.076
			c0,4.361-0.265,8.656-0.785,12.876c7.634,1.069,15.042,2.204,22.213,3.406c6.887,1.154,13.547,2.356,19.99,3.604
			c8.193,1.58,16.026,3.226,23.462,4.891c1.173-8.089,1.779-16.366,1.779-24.777C546.734,327.674,469.85,250.78,375,250.78z"/>
		<path style="fill:#C7D1F8;" d="M375,274.831c-83.967,0-152.044,64.186-152.044,143.364c0,4.743,0.243,9.432,0.73,14.056
			c6.656-0.899,13.555-1.762,20.688-2.578c7.415-0.853,15.083-1.652,22.984-2.376c-0.282-3-0.428-6.037-0.428-9.101
			c0-56.278,48.382-101.904,108.07-101.904c59.689,0,108.08,45.626,108.08,101.904c0,4.23-0.273,8.395-0.808,12.487
			c7.853,1.037,15.472,2.138,22.848,3.303c7.084,1.119,13.935,2.285,20.561,3.496c0.905-6.303,1.372-12.744,1.372-19.285
			C527.054,339.017,458.977,274.831,375,274.831z"/>
		<path style="fill:#7B93E0;" d="M374.871,301.852c-70.432,0-127.535,57.093-127.535,127.535c0,3.992,0.18,7.937,0.539,11.835
			c7.209-0.88,14.664-1.703,22.345-2.45c-0.274-3.093-0.416-6.225-0.416-9.385c0-58.03,47.037-105.076,105.067-105.076
			c58.03,0,105.076,47.046,105.076,105.076c0,4.361-0.265,8.656-0.785,12.876c7.634,1.069,15.042,2.204,22.213,3.406
			c0.681-5.326,1.031-10.766,1.031-16.281C502.406,358.945,445.313,301.852,374.871,301.852z"/>
	</g>
	<g>
		<defs>
			<rect id="SVGID_1_" width="750" height="500"/>
		</defs>
		<clipPath id="SVGID_00000041976423543164525530000004233520759670762369_">
			<use xlink:href="#SVGID_1_"  style="overflow:visible;"/>
		</clipPath>
		<g style="clip-path:url(#SVGID_00000041976423543164525530000004233520759670762369_);">
			<g>
				<circle style="fill:#C7D1F8;" cx="375" cy="853.238" r="461.223"/>
				<path style="fill:#AFFBF7;" d="M121.815,1220.291c-9.463-18.359-24.591-38.35-22.205-60.125
					c3.66-33.397,42.339-48.135,51.186-79.551c2.126-7.549,4.314-18.418-2.7-24.089c-6.53-5.28-15.329-7.557-22.3-12.267
					c-8.296-5.605-16.251-13.923-19.166-23.74c-2.249-7.568-0.792-15.51-1.073-23.251c-0.35-9.639-2.987-19.963-9.456-27.386
					c-5.556-6.376-13.42-9.526-21.659-10.658c-18.417-2.53-37.375,2.485-55.533,4.944c-18.624,2.523-37.333,1.766-54.895-5.535
					c-16.771-6.972-31.541-20.102-34.127-38.891c-2.965-21.544,8.714-41.953,25.723-54.356
					c17.199-12.541,38.981-17.697,59.582-21.361c33.191-5.902,89.925-14.372,80.744-61.212c-4.633-23.639-25.349-39.836-27.8-64.228
					c-0.891-8.866,0.436-17.502,6.653-24.213c5.16-5.571,11.755-9.316,16.163-15.678c3.77-5.443,8.645-13.734,6.631-20.693
					c-1.357-4.686-6.031-7.414-10.362-9.104c-14.064-5.491-30.679-4.931-45.495-4.426c-16.432,0.561-33.126,3.066-49.462,0.216
					c-8.151-1.422-16.276-4.721-22.09-10.783c-0.222-0.231-0.399-0.487-0.612-0.724c-35.572,65.403-55.784,140.369-55.784,220.055
					c0,165.869,87.575,311.264,218.993,392.535C130.059,1237.048,126.087,1228.578,121.815,1220.291z"/>
				<path style="fill:#AFFBF7;" d="M169.867,861.394c-15.314-3.234-31.737,1.22-46.616,4.692
					c-7.876,1.838-15.754,3.775-23.759,4.972c-8.065,1.205-15.823,0.975-23.945,0.588c-16.409-0.781-38.25-1.684-45.745,16.5
					c-6.364,15.442,2.396,35.685,20.113,36.964c8.668,0.625,17.234-1.655,25.892-1.519c6.349,0.099,12.145,1.699,17.175,4.88
					c10.562,3.718,19.388,10.837,28.009,18.451c10.063,8.89,21.027,19.215,35.469,18.199c15.389-1.082,29.556-11.689,36.572-25.038
					c7.372-14.026,9.038-31.427,5.608-46.801C195.198,877.852,185.982,864.799,169.867,861.394z"/>
				<path style="fill:#4C9E75;" d="M724.191,1141.348c-3.134-13.32-8.544-26.005-14.629-38.217
					c-11.587-23.252-28.467-45.087-32.488-71.339c-3.524-23.006,4.801-43.982,21.833-59.599c9.83-9.015,21.356-16.08,33.241-22.034
					c11.342-5.681,23.71-9.745,33.196-18.53c9.175-8.496,15.16-23.27,9.499-35.386c-2.844-6.088-7.483-11.14-10.156-17.327
					c-2.652-6.137-2.165-12.822,0.264-18.995c4.144-10.532,14.974-15.763,19.905-25.746c4.011-8.12,3.435-15.962,0.586-24.401
					c-7.514-22.258-23.652-41.478-35.671-61.391c-12.12-20.081-22.584-41.722-18.914-65.744
					c4.07-26.636,21.103-49.523,37.792-69.845C687.596,480.379,541.623,392.014,375,392.014c-7.4,0-14.744,0.238-22.059,0.582
					c-3.404,4.359-6.63,8.877-10.029,13.082c-9.262,11.459-25.415,18.262-38.766,23.657c-13.657,5.518-27.701,9.698-40.45,17.244
					c-9.64,5.705-19.855,13.918-20.119,26.107c-0.241,11.133,5.789,25.28,16.504,29.938c8.376,3.641,17.947,2.959,26.755,4.748
					c9.215,1.873,17.688,7.293,21.038,16.451c7.313,19.985-18.117,30.905-20.987,48.332c-1.645,9.996,8.632,15.781,16.588,18.652
					c10.698,3.861,22.073,5.548,32.599,9.928c11.058,4.6,19.346,12.593,22.128,24.535c1.552,6.661,1.918,13.294,6.458,18.747
					c3.545,4.257,7.3,7.503,12.754,8.77c5.18,1.203,10.302,1.847,15.311,3.771c6.952,2.67,13.56,6.108,19.587,10.493
					c11.112,8.084,19.946,18.579,29.889,27.96c11.605,10.949,24.536,17.5,40.111,20.927c14.687,3.231,29.758,3.867,44.641,5.734
					c14.417,1.81,28.787,4.664,41.734,11.546c12.981,6.901,23.381,17.408,31.713,29.387c8.307,11.943,14.418,25.236,22.583,37.26
					c7.026,10.346,17.809,16.187,27.589,23.462c9.152,6.808,15.245,15.146,16.51,26.727c0.84,7.686-1.159,14.458-3.391,21.722
					c-2.05,6.674-2.735,11.769,1.791,17.336c6.093,7.491,16.176,12.703,15.928,23.362c-0.229,9.824-6.052,17.073-14.894,20.846
					c-9.25,3.947-19.591,4.584-29.473,5.689c-10.345,1.158-21.009,3.14-30.437,7.708c-19.133,9.271-29.953,27.244-40.247,44.967
					c-9.91,17.06-20.679,34.748-38.768,44.165c-9.562,4.978-20.001,7.688-30.444,10.068c-7.57,1.726-18.064,3.333-22.136,10.918
					c-5.506,10.256-0.812,24.857,4.825,33.991c6.911,11.199,16.97,19.974,25.263,30.086c9.069,11.059,15.319,23.587,17.762,37.741
					c2.775,16.074,2.88,32.46,11.288,46.962c14.741,25.424,40.212,37.98,65.738,50.357c48.014-26.869,90.716-62.087,126.179-103.667
					C725.678,1148.58,725.024,1144.888,724.191,1141.348z"/>
			</g>
			<g>
				<path style="fill:#EAAD2B;" d="M97.118,70.843c-4.486-11.691-16.506-19.669-29.103-18.624
					c-11.614,0.964-21.262,8.996-24.349,20.203c-3.211,11.655,0.832,26.132,11.405,32.649c0.011,0.009,0.016,0.021,0.029,0.029
					c10.319,6.73,23.787,6.53,33.426-1.389C98.147,95.808,101.566,82.432,97.118,70.843z M55.619,104.206
					c-9.475-6.588-14.945-23.309-8.989-35.894c6.47-13.673,23.633-18.435,36.66-11.2c13.04,7.243,18.331,24.382,11.017,37.521
					C86.63,108.423,68.503,113.164,55.619,104.206z"/>
				<path style="fill:#EAAD2B;" d="M73.458,36.312c0.028-0.759-1.126-0.882-1.312-0.161c-1.096,4.239-0.914,8.767-0.895,13.104
					c0.001,0.107,0.175,0.135,0.193,0.024C72.13,44.987,73.298,40.669,73.458,36.312z"/>
				<path style="fill:#EAAD2B;" d="M57.567,51.049c-0.713-1.258-1.337-2.562-2.043-3.822c-0.196-0.35-0.419-0.685-0.63-1.026
					c-0.107-0.173-0.206-0.352-0.315-0.524c-0.018-0.038-0.042-0.072-0.063-0.108c-0.014-0.065-0.036-0.13-0.081-0.19
					c-0.138-0.183-0.249-0.278-0.461-0.359c-0.199-0.075-0.481,0.015-0.62,0.168c-0.7,0.766,0.469,1.858,0.896,2.456
					c0.905,1.269,1.708,2.802,3.037,3.685C57.463,51.446,57.663,51.218,57.567,51.049z"/>
				<path style="fill:#EAAD2B;" d="M109.836,58.654c0.651-0.391,0.125-1.425-0.581-1.187c-4.15,1.396-7.844,4.02-11.468,6.402
					c-0.089,0.059-0.018,0.22,0.085,0.174C101.842,62.277,106.098,60.898,109.836,58.654z"/>
				<path style="fill:#EAAD2B;" d="M88.814,53.383c0.665-1.284,1.417-2.519,2.087-3.798c0.186-0.355,0.345-0.725,0.516-1.088
					c0.087-0.184,0.182-0.365,0.267-0.55c0.022-0.036,0.037-0.075,0.056-0.112c0.047-0.047,0.089-0.101,0.115-0.172
					c0.079-0.215,0.098-0.36,0.049-0.583c-0.046-0.208-0.275-0.394-0.479-0.428c-1.024-0.168-1.301,1.407-1.569,2.092
					c-0.57,1.451-1.416,2.96-1.431,4.556C88.424,53.513,88.725,53.556,88.814,53.383z"/>
				<path style="fill:#EAAD2B;" d="M109.556,100.545c0.674,0.349,1.278-0.642,0.705-1.118c-3.367-2.799-7.539-4.566-11.47-6.399
					c-0.097-0.045-0.197,0.1-0.104,0.164C102.276,95.643,105.684,98.542,109.556,100.545z"/>
				<path style="fill:#EAAD2B;" d="M103.006,79.886c1.442-0.109,2.887-0.117,4.328-0.218c0.4-0.028,0.798-0.087,1.196-0.132
					c0.202-0.023,0.406-0.037,0.608-0.061c0.042-0.001,0.083-0.007,0.125-0.011c0.065,0.016,0.133,0.023,0.207,0.008
					c0.225-0.046,0.358-0.106,0.522-0.264c0.153-0.148,0.191-0.441,0.113-0.632c-0.395-0.96-1.881-0.368-2.604-0.237
					c-1.534,0.277-3.263,0.349-4.629,1.174C102.69,79.622,102.811,79.9,103.006,79.886z"/>
				<path style="fill:#EAAD2B;" d="M73.831,123.917c0.076,0.755,1.235,0.72,1.322-0.019c0.508-4.349-0.289-8.81-0.899-13.103
					c-0.015-0.106-0.192-0.11-0.194,0.003C73.964,115.142,73.395,119.579,73.831,123.917z"/>
				<path style="fill:#EAAD2B;" d="M87.566,107.152c0.878,1.149,1.674,2.355,2.545,3.508c0.242,0.32,0.509,0.621,0.764,0.93
					c0.129,0.157,0.252,0.32,0.383,0.476c0.023,0.035,0.051,0.065,0.077,0.099c0.022,0.063,0.053,0.124,0.106,0.177
					c0.161,0.163,0.284,0.242,0.506,0.293c0.208,0.047,0.474-0.081,0.591-0.251c0.589-0.854-0.718-1.777-1.223-2.311
					c-1.07-1.134-2.073-2.543-3.51-3.237C87.614,106.744,87.447,106.997,87.566,107.152z"/>
				<path style="fill:#EAAD2B;" d="M31.907,98.929c-0.677,0.343-0.227,1.412,0.494,1.226c4.24-1.093,8.114-3.443,11.9-5.559
					c0.093-0.052,0.034-0.218-0.072-0.18C40.141,95.893,35.797,96.961,31.907,98.929z"/>
				<path style="fill:#EAAD2B;" d="M52.494,105.703c-0.756,1.233-1.595,2.41-2.356,3.637c-0.211,0.341-0.396,0.698-0.593,1.048
					c-0.1,0.177-0.208,0.351-0.306,0.529c-0.024,0.034-0.042,0.072-0.064,0.107c-0.051,0.043-0.096,0.094-0.127,0.163
					c-0.094,0.209-0.123,0.352-0.091,0.577c0.031,0.211,0.246,0.413,0.447,0.461c1.009,0.241,1.399-1.31,1.716-1.973
					c0.673-1.406,1.626-2.85,1.755-4.441C52.892,105.601,52.596,105.537,52.494,105.703z"/>
				<path style="fill:#EAAD2B;" d="M33.852,56.283c-0.657-0.38-1.307,0.581-0.758,1.083c3.23,2.956,7.314,4.919,11.153,6.937
					c0.095,0.05,0.202-0.091,0.111-0.159C40.89,61.525,37.625,58.468,33.852,56.283z"/>
				<path style="fill:#EAAD2B;" d="M39.413,77.23c-1.446,0.04-2.89-0.021-4.334,0.012c-0.401,0.009-0.801,0.049-1.201,0.075
					c-0.203,0.013-0.407,0.017-0.61,0.032c-0.042-0.001-0.083,0.003-0.125,0.005c-0.064-0.019-0.132-0.029-0.206-0.018
					c-0.227,0.035-0.363,0.089-0.533,0.239c-0.16,0.141-0.212,0.432-0.143,0.626c0.349,0.977,1.861,0.457,2.59,0.361
					c1.546-0.204,3.276-0.194,4.679-0.953C39.716,77.508,39.608,77.225,39.413,77.23z"/>
				<path style="fill:#EAAD2B;" d="M55.384,76.99c-1.528,0.308-1.379,1.785-1.081,2.289c0.663,1.122,2.527,0.953,2.919-0.315
					C57.576,77.822,56.442,76.694,55.384,76.99z"/>
				<path style="fill:#EAAD2B;" d="M79.394,74.721c-0.172-0.734-1.423-0.584-1.333,0.191c0.21,1.809,0.731,3.646,0.697,5.468
					c-0.065,3.505-2.733,6.38-6.215,6.71c-5.839,0.554-8.521-4.603-10.604-9.13c-0.107-0.233-0.448-0.062-0.397,0.168
					c1.269,5.644,5.253,11.424,11.798,10.334C80.415,87.284,80.707,80.336,79.394,74.721z"/>
				<path style="fill:#EAAD2B;" d="M53.163,71.247c-1.344-0.228-2.365,1.19-2.419,2.401c-0.012,0.261,0.402,0.313,0.457,0.056
					c0.24-1.113,1.091-1.519,2.029-1.964C53.434,71.643,53.388,71.285,53.163,71.247z"/>
				<path style="fill:#EAAD2B;" d="M83.818,67.589c1.41-0.663,2.171,0.611,2.232,1.194c0.136,1.296-1.461,2.271-2.531,1.487
					C82.554,69.563,82.792,67.982,83.818,67.589z"/>
				<path style="fill:#EAAD2B;" d="M82.178,61.654c0.943-0.984,2.608-0.454,3.373,0.486c0.165,0.202-0.137,0.491-0.334,0.318
					c-0.856-0.751-1.782-0.569-2.8-0.368C82.196,62.133,82.02,61.819,82.178,61.654z"/>
			</g>
			<g>
				<g>
					<path style="fill:#522A68;" d="M447.888,216.045c-22.174-4.903-39.634,1.965-49.376,20.003
						c-9.742,18.038-20.656,34.553-15.585,47.037c7.308,17.986,26.607,23.8,51.116,28.159c24.458,4.35,38.36,1.291,46.547-7.251
						c14.716-15.355,10.694-38.54,5.005-57.609C480.459,229.162,471.851,221.343,447.888,216.045z"/>
					<path style="fill:#BF8073;" d="M475.146,271.554c3.586-21.287-10.763-41.45-32.05-45.036
						c-15.965-2.689-26.77,1.002-34.952,13.85c-2.727,4.283-8.015,13.215-10.084,18.2c-8.509,20.501,10.763,41.45,32.05,45.036
						C451.397,307.19,471.56,292.841,475.146,271.554z"/>
					<path style="fill:#BF8073;" d="M461.222,273.251c-1.182,7.018,3.549,13.666,10.567,14.848
						c7.018,1.182,13.666-3.549,14.848-10.567c1.182-7.018-3.549-13.666-10.567-14.848
						C469.052,261.502,462.404,266.233,461.222,273.251z"/>
					<g>
						<path style="fill:#BF8073;" d="M421.422,305.385c0,0-2.411-3.257-9.584,0.486c-7.173,3.744-31.09,26.426-31.09,26.426
							s-4.233,1.088-6.579,1.143c-2.346,0.055-2.211,2.029-0.418,2.481c1.793,0.452,3.181,0.536,3.181,0.536
							s-2.109,2.346-3.943,3.988c-1.834,1.642-0.135,3.579,1.576,2.667c1.711-0.912,3.873-2.649,3.873-2.649
							s-1.552,2.74-2.531,3.926s0.065,3.312,1.85,1.962c1.785-1.35,5.478-3.729,5.478-3.729s-2.008,3.477-2.552,4.854
							c-0.544,1.377,1.077,2.851,2.408,1.424c1.331-1.427,3.505-6.012,3.505-6.012s-0.242,2.36-0.512,3.965
							c-0.27,1.605,2.231,2.477,2.849-0.27c0.618-2.747,1.254-7.442,1.254-7.442s21.962-13.858,26.691-16.962
							C421.609,319.072,427.252,311.469,421.422,305.385z"/>
						<path style="fill:#BF8073;" d="M444.275,309.235c0,0,3.345-2.288,8.896,3.599c5.551,5.887,20.716,35.153,20.716,35.153
							s3.643,2.414,5.842,3.235c2.198,0.82,1.424,2.641-0.418,2.481c-1.842-0.16-3.181-0.536-3.181-0.536s1.224,2.907,2.419,5.059
							c1.195,2.152-1.044,3.426-2.362,2.003c-1.318-1.422-2.792-3.772-2.792-3.772s0.569,3.097,1.105,4.538
							c0.536,1.441-1.147,3.108-2.391,1.248c-1.244-1.86-3.954-5.318-3.954-5.318s0.758,3.943,0.821,5.422
							c0.062,1.479-1.952,2.34-2.742,0.557c-0.79-1.784-1.342-6.829-1.342-6.829s-0.545,2.309-0.815,3.914
							c-0.27,1.605-2.919,1.609-2.604-1.189c0.315-2.798,1.254-7.442,1.254-7.442s-16.21-20.288-19.661-24.771
							C439.615,322.105,436.774,313.073,444.275,309.235z"/>
					</g>
					<path style="fill:#BF8073;" d="M399.887,347.226c0,0-4.649,21.126-5.678,33.708c-1.029,12.582-1.303,13.286-1.303,13.286
						s-11.607-0.455-12.021,2.927c-0.414,3.382,28.187,7.449,28.187,7.449l11.684-33.296l5.15,0.868l-2.758,34.869
						c0,0,30.012,6.788,30.524,2.822c0.512-3.965-10.578-7.484-10.578-7.484s2.813-8.088,4.354-13.823
						c5.207-19.381,4.397-32.573,4.397-32.573L399.887,347.226z"/>
					<path style="fill:#FFFCF5;" d="M410.075,397.38c-5.729-0.205-12.026-0.637-17.107-3.499c-0.045,0.289-0.064,0.338-0.064,0.338
						s-11.607-0.455-12.021,2.927c-0.414,3.382,28.187,7.449,28.187,7.449l2.515-7.168
						C411.083,397.413,410.579,397.398,410.075,397.38z"/>
					<path style="fill:#FFFCF5;" d="M444.303,402.794c-6.812,0.499-14.48,0.483-20.599-2.799l-0.557,7.041
						c0,0,30.012,6.788,30.524,2.822C454.079,406.707,447.161,403.84,444.303,402.794z"/>
					<g>
						<path style="fill:#EDC137;" d="M399.273,311.107c0,0,19.525-15.151,25.764-5.93c6.239,9.221-12.233,23.632-12.233,23.632
							s-6.974-1.14-9.974-6.448C399.829,317.054,399.273,311.107,399.273,311.107z"/>
						<path style="fill:#EDC137;" d="M463.327,321.898c0,0-13.483-20.712-22.399-14.044c-8.916,6.668,3.816,26.335,3.816,26.335
							s6.962,1.207,11.536-2.824C460.854,327.334,463.327,321.898,463.327,321.898z"/>
						<path style="fill:#EDC137;" d="M432.559,302.159c-5.886-0.891-15.063-0.578-24.366,17.955
							c-9.363,18.653-21.546,53.012-21.546,53.012s13.383,8.673,33.283,11.188c19.9,2.515,34.357,0.207,34.357,0.207
							s0.818-48.814-2.044-59.342C449.382,314.65,448.897,304.632,432.559,302.159z"/>
					</g>
					<path style="fill:#BF8073;" d="M424.467,292.315c0,0-1.358,6.753-1.828,10.854c-0.868,7.556,20.363,12.124,21.408,3.606
						c0.636-5.19,2.194-13.025,2.194-13.025L424.467,292.315z"/>
					<path style="fill:#522A68;" d="M463.682,239.954c0,0-5.333,14.169-7.396,15.051c-2.064,0.882-14.476,0.636-31.651-3.487
						c-7.65-1.836-19.897-8.841-19.897-8.841s5.153-27.466,41.053-22.341c35.9,5.125,36.366,35.743,34.905,36.451
						c-1.462,0.707-2.594,1.278-7.348,0.17C468.592,255.848,470.589,242.962,463.682,239.954z"/>
					<g>
						<path style="fill:none;stroke:#222221;stroke-width:0;stroke-linecap:round;stroke-linejoin:round;" d="M477.851,280.445
							c0.023,0.004,0.029-0.031,0.006-0.035"/>
						<path style="fill:#222221;" d="M459.761,272.398c-0.871,0.096-1.754,0.112-2.577-0.156c0.307-0.527,0.517-1.085,0.647-1.659
							c0.421,0.145,0.892,0.158,1.322,0.054c0.263-0.064,0.512-0.166,0.729-0.329c0.239-0.18,0.33-0.373,0.491-0.603
							c0.207-0.295-0.115-0.673-0.434-0.469c-0.245,0.158-0.702,0.222-0.988,0.255c-0.361,0.041-0.643-0.046-0.975-0.127
							c0.12-3.874-3.052-8.089-6.831-8.998c-2.626-0.632-5.508-0.101-7.665,1.457c-2.7,1.95-3.211,5.145-3.562,8.201
							c-0.035,0.297,0.433,0.38,0.478,0.081c0.761-5.011,3.622-9.881,9.764-8.721c2.586,0.488,4.585,2.353,5.532,4.685
							c0.9,2.218,0.427,3.94,0.104,6.074c-0.007,0.009-0.02,0.014-0.026,0.024c-0.033,0.048-0.064,0.097-0.093,0.146
							c-0.192,0.322,0.032,0.732,0.324,0.889c1.327,0.71,2.9,0.789,4.045-0.271C460.261,272.73,460.021,272.37,459.761,272.398z"/>
						<path style="fill:#222221;" d="M459.901,260.041c-0.15-0.52-0.442-0.982-0.822-1.382c-0.646-0.681-2.137-1.678-3.055-1.003
							c-0.298,0.219-0.293,0.604-0.029,0.85c0.319,0.296,0.696,0.287,1.1,0.398c0.408,0.112,0.797,0.326,1.13,0.578
							c0.594,0.45,1.384,1.327,1.463,2.083c0.013,0.132,0.243,0.149,0.249,0.009C459.96,261.014,460.067,260.615,459.901,260.041z"
							/>
						<path style="fill:#222221;" d="M434.103,272.535c-0.121-1.843-0.307-3.677-0.603-5.504c-0.062-0.385-0.708-0.456-0.746-0.028
							c-0.117,1.317-0.163,2.637-0.185,3.958c-1.605-1.444-3.733-3.26-5.381-1.228c-1.744,2.151,0.952,6.861,3.196,7.792
							c0.309,0.128,0.753-0.173,0.573-0.512c-0.808-1.516-2.109-2.607-2.634-4.32c-0.607-1.142-0.41-3.181,1.411-2.232
							c0.574,0.323,1.061,0.742,1.462,1.26c0.525,0.546,0.997,1.026,1.632,1.462C433.388,273.568,434.148,273.219,434.103,272.535z"
							/>
						<path style="fill:#222221;" d="M437.947,280.188c-0.305-0.422-0.745-0.77-1.143-1.103c-0.341-0.285-0.74-0.636-1.19-0.714
							c-0.076-0.013-0.172,0.058-0.153,0.143c0.066,0.292,0.236,0.543,0.427,0.776c-2.004,1.992-3.592,4.906-6.952,4.749
							c-3.524-0.164-5.399-3.5-6.861-6.185c0.257-0.123,0.517-0.295,0.314-0.548c-0.063-0.079-0.169-0.146-0.277-0.125
							c-0.808,0.156-1.538,0.834-1.77,1.615c-0.064,0.214,0.251,0.327,0.379,0.174c0.284-0.342,0.588-0.673,0.967-0.913
							c1.254,3.147,3.178,6.977,7.147,7.177c3.18,0.16,6.478-2.424,7.767-5.144c0.229,0.245,0.471,0.483,0.738,0.66
							C437.711,280.995,438.244,280.6,437.947,280.188z"/>
						<path style="fill:#FC6232;" d="M458.953,284.869c0.543-3.224-1.73-6.295-5.077-6.859c-3.347-0.564-6.5,1.593-7.043,4.817
							c-0.543,3.224,1.73,6.295,5.077,6.859C455.256,290.25,458.41,288.093,458.953,284.869z"/>
						<path style="fill:#222221;" d="M424.138,258.564c-1.528-2.179-4.077-3.624-6.765-3.888c-3.911-0.383-8.353,2.626-9.45,6.383
							c-0.233-0.01-0.475,0.017-0.715-0.054c-0.447-0.134-0.772-0.445-1.025-0.823c-0.233-0.35-0.704-0.036-0.608,0.324
							c0.163,0.611,0.656,1.104,1.233,1.346c0.252,0.105,0.594,0.202,0.914,0.202c-0.069,0.551-0.072,1.112,0.02,1.677
							c-0.285,0.02-0.574,0.035-0.864-0.046c-0.696-0.195-1.118-0.642-1.578-1.168c-0.183-0.208-0.525-0.103-0.51,0.192
							c0.047,0.894,0.799,1.648,1.567,2.027c0.459,0.227,1.198,0.393,1.804,0.277c0.28,0.243,0.794,0.107,0.874-0.289
							c0.473-2.324,0.484-4.224,2.172-6.151c1.658-1.893,4.158-2.999,6.761-2.614c6.184,0.916,7.291,6.454,6.368,11.439
							c-0.055,0.298,0.414,0.372,0.478,0.081C425.486,264.478,426.05,261.291,424.138,258.564z"/>
						<path style="fill:#222221;" d="M409.206,251.501c0.312-0.442,0.74-0.783,1.229-1.036c0.834-0.432,2.568-0.885,3.215,0.053
							c0.21,0.305,0.079,0.667-0.251,0.812c-0.398,0.175-0.752,0.043-1.17,0.016c-0.423-0.028-0.86,0.047-1.257,0.176
							c-0.709,0.23-1.743,0.8-2.064,1.489c-0.056,0.12-0.279,0.061-0.238-0.073C408.831,252.401,408.861,251.989,409.206,251.501z"
							/>
						<path style="fill:#FC6232;" d="M401.967,275.269c0.543-3.224,3.697-5.381,7.043-4.817c3.347,0.564,5.62,3.634,5.077,6.859
							c-0.543,3.224-3.697,5.381-7.043,4.817C403.697,281.564,401.424,278.493,401.967,275.269z"/>
					</g>
					<path style="fill:#222221;" d="M479.02,269.072c-0.691-0.515-1.543,0.487-0.863,1.033c1.876,1.505,2.498,3.557,2.366,5.697
						c-0.841-1.528-2.163-2.842-3.708-3.559c-0.187-0.087-0.327,0.159-0.187,0.294c1.606,1.546,2.72,3.166,3.486,5.26
						c0.015,0.043,0.042,0.069,0.063,0.104c-0.592,2.206-1.819,4.348-3.161,5.932c-0.001,0-0.002,0-0.003,0
						c-0.003,0,0.001,0.004-0.001,0.005c-0.168,0.198-0.336,0.392-0.506,0.572c-0.126,0.133,0.065,0.309,0.206,0.223
						C481.512,281.72,484.236,272.958,479.02,269.072z"/>
					<path style="fill:#222221;" d="M443.005,303.184c-5.989,0.774-11.73,0.329-17.659-0.639c-0.04-0.007-0.061,0.054-0.022,0.069
						c5.674,2.167,11.824,2.507,17.794,1.683C443.829,304.199,443.722,303.091,443.005,303.184z"/>
					<path style="fill:#222221;" d="M408.506,272.93c-0.076-0.199-0.254-0.346-0.464-0.381c-0.21-0.035-0.427,0.045-0.563,0.208
						c-0.069,0.084-0.113,0.179-0.132,0.287c-0.018,0.107-0.007,0.212,0.03,0.314c0.025,0.079,0.048,0.148,0.099,0.22
						c0.083,0.116,0.211,0.209,0.353,0.233c0.142,0.024,0.293-0.021,0.41-0.104c0.071-0.051,0.116-0.109,0.165-0.175
						c0.069-0.084,0.113-0.179,0.132-0.287C408.554,273.137,408.544,273.032,408.506,272.93z"/>
					<path style="fill:#222221;" d="M405.382,276.418c-0.129-0.063-0.266-0.107-0.406-0.135c-0.289-0.059-0.613,0.167-0.649,0.462
						c-0.036,0.294,0.149,0.608,0.462,0.649c0.137,0.018,0.274,0.022,0.411,0.007c0.219-0.025,0.473-0.182,0.502-0.423
						C405.731,276.74,405.59,276.52,405.382,276.418z"/>
					<path style="fill:#222221;" d="M410.903,277.622c-0.028-0.073-0.072-0.135-0.132-0.186c-0.044-0.045-0.088-0.09-0.133-0.134
						c-0.08-0.066-0.171-0.108-0.274-0.126c-0.103-0.017-0.203-0.007-0.301,0.029c-0.19,0.072-0.331,0.244-0.365,0.445
						c-0.034,0.201,0.043,0.409,0.199,0.539c0.081,0.067,0.172,0.109,0.274,0.126c0.103,0.017,0.203,0.007,0.301-0.029
						c0.057-0.028,0.114-0.055,0.17-0.083c0.073-0.028,0.135-0.072,0.186-0.132c0.052-0.063,0.085-0.134,0.098-0.214
						C410.94,277.776,410.932,277.698,410.903,277.622z"/>
					<path style="fill:#222221;" d="M453.723,281.474c-0.613-0.103-0.774,0.849-0.16,0.952
						C454.175,282.53,454.336,281.578,453.723,281.474z"/>
					<path style="fill:#222221;" d="M451.344,284.914c-0.055-0.073-0.123-0.135-0.194-0.192c-0.109-0.088-0.255-0.111-0.391-0.12
						c-0.11-0.008-0.207,0.003-0.3,0.069c-0.081,0.057-0.151,0.161-0.163,0.261c-0.029,0.234,0.112,0.404,0.33,0.464
						c0.131,0.036,0.277,0.061,0.409,0.014c0.085-0.031,0.17-0.067,0.246-0.118C451.399,285.211,451.43,285.028,451.344,284.914z"/>
					<path style="fill:#222221;" d="M455.985,285.138c-0.664-0.112-0.838,0.919-0.174,1.031
						C456.475,286.281,456.65,285.25,455.985,285.138z"/>
					<path style="fill:#222221;" d="M465.595,234.565c0.051-0.405-0.589-0.658-0.727-0.226c-2.322,7.271-4.98,13.24-9.113,19.623
						c-0.097-0.077-0.223-0.12-0.373-0.1c-4.186,0.567-8.42,0.389-12.628-0.18c0.714-2.978,1.255-5.789,2.712-8.595
						c1.487-2.865,3.424-5.419,5.157-8.128c0.086-0.135-0.084-0.291-0.196-0.164c-4.013,4.513-8.331,10.475-8.741,16.738
						c-4.463-0.673-8.888-1.76-13.191-2.853c-0.018-0.046-0.026-0.091-0.054-0.138c-0.059-0.101-0.148-0.157-0.245-0.199
						c0.003-0.003,0.006-0.005,0.008-0.008c0.306,0.188,0.927-2.828,0.992-3.065c0.293-1.065,0.656-2.115,1.078-3.136
						c0.777-1.882,1.778-3.663,2.84-5.397c0.146-0.239-0.215-0.414-0.386-0.245c-2.25,2.218-3.874,4.899-4.853,7.908
						c-0.251,0.771-1.011,2.546-1.009,3.837c-4.431-1.197-8.701-2.661-12.816-4.471c2.191-6.262,5.669-11.136,9.623-16.404
						c0.135-0.18-0.081-0.442-0.276-0.298c-5.2,3.838-8.735,9.996-10.849,16.008c-2.504-1.165-4.946-2.474-7.335-3.929
						c0.466-0.863,0.634-1.873,1.049-2.778c0.559-1.216,1.309-2.293,2.056-3.397c0.106-0.156-0.061-0.366-0.232-0.25
						c-1.062,0.721-1.896,1.706-2.542,2.812c-0.501,0.858-1.114,2.042-1.169,3.112c-0.889-0.558-1.769-1.14-2.641-1.746
						c-0.072-0.05-0.157,0.047-0.089,0.107c0.906,0.793,1.838,1.548,2.791,2.267c0.063,0.142,0.2,0.242,0.351,0.256
						c6.692,4.955,14.478,8.177,22.514,10.395c8.433,2.328,19.534,5.711,28.205,3.024c0.125,0.104,0.315,0.122,0.468-0.044
						C460.978,249.493,464.68,241.897,465.595,234.565z"/>
					<path style="fill:#222221;" d="M465.74,297.046c-0.035-0.088-0.166-0.038-0.137,0.052c0.863,2.677,1.491,5.399,2.155,8.13
						c0.04,0.165,0.313,0.098,0.29-0.068C467.652,302.362,466.789,299.66,465.74,297.046z"/>
					<path style="fill:#222221;" d="M475.216,293.016c-0.062-0.215-0.375-0.089-0.322,0.122c0.587,2.332,0.653,4.587,0.714,6.973
						c0.006,0.246,0.407,0.26,0.435,0.014C476.31,297.749,475.867,295.298,475.216,293.016z"/>
					<path style="fill:#222221;" d="M397.042,285.538c-1.833,1.611-3.565,3.89-3.84,6.392c-0.037,0.342,0.469,0.545,0.609,0.189
						c0.931-2.359,1.707-4.4,3.531-6.257C397.518,285.684,397.233,285.37,397.042,285.538z"/>
					<path style="fill:#222221;" d="M391.116,277.05c-1.403,1.491-2.382,3.192-2.893,5.178c-0.067,0.26,0.372,0.401,0.456,0.142
						c0.606-1.847,1.523-3.546,2.813-5.006C391.703,277.126,391.33,276.822,391.116,277.05z"/>
					<path style="fill:#222221;" d="M408.259,400.111c-8.202-1.314-17.352-1.156-25.195-3.955c-0.076-0.027-0.121,0.072-0.052,0.113
						c3.379,2.028,7.367,2.269,11.196,2.905c4.606,0.765,9.231,1.473,13.865,2.041C408.784,401.301,408.974,400.225,408.259,400.111
						z"/>
					<path style="fill:#222221;" d="M452.693,408.353c-9.247-0.031-17.754-2.445-26.867-3.367c-0.676-0.068-0.834,0.878-0.175,1.039
						c8.289,2.022,18.579,4.228,27.064,2.547C452.854,408.543,452.834,408.353,452.693,408.353z"/>
					<path style="fill:#222221;" d="M445.147,359.827c0.115-0.178,0.122-0.395,0.121-0.651l-0.002-0.991
						c-0.001-0.237-0.231-0.435-0.446-0.476c-0.349-0.067-0.685-0.119-1.038-0.14c-0.048-0.003-0.094,0.003-0.14,0.01
						c-0.036-0.002-0.063-0.017-0.102-0.015c-11.773,0.816-26.421-0.112-37.126-5.48c-0.099-0.05-0.193,0.096-0.105,0.165
						c0.061,0.048,0.126,0.089,0.188,0.136c-0.13-0.017-0.266,0.02-0.33,0.172c-1.878,4.447-2.905,10.098-0.197,14.436
						c2.992,4.793,9.281,6.626,14.467,7.687c5.318,1.088,13.219,2.267,18.138-0.774
						C443.365,370.949,444.504,365.012,445.147,359.827z M436.722,373.357c-4.325,1.928-10.691,1.113-15.197,0.321
						c-4.356-0.766-9.585-2.08-12.85-5.264c-4.651-4.536-2.771-10.132-1.87-15.657c0.011-0.069-0.015-0.123-0.04-0.177
						c4.734,3.424,11.074,4.004,16.676,5.05c6.708,1.251,13.433,2.157,20.253,1.435c0.073-0.008,0.128-0.036,0.188-0.059
						C443.17,364.263,442.252,370.891,436.722,373.357z"/>
				</g>
				<g>
					<path style="fill:#522A68;" d="M237.326,239.452c0,0-10.271-12.188-39.012-3.446c-28.74,8.742-36.703,22.301-36.957,37.227
						c-0.254,14.926,2.755,21.971,10.615,26.272c7.86,4.301,49.557,16.539,70.361,9.582c20.803-6.956,21.754-24.414,15.112-44.667
						C250.803,244.169,243.112,236.301,237.326,239.452z"/>
					<path style="fill:#BF8073;" d="M247.897,274.244c-6.282-20.652-28.117-32.302-48.769-26.02
						c-15.489,4.712-23.515,12.834-25.109,27.982c-0.531,5.049-1.282,15.403-0.911,20.787c1.525,22.144,28.117,32.302,48.769,26.02
						S254.179,294.896,247.897,274.244z"/>
					<path style="fill:#BF8073;" d="M234.828,284.649c2.071,6.809,9.27,10.65,16.079,8.579c6.809-2.071,10.65-9.27,8.579-16.079
						c-2.071-6.809-9.27-10.65-16.079-8.579C236.598,270.641,232.757,277.84,234.828,284.649z"/>
					<g>
						<path style="fill:#BF8073;" d="M213.768,330.915c0,0-3.61-1.84-8.362,4.709c-4.751,6.549-16.044,37.516-16.044,37.516
							s-3.304,2.861-5.38,3.956c-2.075,1.095-1.075,2.802,0.732,2.407c1.807-0.395,3.086-0.939,3.086-0.939s-0.841,3.04-1.751,5.327
							c-0.91,2.288,1.474,3.264,2.6,1.684c1.125-1.58,2.286-4.098,2.286-4.098s-0.167,3.145-0.515,4.642
							c-0.347,1.498,1.535,2.936,2.531,0.932c0.996-2.004,3.24-5.781,3.24-5.781s-0.247,4.008-0.12,5.483
							c0.127,1.475,2.236,2.071,2.791,0.201c0.555-1.87,0.456-6.945,0.456-6.945s0.836,2.22,1.31,3.778
							c0.474,1.557,3.101,1.222,2.43-1.513c-0.671-2.734-2.196-7.22-2.196-7.22s13.479-22.197,16.327-27.085
							C220.038,343.083,221.698,333.762,213.768,330.915z"/>
						<path style="fill:#BF8073;" d="M235.939,324.171c0,0,1.974-3.539,9.568-0.745c7.594,2.794,34.217,22.227,34.217,22.227
							s4.338,0.537,6.671,0.291c2.334-0.246,2.453,1.729,0.732,2.407s-3.086,0.939-3.086,0.939s2.392,2.057,4.421,3.45
							c2.03,1.393,0.593,3.532-1.221,2.846c-1.814-0.685-4.181-2.131-4.181-2.131s1.89,2.519,3.012,3.569
							c1.122,1.051,0.36,3.293-1.584,2.183c-1.943-1.11-5.91-2.997-5.91-2.997s2.437,3.191,3.152,4.488
							c0.715,1.296-0.704,2.965-2.206,1.721c-1.503-1.244-4.246-5.514-4.246-5.514s0.542,2.31,1.016,3.867
							c0.474,1.557-1.895,2.742-2.861,0.097c-0.965-2.645-2.196-7.22-2.196-7.22s-23.556-10.931-28.644-13.405
							C237.507,337.769,230.937,330.951,235.939,324.171z"/>
					</g>
					<path style="fill:#522A68;" d="M213.149,377.969c0,0,5.259,20.983,9.948,32.703c4.689,11.721,4.758,12.473,4.758,12.473
						s-10.592,4.768-9.454,7.98c1.137,3.211,28.551-5.901,28.551-5.901l-4.389-35.013l4.997-1.52l13.079,32.441
						c0,0,29.89-7.307,28.58-11.085c-1.31-3.778-12.806-1.982-12.806-1.982s-1.089-8.494-2.267-14.314
						c-3.982-19.669-10.589-31.116-10.589-31.116L213.149,377.969z"/>
					<g>
						<path style="fill:#EDC137;" d="M196.494,345.914c0,0,10.72-22.268,20.416-16.797c9.696,5.471-0.412,26.607-0.412,26.607
							s-6.751,2.089-11.803-1.324C199.643,350.988,196.494,345.914,196.494,345.914z"/>
						<path style="fill:#EDC137;" d="M258.639,327.01c0,0-21.304-12.527-26.311-2.583c-5.007,9.944,15.159,21.871,15.159,21.871
							s6.77-2.024,9.066-7.672C258.849,332.979,258.639,327.01,258.639,327.01z"/>
						<path style="fill:#EDC137;" d="M222.297,323.062c-5.666,1.827-13.741,6.199-13.803,26.936
							c-0.063,20.871,1.332,32.832,1.332,32.832s11.866,3.006,30.8-3.617c18.934-6.622,26.864-13.924,26.864-13.924
							s-10.053-22.253-17.309-30.4S238.024,317.99,222.297,323.062z"/>
					</g>
					<path style="fill:#BF8073;" d="M210.664,317.859c0,0,1.796,6.65,3.203,10.531c2.592,7.15,23.633,1.771,20.77-6.318
						c-1.745-4.929-3.844-12.637-3.844-12.637L210.664,317.859z"/>
					<path style="fill:#522A68;" d="M247.79,253.902c0,0-0.126,23.547-4.988,21.392c-4.862-2.155-6.821-19.656-6.821-19.656
						s-12.484,14.934-19.443,14.731c-6.959-0.203-4.469-7.457-4.469-7.457s-16.55,14.87-24.457,14.214
						c-7.907-0.657-1.374-10.503-1.374-10.503s-10.395,15.187-16.405,10.993c-6.01-4.194-0.283-18.695,8.038-24.596
						c8.32-5.901,34.386-15.222,49.11-12.74C241.704,242.761,247.79,253.902,247.79,253.902z"/>
					<g>
						<path style="fill:none;stroke:#222221;stroke-width:0;stroke-linecap:round;stroke-linejoin:round;" d="M254.973,281.547
							c0.022-0.007,0.012-0.04-0.01-0.034"/>
						<path style="fill:#222221;" d="M222.115,275.483c-2.633,0.605-4.975,2.365-6.212,4.722c-1.547,2.949-0.58,6.037,0.469,8.929
							c0.102,0.281,0.557,0.147,0.464-0.141c-1.553-4.825-1.165-10.46,4.851-12.16c2.532-0.716,5.153,0.062,7.04,1.726
							c1.921,1.695,2.175,3.578,2.942,5.822c0.158,0.463,0.904,0.475,1.02-0.041C233.917,278.903,227.172,274.32,222.115,275.483z"
							/>
						<path style="fill:#222221;" d="M229.808,271.287c-0.366-0.398-0.834-0.682-1.352-0.87c-0.882-0.321-2.66-0.549-3.182,0.465
							c-0.169,0.329,0.007,0.672,0.353,0.773c0.418,0.122,0.751-0.054,1.162-0.134c0.416-0.082,0.859-0.063,1.269,0.014
							c0.732,0.138,1.831,0.57,2.238,1.212c0.07,0.112,0.284,0.025,0.227-0.103C230.295,272.132,230.213,271.727,229.808,271.287z"
							/>
						<path style="fill:#222221;" d="M212.288,293.974c-0.93-1.596-1.914-3.154-2.994-4.657c-0.227-0.316-0.837-0.092-0.68,0.308
							c0.483,1.231,1.03,2.433,1.6,3.625c-2.08-0.577-4.795-1.254-5.364,1.3c-0.602,2.703,3.911,5.716,6.335,5.55
							c0.333-0.023,0.597-0.491,0.284-0.714c-1.399-0.997-3.05-1.393-4.283-2.693c-1.053-0.751-1.786-2.665,0.268-2.627
							c0.658,0.033,1.281,0.191,1.87,0.475c0.713,0.255,1.35,0.474,2.113,0.581C212.109,295.217,212.633,294.566,212.288,293.974z"
							/>
						<path style="fill:#222221;" d="M216.945,299.081c-0.951,2.7-1.02,6.112-4.152,7.494c-3.244,1.432-6.427-0.748-8.938-2.504
							c-0.217-0.152-0.505,0.124-0.297,0.311c2.533,2.274,5.997,4.915,9.677,3.307c3.066-1.34,4.903-5.453,4.639-8.524
							C217.828,298.64,217.119,298.586,216.945,299.081z"/>
						<path style="fill:#FC6232;" d="M240.031,293.933c-0.952-3.128-4.355-4.863-7.602-3.875c-3.247,0.988-5.108,4.324-4.157,7.452
							c0.952,3.128,4.355,4.863,7.602,3.875C239.121,300.398,240.982,297.061,240.031,293.933z"/>
						<path style="fill:#222221;" d="M189.35,285.449c2.524-0.963,5.449-0.806,7.789,0.463c2.927,1.588,3.843,4.692,4.583,7.678
							c0.072,0.29-0.381,0.432-0.464,0.141c-1.397-4.873-4.857-9.336-10.801-7.399c-2.502,0.815-4.246,2.921-4.886,5.354
							c-0.652,2.477,0.186,4.183,0.798,6.474c0.126,0.472-0.486,0.898-0.87,0.534C181.452,294.862,184.502,287.3,189.35,285.449z"/>
						<path style="fill:#222221;" d="M180.624,286.248c0.082-0.535,0.313-1.031,0.638-1.476c0.554-0.758,1.904-1.937,2.901-1.386
							c0.324,0.179,0.368,0.562,0.137,0.839c-0.279,0.334-0.654,0.374-1.04,0.536c-0.391,0.164-0.749,0.426-1.046,0.718
							c-0.531,0.522-1.203,1.493-1.184,2.253c0.004,0.132-0.222,0.179-0.246,0.041C180.69,287.221,180.533,286.839,180.624,286.248z
							"/>
						<path style="fill:#FC6232;" d="M184.743,310.751c-0.951-3.128,0.91-6.465,4.157-7.452c3.247-0.988,6.651,0.747,7.602,3.875
							c0.952,3.128-0.909,6.464-4.157,7.452C189.098,315.614,185.695,313.879,184.743,310.751z"/>
					</g>
					<path style="fill:#222221;" d="M250.948,270.846c-0.848-0.153-1.164,1.124-0.312,1.309c2.35,0.511,3.822,2.07,4.658,4.044
						c-1.434-0.993-3.203-1.579-4.906-1.532c-0.206,0.006-0.221,0.288-0.036,0.346c2.127,0.668,3.846,1.621,5.465,3.154
						c0.033,0.032,0.069,0.044,0.103,0.065c0.454,2.238,0.311,4.703-0.184,6.719c-0.001,0-0.002,0.001-0.003,0.001
						c-0.003,0.001,0.003,0.003,0.001,0.005c-0.062,0.252-0.126,0.501-0.198,0.737c-0.054,0.176,0.196,0.248,0.285,0.108
						C258.819,281.055,257.35,271.998,250.948,270.846z"/>
					<path style="fill:#222221;" d="M206.891,352.586c-1.278-1.316-2.99-2.227-4.421-3.379c-1.585-1.277-3.022-2.712-4.163-4.404
						c-0.109-0.162-0.342-0.009-0.254,0.16c1.709,3.304,5.044,6.641,8.535,8.048C206.86,353.121,207.11,352.811,206.891,352.586z"/>
					<path style="fill:#222221;" d="M236.13,324.699c-2.55,10.015-15.368,11.864-23.179,7.136c-0.111-0.067-0.227,0.098-0.131,0.183
						c7.543,6.697,21.92,2.936,24.292-7.086C237.262,324.299,236.291,324.069,236.13,324.699z"/>
					<path style="fill:#222221;" d="M256.706,326.724c-0.554,3.817-1.714,7.371-2.922,11.015c-0.039,0.116,0.141,0.178,0.197,0.074
						c1.815-3.355,2.782-7.19,3.38-10.933C257.429,326.452,256.768,326.297,256.706,326.724z"/>
					<path style="fill:#222221;" d="M235.566,341.313c-0.629,0.465-4.967,4.411-5.488,4.288c-0.369-0.088-0.794-5.473-0.989-6.462
						c-0.094-0.473-0.661-0.408-0.865-0.076c-0.11,0.008-0.214,0.076-0.252,0.225c-1.103,4.36-1.933,8.783-2.785,13.197
						c-0.088,0.455,0.407,0.849,0.819,0.585c1.997-1.278,3.839-2.66,5.619-4.183c-0.859,4.915-1.454,9.846-1.756,14.832
						c-0.03,0.495,0.775,0.697,0.961,0.227c2.824-7.138,4.693-14.444,5.505-22.084C236.376,341.47,235.966,341.018,235.566,341.313z
						 M234.723,346.452c-0.467,2.938-1.112,5.846-1.917,8.709c-0.366,1.301-0.759,2.595-1.195,3.875
						c-0.288,0.845-0.49,1.482-0.631,1.955c0.055-0.264,0.113-0.57,0.17-0.921c0.673-4.14,0.986-8.307,1.773-12.44
						c0.104-0.549-0.519-0.839-0.912-0.486c0.415-0.373-4.812,4.336-5.166,4.097c-0.745-0.503,0.042-1.845,0.192-2.648
						c0.493-2.634,0.951-5.272,1.336-7.923c0.355,2.163,0.532,4.274,0.537,6.496c0.001,0.463,0.568,0.618,0.872,0.328
						c0.613-0.585,4.708-4.531,4.977-4.323C235.436,343.695,234.883,345.442,234.723,346.452z"/>
					<path style="fill:#222221;" d="M226.411,386.874c-0.201,1.664-0.722,3.274-1.673,4.667c-0.461,0.676-1.012,1.276-1.643,1.797
						c-0.545,0.449-1.05,0.619-1.211,1.333c-0.056,0.25,0.1,0.526,0.358,0.581c1.473,0.313,2.919-1.957,3.553-3.055
						c0.927-1.609,1.339-3.424,1.128-5.269C226.893,386.658,226.449,386.561,226.411,386.874z"/>
					<path style="fill:#222221;" d="M267.074,376.918c-3.284,0.531-6.122-0.525-8.744-2.448c-0.245-0.18-0.53,0.118-0.323,0.349
						c2.244,2.497,5.84,3.449,9.093,3.122C267.766,377.875,267.71,376.815,267.074,376.918z"/>
					<path style="fill:#222221;" d="M243.975,421.446c-7.54,3.284-14.911,6.448-23.161,7.39c-0.115,0.013-0.115,0.186,0.005,0.183
						c8.31-0.202,15.954-3.222,23.477-6.516C244.94,422.221,244.627,421.162,243.975,421.446z"/>
					<path style="fill:#222221;" d="M286.706,409.79c-7.822,3.547-15.293,7.389-24.122,7.405c-0.488,0.001-0.547,0.719-0.087,0.837
						c7.646,1.965,18.375-3.501,24.363-7.906C287.017,410.01,286.91,409.697,286.706,409.79z"/>
					<path style="fill:#222221;" d="M246.623,268.918c-0.289,2.187-1.628,3.405-4.017,3.653l-1.518-1.896
						c-1.077-1.569-1.847-3.318-2.445-5.118c-0.999-3.006-1.374-6.15-2.149-9.209c0.32-0.623-0.556-1.042-0.936-0.497
						c-2.415,3.455-5.031,6.261-8.475,8.698c-1.313,0.93-3.578,2.746-5.779,3.891c-0.14,0.057-0.274,0.121-0.424,0.164
						c-0.432,0.125-0.879,0.206-1.318,0.303c-0.646,0-1.223,0.195-1.921,0.249c-1.103,0.086-2.236-0.096-3.178-0.703
						c-2.334-1.504-1.751-3.752-0.297-5.565c0.012-0.016,0.013-0.037,0.022-0.055c0.06-0.06,0.121-0.117,0.181-0.178
						c0.553-0.566-0.32-1.342-0.891-0.825c-4.492,4.068-9.111,7.804-14.393,10.799c-2.461,1.396-5.151,3.027-7.877,3.795
						c-4.146,1.169-7.531-0.84-6.197-5.891c0.271-1.026,0.718-1.951,1.21-2.865c0.308-0.393,0.56-0.732,0.735-0.988
						c0.352-0.517-0.466-1.061-0.875-0.622c-2.394,2.566-4.813,4.98-7.484,7.256c-1.34,1.142-2.797,2.475-4.346,3.379
						c-3.173,1.85-6.152,0.336-5.764-3.224c0.699-6.409,3.58-11.794,6.756-17.272c0.129-0.223-0.182-0.421-0.355-0.252
						c-3.109,3.035-5.16,6.984-6.487,11.096c-0.865,2.681-2.776,8.307-0.94,10.967c3.413,4.943,11.689-2.389,16.388-7.553
						c-1.297,3.688-0.763,7.715,4.382,7.911c4.08,0.155,8.995-3.107,12.352-5.07c3.914-2.288,7.63-4.956,11.007-7.989
						c-0.065,1.089,0.241,2.247,0.815,3.02c1.084,1.458,3.663,2.556,5.726,2.232c2.163,0.419,5.204-2.029,6.702-2.943
						c4.286-2.615,8.412-5.826,11.02-10.169c0.287,5.305,1.662,12.748,5.904,16.043c3.251,2.525,5.421-1.338,5.731-4.48
						C247.541,268.474,246.774,268.492,246.623,268.918z"/>
					<path style="fill:#222221;" d="M223.606,251.469c-1.173,1.571-2.701,2.999-4.822,2.958c-2.689-0.051-4.413-2.342-4.326-4.856
						c0.016-0.463-0.571-0.604-0.862-0.325c-1.063,1.02-2.062,2.369-3.563,2.706c-3.706,0.833-3.758-2.452-3.331-5.23
						c0.038-0.247-0.286-0.314-0.37-0.088c-0.83,2.223-1.303,5.729,1.666,6.586c2.165,0.626,4.017-1.035,5.521-2.508
						c0.739,5.341,8.236,6.287,10.732,1.215C224.44,251.542,223.888,251.091,223.606,251.469z"/>
					<path style="fill:#222221;" d="M229.847,318.286c-5.129,3.329-9.681,6.682-16.098,6.332c-0.105-0.006-0.117,0.157-0.018,0.18
						c6.11,1.46,12.009-2.034,16.64-5.684C230.855,318.733,230.388,317.934,229.847,318.286z"/>
				</g>
				<g>
					<g>
						<g>
							<path style="fill:#FF9982;" d="M511.93,334.404c0,0-2.176-3.419-9.595-0.189c-7.419,3.23-32.872,24.173-32.872,24.173
								s-13.759,2.539-3.971,13.807c6.434,7.407,12.907-6.318,12.907-6.318s22.883-12.278,27.819-15.043
								C511.153,348.071,517.317,340.884,511.93,334.404z"/>
						</g>
						<path style="fill:#222221;" d="M470.891,368.567c-0.156-0.287-0.372-0.548-0.715-0.739c2.061-0.997-0.681-4.517-1.533-5.457
							c-0.17-0.188-0.467,0.063-0.34,0.272c0.35,0.576,2.416,4.183,1.104,4.288c-0.596,0.047-1.297-0.681-1.663-1.064
							c-0.548-0.573-0.925-1.228-1.257-1.942c-0.238-0.512-1.072-0.183-1.001,0.322c-1.973-0.293-5.351,1.84-4.317,4.055
							c0.35,0.751,1.093,0.982,1.841,0.931c-0.235,1.322,1.051,2.534,2.464,2.504c0.142-0.003,0.272-0.035,0.407-0.055
							c-0.014,0.741,0.589,1.313,1.281,1.507c0.395,0.11,0.786,0.091,1.161-0.008c-0.064,0.097-0.064,0.237,0.064,0.322
							c1.642,1.094,3.843,0.434,4.566-1.427C473.494,370.684,472.726,368.116,470.891,368.567z M462.068,367.504
							c0.005-1.614,2.408-2.291,3.599-2.797c0.171,0.346,0.402,0.737,0.677,1.129c-0.52,0.63-0.992,1.256-1.662,1.749
							C464.074,368.031,462.063,369.014,462.068,367.504z M463.602,369.135c0.176-0.046,0.348-0.101,0.507-0.171
							c1.111-0.492,2.151-1.482,2.604-2.637c0.5,0.616,1.103,1.166,1.744,1.461c-0.418,1.141-0.875,2.289-2.059,2.844
							C465.157,371.213,463.617,370.508,463.602,369.135z M466.249,371.621c1.537-0.419,2.563-1.944,2.986-3.466
							c0.026,0.087,0.085,0.164,0.185,0.21C472.089,369.602,468.022,374.454,466.249,371.621z M471.911,372.443
							c-0.757,1.045-2.196,1.224-3.303,0.662c-0.01-0.005-0.018,0.001-0.029-0.003c0.426-0.158,0.824-0.416,1.166-0.713
							c0.818-0.711,1.463-1.964,1.389-3.033C472.608,369.194,472.508,371.62,471.911,372.443z"/>
					</g>
					<path style="fill:#FF9982;" d="M546.719,342.601c0,0,3.498-2.047,8.621,4.216c5.123,6.263,18.191,36.523,18.191,36.523
						s3.465,2.665,5.6,3.638c2.135,0.973,1.235,2.734-0.591,2.445c-1.826-0.29-3.135-0.758-3.135-0.758s1.016,2.986,2.057,5.217
						c1.041,2.231-1.283,3.344-2.498,1.832c-1.215-1.512-2.519-3.959-2.519-3.959s0.349,3.129,0.783,4.604
						c0.433,1.475-1.363,3.02-2.473,1.077c-1.11-1.943-3.57-5.583-3.57-5.583s0.479,3.987,0.437,5.467
						c-0.042,1.48-2.112,2.197-2.774,0.362c-0.662-1.835-0.858-6.906-0.858-6.906s-0.706,2.265-1.089,3.847
						c-0.383,1.582-3.025,1.4-2.514-1.369c0.512-2.769,1.774-7.335,1.774-7.335s-14.743-21.378-17.87-26.093
						C541.165,355.112,538.967,345.902,546.719,342.601z"/>
					<path style="fill:#522A68;" d="M586.384,262.331c0,0-2.66-15.715-31.859-22.778c-29.199-7.062-42.943,0.575-50.741,13.305
						s-8.783,20.327-4.196,28.023c4.587,7.697,34.295,39.412,55.749,43.982c21.454,4.57,31.138-9.987,35.7-30.806
						C595.598,273.238,592.968,262.553,586.384,262.331z"/>
					<path style="fill:#FF9982;" d="M577.824,297.671c5.075-20.982-7.821-42.105-28.802-47.179
						c-15.736-3.806-26.774-0.883-35.84,11.357c-3.022,4.08-8.925,12.619-11.34,17.445c-9.931,19.851,7.821,42.105,28.802,47.179
						C551.626,331.548,572.749,318.653,577.824,297.671z"/>
					<path style="fill:#FF9982;" d="M561.282,299.999c-1.673,6.918,2.578,13.882,9.496,15.555s13.882-2.579,15.555-9.496
						c1.673-6.918-2.578-13.882-9.496-15.555C569.919,288.829,562.955,293.081,561.282,299.999z"/>
					<path style="fill:#522A68;" d="M495.22,369.385c0,0-6.124,20.747-8.036,33.225c-1.912,12.478-2.235,13.161-2.235,13.161
						s-11.546-1.27-12.197,2.074c-0.651,3.344,27.593,9.414,27.593,9.414l13.998-32.392l5.076,1.228l-5.205,34.588
						c0,0,29.46,8.882,30.25,4.963c0.79-3.92-10.026-8.21-10.026-8.21s3.375-7.87,5.315-13.482
						c6.557-18.967,6.678-32.183,6.678-32.183L495.22,369.385z"/>
					<g>
						<path style="fill:#77B384;" d="M497.148,333.313c0,0,20.542-13.74,26.117-4.103c5.575,9.637-13.866,22.712-13.866,22.712
							s-6.876-1.628-9.496-7.133C497.285,339.284,497.148,333.313,497.148,333.313z"/>
						<path style="fill:#77B384;" d="M560.285,348.583c0,0-11.993-21.609-21.355-15.585c-9.363,6.024,1.954,26.539,1.954,26.539
							s6.86,1.694,11.706-2.006C557.435,353.832,560.285,348.583,560.285,348.583z"/>
						<path style="fill:#77B384;" d="M530.982,326.728c-5.809-1.303-14.985-1.637-25.569,16.196
							c-10.652,17.948-15.523,28.961-15.523,28.961s8.696,8.615,28.37,12.524c19.674,3.909,30.214,1.645,30.214,1.645
							s2.638-24.275,0.525-34.978C546.884,340.372,547.105,330.345,530.982,326.728z"/>
					</g>
					<path style="fill:#FF9982;" d="M523.602,316.339c0,0-1.829,6.641-2.588,10.698c-1.397,7.476,19.46,13.526,21.101,5.103
						c1-5.132,3.105-12.838,3.105-12.838L523.602,316.339z"/>
					<path style="fill:#522A68;" d="M588.06,280.092c0,0-12.065,20.221-15.159,15.896c-3.095-4.325,4.104-20.397,4.104-20.397
						s-18.339,6.526-24.23,2.818c-5.891-3.708-0.064-8.693-0.064-8.693s-21.808,4.407-28.286-0.174
						c-6.478-4.581,4.15-9.746,4.15-9.746s-16.667,7.805-19.715,1.14c-3.048-6.665,9.249-16.25,19.414-17.108
						c10.164-0.859,37.353,4.347,48.777,13.961C588.475,267.404,588.06,280.092,588.06,280.092z"/>
					<path style="fill:#222221;" d="M582.178,296.293c-0.653-0.562-1.573,0.378-0.933,0.97c1.765,1.633,2.241,3.724,1.959,5.849
						c-0.732-1.584-1.958-2.987-3.449-3.811c-0.181-0.1-0.337,0.136-0.207,0.28c1.493,1.655,2.49,3.35,3.107,5.492
						c0.012,0.044,0.037,0.072,0.056,0.108c-0.745,2.158-2.12,4.209-3.57,5.695c-0.001,0-0.002,0-0.003-0.001
						c-0.003,0,0.001,0.004-0.001,0.005c-0.181,0.185-0.363,0.368-0.545,0.535c-0.136,0.124,0.044,0.313,0.19,0.237
						C583.775,309.085,587.108,300.536,582.178,296.293z"/>
					<g>
						<g>
							<path style="fill:none;stroke:#222221;stroke-width:0;stroke-linecap:round;stroke-linejoin:round;" d="M579.732,305.269
								c0.023,0.006,0.031-0.029,0.008-0.034"/>
							<path style="fill:#222221;" d="M536.649,294.3c0.009-1.847-0.048-3.689-0.214-5.533c-0.035-0.388-0.674-0.504-0.742-0.08
								c-0.209,1.306-0.348,2.619-0.463,3.935c-1.499-1.554-3.494-3.515-5.281-1.603c-1.891,2.023,0.467,6.91,2.639,7.998
								c0.299,0.15,0.764-0.12,0.607-0.471c-0.699-1.569-1.92-2.749-2.323-4.495c-0.526-1.182-0.185-3.202,1.564-2.127
								c0.55,0.362,1.006,0.815,1.37,1.359c0.485,0.582,0.923,1.094,1.525,1.573C535.863,295.28,536.646,294.985,536.649,294.3z"/>
							<path style="fill:#222221;" d="M538.068,301.065c-2.191,1.843-3.982,4.747-7.383,4.348c-3.521-0.414-5.156-3.908-6.429-6.696
								c-0.11-0.241-0.498-0.149-0.414,0.117c1.028,3.245,2.671,7.279,6.658,7.763c3.322,0.403,6.992-2.209,8.325-4.988
								C539.053,301.133,538.469,300.727,538.068,301.065z"/>
							<path style="fill:#FC6232;" d="M560.57,308.352c0.769-3.178-1.283-6.401-4.581-7.199s-6.596,1.132-7.365,4.309
								c-0.769,3.178,1.283,6.401,4.582,7.199C556.504,313.459,559.801,311.53,560.57,308.352z"/>
							<path style="fill:#FC6232;" d="M504.401,294.767c0.769-3.178,4.066-5.107,7.365-4.309c3.299,0.798,5.35,4.021,4.582,7.199
								c-0.769,3.178-4.066,5.107-7.365,4.31C505.683,301.168,503.632,297.945,504.401,294.767z"/>
						</g>
						<g>
							<path style="fill:#222221;" d="M524.815,283.754c-0.338-0.681-1.081-1.087-1.836-0.992c-0.62,0.079-1.177,0.449-1.483,0.973
								c-0.288,0.406-0.349,0.992-0.191,1.473c0.228,0.698,0.841,1.264,1.559,1.427c0.755,0.172,1.559-0.18,1.939-0.856
								C525.152,285.155,525.128,284.385,524.815,283.754z"/>
							<path style="fill:#222221;" d="M548.609,289.649c-0.042-0.848-0.644-1.553-1.473-1.736c-0.609-0.134-1.262,0.071-1.672,0.528
								c-0.203,0.152-0.382,0.332-0.504,0.561c-0.384,0.724-0.218,1.595,0.372,2.155c0.531,0.505,1.358,0.704,2.048,0.435
								C548.158,291.29,548.651,290.478,548.609,289.649z"/>
						</g>
						<g>
							<path style="fill:#222221;" d="M521.906,276.61c-0.691-0.156-1.45,0.033-2.051,0.387c-0.636,0.375-0.92,0.895-1.067,1.596
								c-0.027,0.126,0.143,0.241,0.235,0.129c0.305-0.373,0.832-0.69,1.269-0.892c0.496-0.23,0.975-0.213,1.505-0.159
								C522.406,277.731,522.485,276.741,521.906,276.61z"/>
							<path style="fill:#222221;" d="M549.888,282.63c-0.679-0.231-0.947,0.866-0.263,1.088c0.848,0.275,1.27,1.064,1.645,1.805
								c0.118,0.233,0.458,0.139,0.521-0.082C552.151,284.159,551.017,283.014,549.888,282.63z"/>
						</g>
						<g>
							<g>
								<path style="fill:#222221;" d="M518.818,291.224c-0.503-0.122-0.693,0.66-0.189,0.782
									C519.132,292.128,519.322,291.346,518.818,291.224z"/>
								<path style="fill:#222221;" d="M517.96,293.271c-0.023-0.091-0.092-0.156-0.166-0.206c-0.058-0.04-0.117-0.079-0.175-0.119
									c-0.119-0.081-0.314-0.069-0.43,0.009c-0.095,0.063-0.166,0.152-0.193,0.265c-0.026,0.107-0.006,0.23,0.051,0.323
									c0.074,0.121,0.231,0.223,0.378,0.205c0.07-0.009,0.14-0.017,0.21-0.025c0.078-0.01,0.144-0.029,0.207-0.079
									c0.058-0.047,0.109-0.113,0.124-0.189C517.977,293.393,517.976,293.332,517.96,293.271z"/>
								<path style="fill:#222221;" d="M520.797,293.719c-0.01-0.052-0.016-0.105-0.029-0.156c-0.021-0.085-0.078-0.153-0.128-0.222
									c-0.068-0.093-0.149-0.165-0.264-0.193c-0.102-0.025-0.235-0.009-0.324,0.051c-0.092,0.062-0.171,0.153-0.193,0.265
									c-0.004,0.038-0.008,0.076-0.012,0.114c0.003,0.075,0.024,0.145,0.063,0.21c0.039,0.076,0.072,0.159,0.139,0.215
									c0.041,0.034,0.084,0.065,0.126,0.097c0.026,0.019,0.052,0.039,0.078,0.058c0.045,0.027,0.093,0.041,0.144,0.042
									c0.08,0.008,0.167-0.004,0.235-0.05c0.054-0.036,0.099-0.083,0.133-0.139C520.821,293.92,520.814,293.817,520.797,293.719z"
									/>
							</g>
							<g>
								<path style="fill:#222221;" d="M547.863,296.086c-0.067-0.1-0.161-0.176-0.281-0.205c-0.274-0.066-0.585,0.159-0.559,0.455
									c0.006,0.07,0.012,0.14,0.018,0.21c0.014,0.163,0.122,0.328,0.293,0.361c0.173,0.034,0.333-0.038,0.427-0.187
									c0.037-0.059,0.075-0.119,0.112-0.179C547.955,296.411,547.948,296.213,547.863,296.086z"/>
								<path style="fill:#222221;" d="M546.72,298.408c-0.102-0.102-0.246-0.137-0.379-0.183c-0.116-0.039-0.281-0.002-0.381,0.06
									c-0.106,0.065-0.203,0.189-0.227,0.312c-0.025,0.128-0.016,0.27,0.06,0.382c0.071,0.105,0.181,0.208,0.312,0.228
									c0.139,0.021,0.283,0.055,0.421,0.011c0.163-0.052,0.289-0.181,0.33-0.349C546.895,298.701,546.841,298.528,546.72,298.408z
									"/>
								<path style="fill:#222221;" d="M549.371,298.711c-0.659-0.159-0.907,0.864-0.248,1.024
									C549.782,299.894,550.03,298.87,549.371,298.711z"/>
							</g>
						</g>
					</g>
					<path style="fill:#77B384;" d="M511.807,356.911l24.686,5.971c0,0-4.494,14.57-16.105,11.865
						C508.778,372.042,511.807,356.911,511.807,356.911z"/>
					<path style="fill:#222221;" d="M584.974,285.794c-1.326,1.596-2.482,3.321-3.912,4.829c-0.959,1.01-2.446,2.582-3.632,3.174
						c-2.02,1.007-4.993,0.263-5.369-2.464c-0.752-5.444,2.958-10.618,4.258-15.612c0.051-0.195-0.141-0.319-0.305-0.272
						c0.043-0.293-0.115-0.604-0.482-0.544c-4.372,0.714-8.636,1.936-13.027,2.604c-2.049,0.312-4.194,0.719-6.27,0.748
						c-2.751,0.481-4.443-0.886-5.077-4.102c0.487-1.192,1.036-2.354,1.646-3.487c0.01-0.019,0.01-0.038,0.017-0.058
						c0.605-0.372,0.206-1.463-0.601-1.264c-5.958,1.47-11.955,2.051-18.071,1.44c-2.265-0.226-6.076-0.272-8.088-1.471
						c-1.811-1.079-2.901-3.432-1.867-5.294c0.458-0.825,1.292-1.515,2.165-2.109c0.702-0.317,1.321-0.643,1.822-0.966
						c0.389-0.251,0.26-0.815-0.098-0.952c-0.1-0.062-0.224-0.087-0.367-0.039c-0.214,0.073-0.434,0.161-0.658,0.259
						c-4.506,1.481-9.117,2.898-13.928,1.891c-2.764-0.578-5.716-1.726-2.516-6.713c0.611-0.951,1.855-1.652,2.79-2.189
						c1.977-1.138,3.994-1.404,6.151-1.872c0.053,0.027,0.109,0.056,0.158,0.082c0.395,0.203,0.79-0.311,0.465-0.63
						c-1.157-1.139-2.514-2.072-3.811-3.048c-1.483-1.117-5.048-3.124-1.937-5.509c1.646-1.262,4.725-0.029,6.311,0.771
						c1.634,0.824,3.015,1.996,4.435,3.13c0.229,0.183,0.574-0.056,0.413-0.331c-2.055-3.519-8.929-7.86-12.646-4.275
						c-3.514,3.389,1.603,7.01,5.02,8.952c-5.055,0.198-12.865,4.827-10.263,10.12c2.254,4.587,9.759,4.172,15.361,2.525
						c-2.011,2.223-2.824,5.045,0.43,6.944c3.301,1.927,8.686,2.169,12.447,2.398c5.24,0.319,10.403-0.236,15.483-1.459
						c-2.238,3.114-2.448,7.161,2.066,8.446c3.255,0.926,7.483-0.274,10.706-0.807c3.8-0.629,7.71-1.319,11.319-2.692
						c-2.79,3.034-4.055,7.866-4.66,11.803c-0.378,2.458-0.997,6.009,1.116,7.881c4.674,4.141,12.204-5.81,13.612-9.388
						C585.723,285.882,585.278,285.43,584.974,285.794z"/>
					<path style="fill:#222221;" d="M540.933,327.012c-6.133,0.246-11.47,0.225-17.079-2.586c-0.12-0.06-0.26,0.105-0.147,0.198
						c4.656,3.855,11.557,3.762,17.26,3.477C541.666,328.066,541.636,326.983,540.933,327.012z"/>
					<path style="fill:#222221;" d="M578.524,263.344c-2.847,2.358-5.263,4.616-8.916,5.682c-2.328,0.679-5.059,1.047-7.355-0.041
						c-3.033-1.437-4.008-4.871-1.936-7.551c0.157-0.056,0.315-0.111,0.462-0.174c0.327-0.142,0.28-0.618-0.103-0.63
						c-0.012,0-0.025,0-0.037,0c-0.095-0.131-0.274-0.202-0.454-0.101c-0.056,0.031-0.097,0.069-0.151,0.101
						c-2.915,0.065-6.406,0.984-8.31-1.926c-1.211-1.849-0.181-4.184,1.598-5.223c1.469-0.858,3.33-0.875,4.958-0.631
						c0.322,0.048,0.427-0.386,0.119-0.49c-3.604-1.218-9.104,0.504-8.315,5.271c0.635,3.841,5.027,4.832,8.516,4.252
						c-2.264,2.978,0.505,7.573,4.091,8.73c5.677,1.831,13.576-1.761,16.564-6.728C579.54,263.405,578.897,263.035,578.524,263.344z
						"/>
					<path style="fill:#222221;" d="M536.386,360.968c-4.553-0.304-9.025-0.445-13.517-1.403c-3.894-0.831-7.574-2.372-11.446-3.22
						c-0.109-0.024-0.155,0.117-0.069,0.176c6.709,4.604,17.06,6.212,25.066,5.544C537.133,362.005,537.084,361.014,536.386,360.968
						z"/>
					<path style="fill:#222221;" d="M536.41,362.486c-2.796,3.499-4.688,7.804-8.73,10.162c-5.886,3.433-11.208,0.629-14.634-4.593
						c-0.076-0.116-0.29-0.036-0.232,0.103c1.876,4.526,6.044,8.1,11.204,7.316c5.948-0.903,11.14-7.051,13.214-12.381
						C537.421,362.608,536.813,361.981,536.41,362.486z"/>
					<path style="fill:#222221;" d="M501.703,383.511c-1.182,0.989-2.054,2.132-3.434,2.907c-1.393,0.783-2.767,0.932-4.279,1.317
						c-0.567,0.145-0.598,1.141,0.033,1.207c2.953,0.31,7.378-2.163,8.151-5.173C502.247,383.48,501.901,383.345,501.703,383.511z"
						/>
					<path style="fill:#222221;" d="M541.073,397.203c-0.479-0.438-1.067-0.66-1.604-1.02c-0.745-0.499-1.413-1.127-1.953-1.844
						c-1.005-1.331-1.561-2.92-1.724-4.571c-0.038-0.391-0.585-0.371-0.607,0.019c-0.103,1.891,0.457,3.713,1.562,5.253
						c0.9,1.254,2.397,2.84,4.031,2.931C541.167,397.992,541.344,397.449,541.073,397.203z"/>
					<path style="fill:#222221;" d="M498.672,425.862c-2.834-4.065-7.919-8.557-12.758-9.986c-0.074-0.022-0.137,0.086-0.074,0.136
						c2.071,1.671,4.412,2.94,6.429,4.71c2.035,1.786,3.708,3.848,5.492,5.871C498.202,427.093,499.054,426.41,498.672,425.862z"/>
					<path style="fill:#222221;" d="M533.674,426.817c-6.396-0.928-12.566,0.159-18.395,2.917c-0.92,0.435-0.088,1.8,0.827,1.354
						c5.502-2.676,11.395-3.768,17.496-3.572C533.995,427.529,534.072,426.875,533.674,426.817z"/>
				</g>
				<g>
					<g>
						<g>
							<path style="fill:#FF9982;" d="M305.727,309.07c0,0-3.597-1.867-8.397,4.647c-4.8,6.514-16.321,37.397-16.321,37.397
								s-10.631,9.096,3.487,13.938c9.281,3.183,8-11.938,8-11.938s13.643-22.096,16.527-26.963
								C311.907,321.284,313.636,311.975,305.727,309.07z"/>
						</g>
						<path style="fill:#222221;" d="M287.349,359.205c-0.279-0.17-0.597-0.287-0.989-0.281c1.283-1.896-2.855-3.567-4.063-3.953
							c-0.241-0.077-0.372,0.289-0.157,0.406c0.592,0.322,4.188,2.408,3.105,3.156c-0.492,0.34-1.464,0.061-1.972-0.086
							c-0.761-0.221-1.416-0.599-2.061-1.051c-0.463-0.324-1.019,0.38-0.705,0.78c-1.854,0.736-3.707,4.275-1.702,5.673
							c0.679,0.474,1.439,0.302,2.06-0.118c0.46,1.262,2.179,1.665,3.387,0.932c0.121-0.074,0.218-0.167,0.325-0.252
							c0.359,0.648,1.168,0.841,1.864,0.662c0.397-0.102,0.725-0.315,1-0.589c-0.007,0.115,0.064,0.236,0.217,0.246
							c1.969,0.124,3.543-1.551,3.235-3.524C290.662,359.732,288.71,357.895,287.349,359.205z M279.181,362.709
							c-0.805-1.399,0.934-3.189,1.712-4.225c0.322,0.213,0.718,0.436,1.152,0.637c-0.134,0.806-0.228,1.584-0.562,2.346
							C281.181,362.159,279.934,364.018,279.181,362.709z M281.326,363.351c0.129-0.128,0.25-0.262,0.353-0.402
							c0.714-0.983,1.118-2.361,0.931-3.587c0.742,0.282,1.539,0.456,2.241,0.389c0.21,1.197,0.391,2.419-0.356,3.493
							C283.713,364.369,282.028,364.531,281.326,363.351z M284.863,364.175c1.119-1.133,1.243-2.967,0.846-4.496
							c0.066,0.062,0.155,0.099,0.266,0.089C288.904,359.5,287.817,365.737,284.863,364.175z M290.174,362.047
							c-0.131,1.284-1.286,2.16-2.525,2.229c-0.012,0-0.015,0.01-0.026,0.012c0.29-0.35,0.504-0.772,0.651-1.201
							c0.351-1.025,0.281-2.432-0.319-3.32C289.148,358.886,290.278,361.036,290.174,362.047z"/>
					</g>
					<g>
						<g>
							<g>
								<path style="fill:#FF9982;" d="M342.129,305.297c0,0,3.138-2.565,9.171,2.826c6.034,5.391,23.643,33.255,23.643,33.255
									s12.27,6.722-0.554,14.356c-8.431,5.019-10.278-10.043-10.278-10.043s-17.884-18.829-21.705-23.001
									C338.585,318.519,334.983,309.763,342.129,305.297z"/>
							</g>
						</g>
						<path style="fill:#222221;" d="M367.34,353.283c0.103,1.994,1.987,3.311,3.889,2.786c0.147-0.041,0.191-0.174,0.161-0.285
							c0.325,0.211,0.691,0.353,1.1,0.372c0.718,0.033,1.47-0.322,1.689-1.03c0.122,0.062,0.236,0.133,0.369,0.18
							c1.333,0.471,2.933-0.277,3.124-1.606c0.695,0.283,1.473,0.296,2.04-0.307c1.675-1.779-0.864-4.863-2.829-5.203
							c0.226-0.457-0.463-1.031-0.85-0.619c-0.539,0.574-1.102,1.079-1.802,1.451c-0.468,0.248-1.362,0.721-1.913,0.489
							c-1.213-0.51,1.879-3.289,2.392-3.726c0.186-0.159-0.017-0.49-0.237-0.365c-1.103,0.626-4.81,3.109-3.166,4.702
							c-0.385,0.074-0.672,0.254-0.91,0.478C368.797,349.595,367.263,351.793,367.34,353.283z M376.603,351.61
							c-0.482-0.678-0.735-1.42-1.031-2.181c0.384-0.286,0.726-0.586,0.997-0.86c0.973,0.854,3.043,2.249,2.542,3.784
							C378.642,353.788,377.04,352.224,376.603,351.61z M374.019,353.966c-0.951-0.898-1.025-2.13-1.064-3.346
							c0.701-0.079,1.445-0.412,2.114-0.841c0.069,1.239,0.747,2.505,1.647,3.32c0.129,0.117,0.275,0.222,0.427,0.321
							C376.698,354.72,375.015,354.906,374.019,353.966z M371.858,350.866c0.11-0.013,0.19-0.067,0.242-0.142
							c-0.075,1.578,0.422,3.348,1.75,4.227C371.279,357.087,368.936,351.205,371.858,350.866z M369.919,351.272
							c-0.405,0.992-0.185,2.383,0.369,3.315c0.232,0.389,0.528,0.758,0.884,1.042c-0.011,0-0.017-0.008-0.028-0.006
							c-1.227,0.186-2.538-0.434-2.929-1.664C367.907,352.99,368.571,350.655,369.919,351.272z"/>
					</g>
					<path style="fill:#522A68;" d="M314.073,209.486c-22.678,1.193-37.672,12.472-42.246,32.455
						c-4.574,19.984-2.156,70.245,54.311,62.985c40.936-5.263,42.944-59.408,32.372-76.266
						C348.963,213.434,338.581,208.197,314.073,209.486z"/>
					<path style="fill:#FF9982;" d="M355.157,255.706c-2.225-21.472-21.436-37.074-42.907-34.849
						c-16.104,1.669-25.532,8.111-29.987,22.676c-1.485,4.855-4.198,14.875-4.861,20.231c-2.729,22.028,21.436,37.074,42.907,34.849
						C341.78,296.388,357.382,277.178,355.157,255.706z"/>
					<path style="fill:#FF9982;" d="M342.19,261.059c0.734,7.079,7.067,12.223,14.146,11.49c7.079-0.734,12.223-7.067,11.49-14.146
						c-0.734-7.079-7.067-12.223-14.146-11.49C346.601,247.646,341.457,253.979,342.19,261.059z"/>
					<path style="fill:#FF9982;" d="M302.823,348.72c0,0,1.158,21.6,3.524,34.001c2.366,12.4,2.29,13.152,2.29,13.152
						s-11.307,2.66-10.803,6.029c0.504,3.369,29.153-0.344,29.153-0.344l2.374-35.207l5.195-0.538l6.648,34.34
						c0,0,30.735-1.469,30.17-5.427c-0.565-3.958-12.192-4.39-12.192-4.39s0.552-8.546,0.507-14.483
						c-0.155-20.068-4.456-32.565-4.456-32.565L302.823,348.72z"/>
					<path style="fill:#FFFCF5;" d="M326.871,395.025c-0.725,0.353-1.434,0.741-2.167,1.078c-0.949,0.436-1.993,0.695-2.996,0.975
						c-1.256,0.351-2.527,0.654-3.814,0.864c-2.267,0.371-4.5,0.342-6.783,0.191c-1.839-0.122-3.864-0.333-5.403-1.441
						c-3.313,1.039-8.209,2.966-7.874,5.209c0.504,3.369,29.153-0.344,29.153-0.344l0.461-6.839
						C327.224,394.837,327.019,394.953,326.871,395.025z"/>
					<path style="fill:#FFFCF5;" d="M362.799,390.67c-1.081,1.258-2.318,2.389-3.844,3.072c-2,0.895-4.108,1.478-6.281,1.756
						c-4.264,0.546-8.584-0.11-12.651-1.437l1.179,6.092c0,0,30.735-1.468,30.17-5.427
						C371.017,392.23,366.264,391.137,362.799,390.67z"/>
					<g>
						<path style="fill:#FC6232;" d="M292.592,314.075c0,0,14.772-19.813,23.246-12.592c8.474,7.221-5.483,26.04-5.483,26.04
							s-7.025,0.762-11.333-3.552C294.715,319.657,292.592,314.075,292.592,314.075z"/>
						<path style="fill:#FC6232;" d="M357.203,307.379c0,0-18.522-16.362-25.335-7.557c-6.813,8.806,10.706,24.362,10.706,24.362
							s7.032-0.695,10.364-5.801C356.27,313.278,357.203,307.379,357.203,307.379z"/>
						<path style="fill:#FC6232;" d="M322.282,296.567c-5.91,0.712-14.671,3.463-18.69,23.806
							c-4.045,20.475-6.616,56.84-6.616,56.84s15.213,4.786,35.062,1.899c19.85-2.887,33.166-8.97,33.166-8.97
							s-12.24-47.262-17.807-56.644C341.829,304.116,338.688,294.591,322.282,296.567z"/>
					</g>
					<path style="fill:#FF9982;" d="M311.856,289.24c0,0,0.494,6.87,1.135,10.948c1.18,7.513,22.86,6.249,21.594-2.238
						c-0.772-5.171-1.361-13.138-1.361-13.138L311.856,289.24z"/>
					<path style="fill:#522A68;" d="M335.675,228.312c0,0-1.358,15.078-3.111,16.479c-1.754,1.401-13.782,4.477-31.434,5.087
						c-7.863,0.272-21.535-3.211-21.535-3.211s-2.364-27.845,33.602-32.487c35.966-4.642,44.587,24.741,43.367,25.813
						c-1.22,1.072-2.158,1.924-7.036,2.125C344.649,242.32,343.135,229.368,335.675,228.312z"/>
					<path style="fill:none;stroke:#222221;stroke-width:0;stroke-linecap:round;stroke-linejoin:round;" d="M360.137,263.554
						c0.023-0.003,0.02-0.038-0.004-0.035"/>
					<path style="fill:#222221;" d="M315.864,267.606c-0.608-1.744-1.277-3.461-2.05-5.143c-0.163-0.354-0.804-0.25-0.726,0.172
						c0.239,1.301,0.547,2.585,0.878,3.864c-1.932-0.964-4.468-2.146-5.513,0.253c-1.107,2.539,2.748,6.357,5.159,6.657
						c0.331,0.041,0.68-0.368,0.415-0.647c-1.183-1.245-2.728-1.95-3.691-3.461c-0.89-0.938-1.244-2.956,0.764-2.527
						c0.639,0.158,1.221,0.432,1.745,0.824c0.651,0.386,1.235,0.723,1.963,0.973C315.451,268.792,316.09,268.253,315.864,267.606z"
						/>
					<g>
						<path style="fill:#FC6232;" d="M343.105,272.861c-0.337-3.252-3.347-5.605-6.723-5.255c-3.376,0.35-5.839,3.27-5.502,6.522
							c0.337,3.252,3.347,5.605,6.723,5.255C340.978,279.033,343.442,276.113,343.105,272.861z"/>
						<path style="fill:#FC6232;" d="M285.624,278.818c-0.337-3.252,2.126-6.172,5.502-6.522c3.376-0.35,6.386,2.003,6.723,5.255
							c0.337,3.252-2.127,6.172-5.503,6.522C288.971,284.423,285.961,282.07,285.624,278.818z"/>
					</g>
					<path style="fill:#222221;" d="M358.228,252.281c-0.803-0.312-1.357,0.882-0.556,1.226c2.209,0.95,3.357,2.761,3.801,4.858
						c-1.219-1.248-2.843-2.162-4.524-2.44c-0.204-0.034-0.272,0.241-0.102,0.333c1.96,1.062,3.466,2.326,4.763,4.139
						c0.026,0.037,0.059,0.056,0.089,0.084c0.019,2.283-0.592,4.676-1.463,6.561c-0.001,0-0.002,0-0.003,0
						c-0.003,0.001,0.002,0.003,0,0.005c-0.109,0.235-0.219,0.468-0.335,0.686c-0.086,0.162,0.146,0.281,0.259,0.16
						C364.005,263.805,364.292,254.634,358.228,252.281z"/>
					<polygon style="fill:#522A68;" points="286.076,223.57 274.596,199.234 272.801,212.183 259.027,209.496 266.927,218.687 
						256.825,220.003 284.704,229.163 					"/>
					<polygon style="fill:#522A68;" points="338.423,218.145 344.669,191.972 349.081,204.277 362.011,198.823 356.164,209.438 
						366.321,208.655 340.913,223.337 					"/>
					<g>
						<path style="fill:#222221;" d="M314.757,275.334c-3.159,0.65-5.35-3.276-9.572-1.706c-4.221,1.57-0.989,12.613,9.638,11.407
							c10.627-1.206,13.699-8.831,10.226-12.125C321.576,269.617,319.867,274.282,314.757,275.334z"/>
						<path style="fill:#DD4C33;" d="M321.871,280.548c-3.772-3.046-13.22-2.638-13.069,3.696c1.637,0.714,3.643,1.061,6.021,0.791
							c3.714-0.421,6.485-1.635,8.397-3.165C322.81,281.396,322.367,280.949,321.871,280.548z"/>
					</g>
					<g>
						<path style="fill:#222221;" d="M300.464,261.375c-0.887,0.092-1.629,0.579-2.098,1.26c-0.229-0.159-0.457-0.319-0.685-0.479
							c-0.53-0.372-0.981-0.673-1.611-0.834c-0.277-0.07-0.523,0.259-0.413,0.509c0.409,0.932,1.319,1.637,2.198,2.214
							c-0.014,0.177-0.017,0.357,0.001,0.54c0,0.003,0.001,0.005,0.002,0.008c-0.17-0.027-0.34-0.056-0.504-0.099
							c-0.649-0.169-1.274-0.483-1.942-0.563c-0.302-0.036-0.523,0.297-0.341,0.554c0.424,0.601,1.128,0.947,1.797,1.209
							c0.5,0.196,1.084,0.447,1.642,0.447c0.602,0.73,1.545,1.155,2.557,1.05c1.606-0.166,2.773-1.604,2.607-3.21
							S302.07,261.208,300.464,261.375z"/>
						<path style="fill:#222221;" d="M296.643,256.173c-0.667,0.108-1.236,0.396-1.704,0.886c-0.364,0.38-0.814,1.145-0.538,1.678
							c0.121,0.234,0.395,0.353,0.63,0.183c0.319-0.231,0.458-0.66,0.748-0.937c0.277-0.264,0.628-0.417,1.005-0.457
							C297.657,257.432,297.504,256.034,296.643,256.173z"/>
						<path style="fill:#222221;" d="M326.802,258.645c0.887-0.092,1.713,0.232,2.312,0.803c0.192-0.203,0.382-0.406,0.572-0.61
							c0.443-0.473,0.822-0.86,1.406-1.146c0.256-0.126,0.564,0.146,0.508,0.413c-0.209,0.997-0.955,1.872-1.697,2.618
							c0.05,0.17,0.09,0.346,0.109,0.529c0,0.003,0,0.005,0,0.008c0.161-0.061,0.321-0.124,0.473-0.2
							c0.601-0.298,1.147-0.734,1.785-0.949c0.288-0.097,0.573,0.183,0.447,0.472c-0.292,0.675-0.91,1.158-1.51,1.552
							c-0.449,0.294-0.97,0.66-1.515,0.774c-0.44,0.838-1.276,1.448-2.287,1.553c-1.606,0.167-3.043-1.001-3.21-2.607
							S325.196,258.811,326.802,258.645z"/>
						<path style="fill:#222221;" d="M329.476,252.77c0.675-0.031,1.29,0.134,1.849,0.518c0.434,0.298,1.031,0.954,0.871,1.532
							c-0.071,0.254-0.314,0.426-0.579,0.308c-0.359-0.161-0.584-0.552-0.924-0.764c-0.325-0.202-0.7-0.279-1.077-0.242
							C328.742,254.21,328.604,252.811,329.476,252.77z"/>
					</g>
					<path style="fill:#222221;" d="M333.239,294.136c-5.995,2.599-12.033,3.694-18.529,3.943c-0.183,0.007-0.196,0.312-0.01,0.326
						c6.476,0.487,12.94-0.854,18.884-3.383C334.147,294.783,333.802,293.892,333.239,294.136z"/>
					<path style="fill:#222221;" d="M335.255,220.332c-0.053-0.165-0.301-0.094-0.289,0.07c0.333,4.402,0.395,8.645-0.566,12.973
						c-0.724,3.262-1.972,6.418-2.564,9.702c-0.037,0.011-0.071,0.007-0.109,0.024c-6.119,2.705-12.435,4.474-18.826,5.397
						c0.466-2.12,0.562-4.325,1.077-6.45c0.635-2.618,1.601-5.13,2.737-7.567c0.069-0.148-0.148-0.239-0.227-0.103
						c-2.309,4.012-4.89,9.497-4.798,14.29c-3.896,0.495-7.818,0.667-11.739,0.533c0.001-0.01,0.006-0.016,0.007-0.027
						c0.496-8.712,1.475-15.83,5.138-23.885c0.077-0.168-0.178-0.341-0.284-0.176c-4.313,6.771-7.132,15.95-6.065,24.023
						c0,0.004,0.003,0.007,0.004,0.011c-7.858-0.394-15.702-2.021-23.32-4.821c-0.079-0.029-0.132,0.083-0.054,0.12
						c17.896,8.554,38.948,8.227,56.983,0.277c0.223-0.098,0.356-0.258,0.434-0.435c0.06-0.056,0.112-0.127,0.151-0.217
						C335.988,236.81,337.722,227.968,335.255,220.332z"/>
					<path style="fill:#222221;" d="M288.818,233.333c-2.206,3.893-3.695,9.016-2.874,13.5c0.069,0.379,0.703,0.467,0.731,0.023
						c0.311-4.819,0.563-8.853,2.309-13.447C289.027,233.297,288.876,233.231,288.818,233.333z"/>
					<path style="fill:#222221;" d="M285.195,228.152c-5.14,3.835-8.629,9.231-10.491,15.335c-0.218,0.715,1.033,1.102,1.263,0.385
						c1.896-5.911,5.197-10.978,9.558-15.372C285.72,228.302,285.411,227.991,285.195,228.152z"/>
					<path style="fill:#222221;" d="M291.817,215.441c-4.642,1.607-9.247,6.058-11.606,10.295c-0.054,0.097,0.093,0.177,0.161,0.099
						c1.781-2.04,3.494-4.104,5.622-5.801c1.938-1.545,4.095-2.65,6.131-4.034C292.433,215.79,292.153,215.324,291.817,215.441z"/>
					<path style="fill:#222221;" d="M357.187,226.271c-3.252-5.017-7.859-9.571-13.345-12.165c0.151-0.243,0.222-0.413,0.297-0.761
						c0.02-0.093-0.006-0.176-0.049-0.25c0.751-2.988,0.885-6.103,0.532-9.158c-0.022-0.186-0.284-0.15-0.284,0.029
						c-0.002,3.35-0.606,6.457-1.682,9.616c-0.5-0.206-1.004-0.4-1.517-0.572c-0.298-0.1-0.48,0.291-0.202,0.446
						c6.211,3.463,11.407,7.449,15.288,13.518C356.638,227.621,357.604,226.915,357.187,226.271z"/>
					<path style="fill:#222221;" d="M280.658,223.555c-1.029-1.774-3.25-3.127-4.912-4.273c-1.778-1.227-3.643-2.314-5.567-3.294
						c-0.222-0.113-0.449,0.24-0.233,0.376c1.887,1.186,3.693,2.481,5.399,3.917c1.536,1.293,2.92,3.092,4.661,4.076
						C280.523,224.649,280.895,223.963,280.658,223.555z"/>
					<path style="fill:#222221;" d="M281.245,220.19c-0.673-2.037-2.649-3.819-4.349-5.021c-0.231-0.163-0.486,0.149-0.277,0.341
						c0.827,0.761,1.553,1.595,2.198,2.514c0.592,0.844,0.979,1.799,1.55,2.648C280.698,221.164,281.418,220.717,281.245,220.19z"/>
					<path style="fill:#222221;" d="M352.256,204.658c-1.069,1.638-2.166,3.263-3.301,4.855c-1.003,1.407-2.524,2.813-3.124,4.436
						c-0.183,0.495,0.338,0.94,0.791,0.642c1.523-1,2.52-3.03,3.473-4.551c1.02-1.627,1.898-3.309,2.686-5.058
						C352.92,204.671,352.453,204.354,352.256,204.658z"/>
					<path style="fill:#222221;" d="M325.054,398.128c-9.004,1.692-17.483,2.919-26.689,2.823c-0.263-0.003-0.275,0.436-0.015,0.464
						c8.873,0.95,18.407,0.415,26.92-2.392C325.761,398.861,325.573,398.03,325.054,398.128z"/>
					<path style="fill:#222221;" d="M368.537,393.69c-8.123,2.262-15.948,3.605-24.404,3.039c-0.778-0.052-0.985,1.154-0.201,1.205
						c8.453,0.554,16.978-0.347,24.808-3.726C369.073,394.064,368.877,393.596,368.537,393.69z"/>
					<g>
						<path style="fill:#222221;" d="M336.561,320.388c-3.411-3.839-9.177-5.165-13.862-2.944
							c-4.319,2.048-6.862,6.525-6.428,11.273c0.451,4.938,4.095,9.91,9.095,10.885c0.006,0.002,0.009,0.005,0.015,0.007
							c4.933,1.092,10.074-0.93,12.63-5.362C340.563,329.822,339.943,324.194,336.561,320.388z M325.452,339.189
							c-4.589-1.16-9.104-6.788-8.636-12.479c0.508-6.183,6.408-10.491,12.454-9.595c6.052,0.896,10.559,6.711,9.65,12.811
							C337.965,336.328,331.692,340.767,325.452,339.189z"/>
						<path style="fill:#222221;" d="M322.491,310.551c-0.099-0.295-0.56-0.176-0.527,0.128c0.192,1.785,0.916,3.497,1.55,5.159
							c0.016,0.041,0.087,0.027,0.077-0.019C323.234,314.073,323.059,312.247,322.491,310.551z"/>
						<path style="fill:#222221;" d="M318.52,318.504c-0.456-0.38-0.883-0.79-1.336-1.172c-0.126-0.106-0.26-0.202-0.39-0.303
							c-0.066-0.051-0.13-0.105-0.196-0.156c-0.012-0.012-0.026-0.021-0.04-0.032c-0.015-0.023-0.033-0.045-0.059-0.061
							c-0.079-0.051-0.136-0.071-0.229-0.071c-0.087,0-0.182,0.075-0.214,0.154c-0.158,0.395,0.449,0.645,0.699,0.814
							c0.531,0.356,1.06,0.829,1.698,0.976C318.538,318.671,318.581,318.555,318.52,318.504z"/>
						<path style="fill:#222221;" d="M339.682,313.872c0.193-0.244-0.158-0.565-0.395-0.372c-1.391,1.135-2.43,2.676-3.477,4.114
							c-0.026,0.035,0.025,0.087,0.058,0.055C337.137,316.417,338.571,315.273,339.682,313.872z"/>
						<path style="fill:#222221;" d="M330.851,314.885c0.07-0.589,0.18-1.171,0.253-1.759c0.02-0.163,0.028-0.328,0.041-0.492
							c0.007-0.083,0.017-0.166,0.023-0.25c0.003-0.017,0.004-0.034,0.005-0.051c0.011-0.025,0.02-0.052,0.019-0.083
							c-0.001-0.094-0.015-0.152-0.065-0.231c-0.048-0.073-0.162-0.112-0.246-0.095c-0.417,0.083-0.296,0.728-0.3,1.029
							c-0.009,0.639-0.116,1.341,0.109,1.955C330.72,314.992,330.842,314.965,330.851,314.885z"/>
						<path style="fill:#222221;" d="M345.626,329.992c0.309,0.036,0.398-0.431,0.109-0.531c-1.697-0.588-3.554-0.663-5.327-0.799
							c-0.044-0.003-0.061,0.067-0.016,0.078C342.124,329.162,343.851,329.782,345.626,329.992z"/>
						<path style="fill:#222221;" d="M340.127,323.008c0.538-0.25,1.091-0.462,1.63-0.709c0.15-0.069,0.294-0.149,0.44-0.224
							c0.074-0.038,0.151-0.073,0.225-0.111c0.016-0.006,0.031-0.015,0.046-0.022c0.027-0.003,0.054-0.01,0.081-0.027
							c0.079-0.05,0.122-0.092,0.162-0.177c0.037-0.079,0.01-0.197-0.048-0.259c-0.29-0.311-0.775,0.13-1.034,0.285
							c-0.549,0.328-1.202,0.605-1.607,1.119C339.968,322.953,340.055,323.042,340.127,323.008z"/>
						<path style="fill:#222221;" d="M335.29,344.124c0.138,0.279,0.578,0.098,0.505-0.198c-0.434-1.743-1.384-3.34-2.238-4.9
							c-0.021-0.038-0.09-0.015-0.074,0.029C334.073,340.737,334.496,342.522,335.29,344.124z"/>
						<path style="fill:#222221;" d="M338.14,335.705c0.503,0.314,0.983,0.663,1.483,0.979c0.139,0.088,0.285,0.165,0.428,0.247
							c0.072,0.042,0.143,0.087,0.216,0.127c0.014,0.01,0.029,0.018,0.044,0.027c0.018,0.021,0.038,0.04,0.066,0.053
							c0.086,0.039,0.144,0.052,0.236,0.039c0.086-0.012,0.17-0.099,0.191-0.182c0.103-0.413-0.532-0.578-0.803-0.711
							c-0.574-0.281-1.163-0.677-1.815-0.736C338.1,335.541,338.072,335.662,338.14,335.705z"/>
						<path style="fill:#222221;" d="M315.588,340.59c-0.21,0.229,0.117,0.575,0.367,0.399c1.47-1.032,2.617-2.494,3.765-3.853
							c0.028-0.034-0.018-0.089-0.054-0.059C318.31,338.234,316.797,339.272,315.588,340.59z"/>
						<path style="fill:#222221;" d="M324.469,340.215c-0.112,0.583-0.264,1.155-0.379,1.737c-0.032,0.161-0.051,0.325-0.076,0.488
							c-0.013,0.082-0.029,0.165-0.041,0.247c-0.004,0.017-0.006,0.034-0.009,0.05c-0.013,0.024-0.023,0.05-0.025,0.081
							c-0.006,0.094,0.004,0.153,0.048,0.235c0.042,0.077,0.154,0.123,0.238,0.112c0.422-0.053,0.348-0.705,0.373-1.005
							c0.055-0.637,0.212-1.329,0.032-1.958C324.607,340.119,324.484,340.137,324.469,340.215z"/>
						<path style="fill:#222221;" d="M310.173,323.939c-0.307-0.051-0.418,0.412-0.134,0.525c1.667,0.668,3.518,0.831,5.283,1.051
							c0.043,0.006,0.064-0.064,0.02-0.077C313.632,324.934,311.937,324.232,310.173,323.939z"/>
						<path style="fill:#222221;" d="M315.334,331.176c-0.549,0.224-1.112,0.41-1.662,0.63c-0.152,0.061-0.301,0.135-0.45,0.202
							c-0.076,0.034-0.154,0.065-0.23,0.1c-0.016,0.005-0.031,0.013-0.047,0.02c-0.027,0.002-0.055,0.008-0.082,0.023
							c-0.082,0.046-0.126,0.086-0.17,0.169c-0.041,0.077-0.019,0.196,0.036,0.261c0.275,0.325,0.78-0.094,1.046-0.236
							c0.564-0.302,1.229-0.548,1.658-1.042C315.491,331.239,315.408,331.146,315.334,331.176z"/>
						<path style="fill:#222221;" d="M321.43,328.776c-0.542,0.339-0.271,0.884-0.084,1.035c0.417,0.335,1.108,0.001,1.075-0.542
							C322.391,328.779,321.793,328.51,321.43,328.776z"/>
						<path style="fill:#222221;" d="M330.318,324.437c-0.172-0.257-0.631-0.018-0.484,0.266c0.342,0.664,0.807,1.294,1.058,1.998
							c0.481,1.355-0.127,2.844-1.416,3.473c-2.161,1.056-3.936-0.536-5.389-1.973c-0.075-0.074-0.181,0.041-0.128,0.122
							c1.302,1.983,3.667,3.626,6.021,2.262C332.525,329.112,331.633,326.402,330.318,324.437z"/>
						<path style="fill:#222221;" d="M319.747,326.893c-0.549,0.107-0.736,0.798-0.582,1.271c0.033,0.102,0.2,0.062,0.184-0.045
							c-0.069-0.462,0.199-0.741,0.495-1.047C319.909,327.006,319.839,326.875,319.747,326.893z"/>
						<path style="fill:#222221;" d="M330.986,321.06c0.445-0.458,0.922-0.079,1.029,0.136c0.24,0.478-0.233,1.083-0.757,0.937
							C330.786,322.001,330.649,321.359,330.986,321.06z"/>
						<path style="fill:#222221;" d="M329.499,319.019c0.22-0.514,0.935-0.551,1.365-0.301c0.092,0.054,0.018,0.208-0.082,0.17
							c-0.437-0.164-0.766,0.039-1.128,0.263C329.575,319.2,329.462,319.105,329.499,319.019z"/>
					</g>
				</g>
			</g>
			<g>
				<path style="fill:#F4EBD9;" d="M62.022,168.095c-1.698-13.167-16.954-17.537-27.361-11.497
					c1.273-10.716-12.394-13.303-15.785-4.125c-3.316-5.68-9.128-9.895-15.832-6.073c-6.22,3.546-9.72,11.286-7.795,17.958
					c-5.967-3.656-13.619,5.418-10.41,12.731c2.972,6.774,10.206,8.944,16.968,9.836c10.872,1.434,22.1,1.383,33.019,0.607
					C47.118,186.656,64.154,184.625,62.022,168.095z"/>
				<path style="fill:#F4EBD9;" d="M399.422,24.248c-1.072-8.314-10.706-11.074-17.278-7.26c0.804-6.766-7.826-8.401-9.968-2.605
					c-2.094-3.587-5.764-6.248-9.997-3.835c-3.928,2.239-6.138,7.126-4.922,11.34c-3.768-2.309-8.6,3.421-6.574,8.039
					c1.877,4.277,6.445,5.648,10.715,6.211c6.865,0.906,13.956,0.874,20.85,0.383C390.011,35.969,400.768,34.686,399.422,24.248z"/>
				<path style="fill:#F4EBD9;" d="M764.99,115.923c-1.698-13.167-16.954-17.537-27.361-11.497
					c1.273-10.716-12.394-13.303-15.785-4.125c-3.317-5.68-9.129-9.895-15.832-6.073c-6.22,3.546-9.72,11.286-7.794,17.958
					c-5.967-3.656-13.619,5.418-10.411,12.731c2.972,6.774,10.206,8.944,16.968,9.836c10.872,1.434,22.1,1.383,33.019,0.607
					C750.086,134.484,767.122,132.452,764.99,115.923z"/>
				<path style="fill:#F4EBD9;" d="M73.033,370.266c-0.848-6.574-8.465-8.756-13.661-5.74c0.636-5.35-6.188-6.642-7.881-2.06
					c-1.656-2.836-4.558-4.94-7.905-3.032c-3.106,1.77-4.853,5.635-3.892,8.966c-2.979-1.826-6.8,2.705-5.198,6.356
					c1.484,3.382,5.096,4.466,8.472,4.911c5.428,0.716,11.034,0.691,16.486,0.303C65.592,379.534,74.097,378.52,73.033,370.266z"/>
				<path style="fill:#F4EBD9;" d="M550.552,15.531c-0.656-5.082-6.544-6.769-10.562-4.438c0.491-4.136-4.784-5.135-6.093-1.592
					c-1.28-2.193-3.524-3.819-6.111-2.344c-2.401,1.369-3.752,4.356-3.009,6.932c-2.303-1.411-5.257,2.091-4.018,4.914
					c1.147,2.615,3.939,3.452,6.55,3.797c4.197,0.554,8.531,0.534,12.745,0.234C544.8,22.696,551.375,21.912,550.552,15.531z"/>
				<path style="fill:#F4EBD9;" d="M711.772,253.162c-0.848-6.574-8.465-8.756-13.661-5.74c0.636-5.35-6.188-6.642-7.881-2.06
					c-1.656-2.836-4.558-4.94-7.905-3.032c-3.106,1.77-4.853,5.635-3.892,8.966c-2.979-1.826-6.8,2.705-5.198,6.356
					c1.484,3.382,5.096,4.466,8.472,4.911c5.428,0.716,11.035,0.691,16.486,0.303C704.331,262.43,712.836,261.415,711.772,253.162z"
					/>
				<path style="fill:#F4EBD9;" d="M87.791,216.613c-0.973-7.542-9.711-10.045-15.672-6.585c0.729-6.138-7.099-7.62-9.041-2.363
					c-1.9-3.254-5.229-5.667-9.068-3.479c-3.563,2.031-5.568,6.464-4.465,10.286c-3.418-2.094-7.801,3.103-5.963,7.292
					c1.702,3.88,5.845,5.123,9.719,5.634c6.227,0.821,12.659,0.792,18.912,0.348C79.255,227.244,89.012,226.081,87.791,216.613z"/>
				<path style="fill:#F4EBD9;" d="M219.549,66.037c-0.632-4.899-6.308-6.525-10.18-4.277c0.474-3.987-4.611-4.95-5.873-1.535
					c-1.234-2.113-3.396-3.681-5.89-2.26c-2.314,1.319-3.617,4.199-2.9,6.681c-2.22-1.36-5.067,2.016-3.873,4.736
					c1.106,2.52,3.797,3.328,6.313,3.66c4.045,0.534,8.222,0.515,12.285,0.226C214.004,72.943,220.342,72.187,219.549,66.037z"/>
				<path style="fill:#F4EBD9;" d="M-7.782,327.929c7.273,0.518,14.752,0.551,21.994-0.404c4.505-0.594,9.323-2.04,11.303-6.552
					c2.137-4.871-2.96-10.916-6.935-8.48c1.283-4.445-1.049-9.6-5.192-11.962c-4.465-2.545-8.337,0.262-10.546,4.046
					c-2.259-6.114-11.363-4.39-10.515,2.748c-6.933-4.023-17.095-1.112-18.226,7.658C-27.318,325.993-15.971,327.346-7.782,327.929z
					"/>
				<path style="fill:#F4EBD9;" d="M156.693,46.4c8.727,0.621,17.702,0.662,26.392-0.485c5.406-0.713,11.187-2.448,13.563-7.862
					c2.565-5.846-3.552-13.099-8.321-10.176c1.539-5.333-1.258-11.52-6.23-14.354c-5.358-3.054-10.004,0.314-12.655,4.854
					c-2.711-7.337-13.635-5.268-12.617,3.297c-8.319-4.828-20.513-1.335-21.87,9.189C133.251,44.077,146.868,45.701,156.693,46.4z"
					/>
				<path style="fill:#F4EBD9;" d="M724.611,418.458c8.727,0.621,17.702,0.662,26.392-0.485c5.405-0.713,11.187-2.448,13.563-7.862
					c2.565-5.845-3.552-13.099-8.321-10.176c1.539-5.333-1.258-11.52-6.23-14.354c-5.358-3.054-10.004,0.314-12.655,4.855
					c-2.711-7.337-13.635-5.268-12.617,3.297c-8.319-4.828-20.513-1.335-21.87,9.189
					C701.169,416.136,714.785,417.759,724.611,418.458z"/>
				<path style="fill:#F4EBD9;" d="M639.431,63.64c8.727,0.621,17.702,0.662,26.392-0.485c5.406-0.713,11.187-2.448,13.563-7.862
					c2.565-5.846-3.552-13.099-8.321-10.176c1.539-5.333-1.259-11.52-6.23-14.354c-5.358-3.054-10.004,0.314-12.655,4.855
					c-2.711-7.337-13.635-5.268-12.617,3.297c-8.319-4.828-20.513-1.335-21.87,9.189C615.988,61.317,629.605,62.941,639.431,63.64z"
					/>
			</g>
		</g>
	</g>
</g>
</svg>
