<?xml version="1.0" encoding="utf-8"?>
<!-- Generator: Adobe Illustrator 27.5.0, SVG Export Plug-In . SVG Version: 6.00 Build 0)  -->
<svg version="1.1" xmlns="http://www.w3.org/2000/svg" xmlns:xlink="http://www.w3.org/1999/xlink" x="0px" y="0px"
	 viewBox="0 0 3710 3710" style="enable-background:new 0 0 3710 3710;" xml:space="preserve">
<g id="Background">
	<g>
		<g>
			<rect style="fill:#FFFFFF;" width="3710" height="3710"/>
		</g>
	</g>
</g>
<g id="Illustration">
	<g>
		<path style="fill:#F4F7FA;" d="M1615.545,3195.678C896.673,3086.81,312.467,2407.133,418.605,1651.687
			c90.547-644.275,655.404-1145.66,1332.777-1193.006c49.048-3.438,98.662-4.501,148.737-3.048
			c377.882,10.915,713.629,162.061,961.946,390.782c247.15,227.622,407.721,532.076,436.958,851.484
			C3376.88,2547.718,2509.663,3331.089,1615.545,3195.678z"/>
		<g>
			<g>
				<polygon style="fill:#97A6B7;" points="2009.368,845.234 1577.017,841.504 1577.017,700.25 2009.368,685.951 				"/>
				<path style="fill:#97A6B7;" d="M1703.228,812.544c0,64.359-57.917,114.608-126.781,112.319
					c-66.17-2.199-117.942-52.456-117.942-112.329c0-59.872,51.772-110.125,117.942-112.32
					C1645.311,697.932,1703.228,748.185,1703.228,812.544z"/>
			</g>
			<polygon style="fill:#E6EBF4;" points="1527.403,1072.67 1013.543,1128.894 1013.543,898.528 1527.403,848.084 			"/>
			<polygon style="fill:#E6EBF4;" points="1364.385,3151.196 896.595,3091.134 896.595,1110.059 1364.385,1075.265 			"/>
			<polygon style="fill:#97A6B7;" points="1318.315,1127.646 878.875,1159.409 878.875,1075.136 1318.315,1040.991 			"/>
			<polygon style="fill:#97A6B7;" points="1413.999,864.735 981.648,899.003 981.648,815.222 1413.999,777.554 			"/>
			<polygon style="fill:#97A6B7;" points="1318.315,1734.227 878.875,1749.324 878.875,1668.422 1318.315,1651.039 			"/>
			<polygon style="fill:#97A6B7;" points="1318.315,2337.343 878.875,2335.869 878.875,2254.966 1318.315,2254.155 			"/>
			<path style="fill:#D8DEE8;" d="M2137.197,817.537c0,69.568-57.761,124.044-129.387,121.664
				c-72.044-2.395-130.757-61.339-130.757-131.643s58.712-124.744,130.757-121.611
				C2079.436,689.062,2137.197,747.969,2137.197,817.537z"/>
			<polygon style="fill:#FFFFFF;" points="2540.948,1110.407 1445.894,1081.011 1445.894,855.732 2540.948,894.885 			"/>
			<polygon style="fill:#FFFFFF;" points="2629.545,3081.706 1350.21,3151.989 1350.21,1074.866 2629.545,1109.522 			"/>
			<polygon style="fill:#D8DEE8;" points="2583.474,906.24 1403.368,864.578 1403.368,777.783 2583.474,823.486 			"/>
			<g>
				<polygon style="fill:#D8DEE8;" points="2661.439,1156.507 1318.315,1122.741 1318.315,1035.647 2661.439,1074.024 				"/>
				<polygon style="fill:#D8DEE8;" points="2661.439,1733.892 1318.315,1732.399 1318.315,1645.305 2661.439,1651.409 				"/>
				<polygon style="fill:#D8DEE8;" points="2661.439,2307.978 1318.315,2338.574 1318.315,2254.963 2661.439,2228.794 				"/>
				<polygon style="fill:#D8DEE8;" points="2661.439,3080.024 1318.315,3153.774 1318.315,3139.839 2661.439,3066.827 				"/>
			</g>
			<g>
				<g>
					<polygon style="fill:#D8DEE8;" points="1736.491,1571.836 1435.262,1569.609 1435.262,1198.605 1736.491,1205.23 					"/>
					<g>
						<linearGradient id="SVGID_1_" gradientUnits="userSpaceOnUse" x1="1503.9905" y1="1130.9507" x2="1551.4319" y2="2050.7751">
							<stop  offset="0.494" style="stop-color:#EBEFF2"/>
							<stop  offset="1" style="stop-color:#FFFFFF"/>
						</linearGradient>
						<polygon style="fill:url(#SVGID_1_);" points="1580.561,1536.154 1452.982,1535.102 1452.982,1219.801 1580.561,1222.407 
													"/>
						
							<linearGradient id="SVGID_00000076602942077549033270000015892106640749066919_" gradientUnits="userSpaceOnUse" x1="1644.0454" y1="1134.4446" x2="1691.2167" y2="2049.033">
							<stop  offset="0.494" style="stop-color:#EBEFF2"/>
							<stop  offset="1" style="stop-color:#FFFFFF"/>
						</linearGradient>
						<polygon style="fill:url(#SVGID_00000076602942077549033270000015892106640749066919_);" points="1718.772,1537.414 
							1594.736,1536.285 1594.736,1222.717 1718.772,1225.406 						"/>
					</g>
				</g>
				<g>
					<polygon style="fill:#D8DEE8;" points="2151.123,1575.004 1860.526,1572.771 1860.526,1207.984 2151.123,1214.499 					"/>
					<g>
						
							<linearGradient id="SVGID_00000031919412933016038610000001880841620291159178_" gradientUnits="userSpaceOnUse" x1="1929.4805" y1="1141.7318" x2="1976.0853" y2="2045.3379">
							<stop  offset="0.494" style="stop-color:#EBEFF2"/>
							<stop  offset="1" style="stop-color:#FFFFFF"/>
						</linearGradient>
						<polygon style="fill:url(#SVGID_00000031919412933016038610000001880841620291159178_);" points="2002.281,1539.916 
							1881.789,1538.866 1881.789,1228.891 2002.281,1231.43 						"/>
						
							<linearGradient id="SVGID_00000005226960445926897750000013368907621892713097_" gradientUnits="userSpaceOnUse" x1="2060.6826" y1="1145.2762" x2="2106.9961" y2="2043.2305">
							<stop  offset="0.494" style="stop-color:#EBEFF2"/>
							<stop  offset="1" style="stop-color:#FFFFFF"/>
						</linearGradient>
						<polygon style="fill:url(#SVGID_00000005226960445926897750000013368907621892713097_);" points="2129.86,1541.133 
							2016.456,1540.038 2016.456,1231.727 2129.86,1234.275 						"/>
					</g>
				</g>
				<g>
					<polygon style="fill:#D8DEE8;" points="2555.124,1578.018 2271.615,1575.872 2271.615,1217.141 2555.124,1223.434 					"/>
					<g>
						
							<linearGradient id="SVGID_00000063608039230968698350000008159131642221147789_" gradientUnits="userSpaceOnUse" x1="2337.2437" y1="1152.1724" x2="2383.0393" y2="2040.0859">
							<stop  offset="0.494" style="stop-color:#EBEFF2"/>
							<stop  offset="1" style="stop-color:#FFFFFF"/>
						</linearGradient>
						<polygon style="fill:url(#SVGID_00000063608039230968698350000008159131642221147789_);" points="2406.281,1543.57 
							2292.878,1542.521 2292.878,1237.689 2406.281,1240.167 						"/>
						
							<linearGradient id="SVGID_00000039842928324497193270000017806929620740875441_" gradientUnits="userSpaceOnUse" x1="2464.8872" y1="1155.3638" x2="2510.4446" y2="2038.6619">
							<stop  offset="0.494" style="stop-color:#EBEFF2"/>
							<stop  offset="1" style="stop-color:#FFFFFF"/>
						</linearGradient>
						<polygon style="fill:url(#SVGID_00000039842928324497193270000017806929620740875441_);" points="2533.86,1544.712 
							2420.457,1543.684 2420.457,1240.451 2533.86,1242.896 						"/>
					</g>
				</g>
			</g>
			<g>
				<g>
					<polygon style="fill:#D8DEE8;" points="1736.491,2185.129 1435.262,2190.26 1435.262,1819.256 1736.491,1818.524 					"/>
					<g>
						
							<linearGradient id="SVGID_00000115479745293104410220000000873241869515939768_" gradientUnits="userSpaceOnUse" x1="1504.1111" y1="1751.9673" x2="1551.1035" y2="2663.0876">
							<stop  offset="0.494" style="stop-color:#EBEFF2"/>
							<stop  offset="1" style="stop-color:#FFFFFF"/>
						</linearGradient>
						<polygon style="fill:url(#SVGID_00000115479745293104410220000000873241869515939768_);" points="1580.561,2153.305 
							1452.982,2155.309 1452.982,1840.008 1580.561,1839.558 						"/>
						
							<linearGradient id="SVGID_00000009585763718394511900000001073269418562789550_" gradientUnits="userSpaceOnUse" x1="1644.1665" y1="1752.0565" x2="1690.887" y2="2657.9036">
							<stop  offset="0.494" style="stop-color:#EBEFF2"/>
							<stop  offset="1" style="stop-color:#FFFFFF"/>
						</linearGradient>
						<polygon style="fill:url(#SVGID_00000009585763718394511900000001073269418562789550_);" points="1718.772,2151.144 
							1594.736,2153.083 1594.736,1839.515 1718.772,1839.136 						"/>
					</g>
				</g>
				<g>
					<polygon style="fill:#D8DEE8;" points="2151.123,2178.092 1860.526,2183.021 1860.526,1818.235 2151.123,1817.587 					"/>
					<g>
						
							<linearGradient id="SVGID_00000034067525630777278070000006001808058192662685_" gradientUnits="userSpaceOnUse" x1="1929.5961" y1="1752.2395" x2="1975.7704" y2="2647.4988">
							<stop  offset="0.494" style="stop-color:#EBEFF2"/>
							<stop  offset="1" style="stop-color:#FFFFFF"/>
						</linearGradient>
						<polygon style="fill:url(#SVGID_00000034067525630777278070000006001808058192662685_);" points="2002.281,2146.717 
							1881.789,2148.597 1881.789,1838.622 2002.281,1838.231 						"/>
						
							<linearGradient id="SVGID_00000045620336827967580380000010319486188491799743_" gradientUnits="userSpaceOnUse" x1="2060.7954" y1="1752.4913" x2="2106.6887" y2="2642.3025">
							<stop  offset="0.494" style="stop-color:#EBEFF2"/>
							<stop  offset="1" style="stop-color:#FFFFFF"/>
						</linearGradient>
						<polygon style="fill:url(#SVGID_00000045620336827967580380000010319486188491799743_);" points="2129.86,2144.732 
							2016.456,2146.495 2016.456,1838.184 2129.86,1837.874 						"/>
					</g>
				</g>
				<g>
					<polygon style="fill:#D8DEE8;" points="2555.124,2171.2 2271.615,2175.993 2271.615,1817.262 2555.124,1816.616 					"/>
					<g>
						
							<linearGradient id="SVGID_00000067920856107420233390000015574353229462918318_" gradientUnits="userSpaceOnUse" x1="2337.3547" y1="1752.5317" x2="2382.7373" y2="2632.4397">
							<stop  offset="0.494" style="stop-color:#EBEFF2"/>
							<stop  offset="1" style="stop-color:#FFFFFF"/>
						</linearGradient>
						<polygon style="fill:url(#SVGID_00000067920856107420233390000015574353229462918318_);" points="2406.281,2140.374 
							2292.878,2142.136 2292.878,1837.304 2406.281,1836.971 						"/>
						
							<linearGradient id="SVGID_00000109740446277426180710000016321887997042553763_" gradientUnits="userSpaceOnUse" x1="2464.9971" y1="1752.5718" x2="2510.1448" y2="2627.9277">
							<stop  offset="0.494" style="stop-color:#EBEFF2"/>
							<stop  offset="1" style="stop-color:#FFFFFF"/>
						</linearGradient>
						<polygon style="fill:url(#SVGID_00000109740446277426180710000016321887997042553763_);" points="2533.86,2138.393 
							2420.457,2140.153 2420.457,1836.92 2533.86,1836.577 						"/>
					</g>
				</g>
			</g>
			<g>
				<g>
					<polygon style="fill:#D8DEE8;" points="1736.491,2949.177 1435.262,2963.473 1435.262,2595.937 1736.491,2585.997 					"/>
					<g>
						
							<linearGradient id="SVGID_00000114041775313116165170000008961209247337159315_" gradientUnits="userSpaceOnUse" x1="1504.262" y1="2529.1055" x2="1550.6925" y2="3429.3333">
							<stop  offset="0.494" style="stop-color:#EBEFF2"/>
							<stop  offset="1" style="stop-color:#FFFFFF"/>
						</linearGradient>
						<polygon style="fill:url(#SVGID_00000114041775313116165170000008961209247337159315_);" points="1580.561,2925.606 
							1452.982,2931.434 1452.982,2616.133 1580.561,2611.859 						"/>
						
							<linearGradient id="SVGID_00000085945903831531901410000010104853772217871494_" gradientUnits="userSpaceOnUse" x1="1644.318" y1="2524.9341" x2="1690.4742" y2="3419.8423">
							<stop  offset="0.494" style="stop-color:#EBEFF2"/>
							<stop  offset="1" style="stop-color:#FFFFFF"/>
						</linearGradient>
						<polygon style="fill:url(#SVGID_00000085945903831531901410000010104853772217871494_);" points="1718.772,2919.164 
							1594.736,2924.944 1594.736,2611.375 1718.772,2607.156 						"/>
					</g>
				</g>
				<g>
					<polygon style="fill:#D8DEE8;" points="2555.124,2910.193 2271.615,2923.63 2271.615,2568.251 2555.124,2558.923 					"/>
					<g>
						
							<linearGradient id="SVGID_00000075153498271258481680000008978208875108576652_" gradientUnits="userSpaceOnUse" x1="2337.4934" y1="2503.8193" x2="2382.3594" y2="3373.7097">
							<stop  offset="0.494" style="stop-color:#EBEFF2"/>
							<stop  offset="1" style="stop-color:#FFFFFF"/>
						</linearGradient>
						<polygon style="fill:url(#SVGID_00000075153498271258481680000008978208875108576652_);" points="2406.281,2887.213 
							2292.878,2892.491 2292.878,2587.659 2406.281,2583.81 						"/>
						
							<linearGradient id="SVGID_00000085930280487152368190000006621603392219973278_" gradientUnits="userSpaceOnUse" x1="2465.1348" y1="2499.916" x2="2509.77" y2="3365.333">
							<stop  offset="0.494" style="stop-color:#EBEFF2"/>
							<stop  offset="1" style="stop-color:#FFFFFF"/>
						</linearGradient>
						<polygon style="fill:url(#SVGID_00000085930280487152368190000006621603392219973278_);" points="2533.86,2881.323 
							2420.457,2886.573 2420.457,2583.34 2533.86,2579.507 						"/>
					</g>
				</g>
			</g>
			<g>
				<polygon style="fill:#D8DEE8;" points="1796.737,1025.421 1506.14,1016.745 1506.14,892.252 1796.737,902.375 				"/>
				<polygon style="fill:#D8DEE8;" points="2147.579,1035.83 1860.526,1027.296 1860.526,904.564 2147.579,914.522 				"/>
				<polygon style="fill:#D8DEE8;" points="2491.334,1045.942 2211.369,1037.646 2211.369,916.645 2491.334,926.325 				"/>
			</g>
			<path style="opacity:0.1;fill:#97A6B7;" d="M1350.21,1123.576c0,0,257.623,40.913,368.569,214.98
				c109.97,172.535,358.113,107.432,574.286,157.088c212.413,48.793,338.927,155.629,338.927,155.629l-1281.782-2.328V1123.576z"/>
			<path style="opacity:0.1;fill:#97A6B7;" d="M1350.21,1735.927c0,0,257.623,34.688,368.569,206.077
				c109.97,169.881,358.113,98.783,574.286,143.221c212.413,43.665,338.927,147.45,338.927,147.45l-1281.782,28.621V1735.927z"/>
			<path style="opacity:0.1;fill:#97A6B7;" d="M1350.21,2612.961c0,0,257.623,25.917,368.569,193.531
				c109.97,166.139,358.113,86.597,574.286,123.681c212.413,36.439,338.927,135.926,338.927,135.926L1350.21,3138.33V2612.961z"/>
			<polygon style="fill:#E4E9F2;" points="2151.123,3027.132 1860.526,3042.146 1860.526,2513.716 2151.123,2504.905 			"/>
			<polygon style="fill:#D8DEE8;" points="2197.193,2530.431 1818,2542.323 1818,2467.192 2197.193,2456.444 			"/>
			<g>
				
					<linearGradient id="SVGID_00000158028900216031563560000016147298319320702625_" gradientUnits="userSpaceOnUse" x1="1782.5612" y1="3012.7524" x2="2232.6318" y2="3012.7524">
					<stop  offset="0.494" style="stop-color:#EBEFF2"/>
					<stop  offset="1" style="stop-color:#FFFFFF"/>
				</linearGradient>
				<polygon style="fill:url(#SVGID_00000158028900216031563560000016147298319320702625_);" points="2232.632,3023.004 
					1782.561,3046.159 1782.561,3001.7 2232.632,2979.346 				"/>
				<polygon style="fill:#D8DEE8;" points="2275.158,3064.256 1732.947,3093.267 1732.947,3048.72 2275.158,3020.677 				"/>
				
					<linearGradient id="SVGID_00000004517769105170428600000010633010364892736655_" gradientUnits="userSpaceOnUse" x1="1708.14" y1="3100.9817" x2="2303.5093" y2="3100.9817">
					<stop  offset="0.494" style="stop-color:#EBEFF2"/>
					<stop  offset="1" style="stop-color:#FFFFFF"/>
				</linearGradient>
				<polygon style="fill:url(#SVGID_00000004517769105170428600000010633010364892736655_);" points="2303.509,3106.306 
					1708.14,3139.186 1708.14,3094.594 2303.509,3062.777 				"/>
			</g>
		</g>
		<g>
			
				<linearGradient id="SVGID_00000047766380378304921420000005370490067052577182_" gradientUnits="userSpaceOnUse" x1="-239.076" y1="1883.2887" x2="-300.9311" y2="2055.8318" gradientTransform="matrix(-1 0 0 1 2068.189 0)">
				<stop  offset="0" style="stop-color:#FFC444"/>
				<stop  offset="0.9964" style="stop-color:#F36F56"/>
			</linearGradient>
			<path style="fill:url(#SVGID_00000047766380378304921420000005370490067052577182_);" d="M2381.785,2008.646
				c0,0-7.385-24.97-20.046-25.673s-60.49-20.398-54.863-9.144s25.385,15.676,25.385,15.676s-9.561,22.073,11.841,27.582
				S2410.352,2048.381,2381.785,2008.646z"/>
			
				<linearGradient id="SVGID_00000180330082053555638000000017123109173672002738_" gradientUnits="userSpaceOnUse" x1="356.4102" y1="2033.4745" x2="-389.8159" y2="2521.7576" gradientTransform="matrix(-0.9666 0.2562 0.2562 0.9666 1909.2878 -120.7636)">
				<stop  offset="0" style="stop-color:#FFC444"/>
				<stop  offset="0.9964" style="stop-color:#F36F56"/>
			</linearGradient>
			<path style="fill:url(#SVGID_00000180330082053555638000000017123109173672002738_);" d="M2384.397,2000.379
				c-5.87,13.064-11.741,26.123-17.611,39.187c11.982,22.379,31.337,53.01,61.505,83.737c13.307,13.554,54.148,53.023,116.78,79.904
				c85.258,36.591,233.45,59.527,266.1,0.459c29.134-52.705-47.081-146.559-61.038-163.365
				c-20.419,13.974,2.33-18.643-100.682,44.524c-13.252,8.126-54.574,12.49-101.704,6.026
				C2460.521,2078.888,2403.9,2022.013,2384.397,2000.379z"/>
			
				<linearGradient id="SVGID_00000101083227598495931360000010284285889750539923_" gradientUnits="userSpaceOnUse" x1="3120.1389" y1="2636.0168" x2="3227.9338" y2="3025.0156" gradientTransform="matrix(0.9968 0.0799 -0.0799 0.9968 -240.4599 65.4365)">
				<stop  offset="0" style="stop-color:#311944"/>
				<stop  offset="1" style="stop-color:#893976"/>
			</linearGradient>
			<path style="fill:url(#SVGID_00000101083227598495931360000010284285889750539923_);" d="M2747.338,3170.615
				c0,0,3.46,21.179,3.019,28.716c-0.439,7.538-84.082,11.391-84.927,5.744c-0.845-5.647,13.826-14.625,24.151-17.794
				c10.326-3.169,40.548-11.627,40.548-11.627L2747.338,3170.615z"/>
			
				<linearGradient id="SVGID_00000126310735510502240440000008040475724956384148_" gradientUnits="userSpaceOnUse" x1="3216.0759" y1="2911.0427" x2="3217.6382" y2="2779.8132" gradientTransform="matrix(0.9968 0.0799 -0.0799 0.9968 -240.4599 65.4365)">
				<stop  offset="0" style="stop-color:#FFC444"/>
				<stop  offset="0.9964" style="stop-color:#F36F56"/>
			</linearGradient>
			<path style="fill:url(#SVGID_00000126310735510502240440000008040475724956384148_);" d="M2727.035,3149.5l2.668,26.334
				c0,0,9.716,6.421,18.276,1.465l4.284-28.665L2727.035,3149.5z"/>
			
				<linearGradient id="SVGID_00000121250161987907860400000001372866165462338436_" gradientUnits="userSpaceOnUse" x1="3255.0952" y1="2598.6138" x2="3362.8909" y2="2987.615" gradientTransform="matrix(0.9968 0.0799 -0.0799 0.9968 -240.4599 65.4365)">
				<stop  offset="0" style="stop-color:#311944"/>
				<stop  offset="1" style="stop-color:#893976"/>
			</linearGradient>
			<path style="fill:url(#SVGID_00000121250161987907860400000001372866165462338436_);" d="M2896.571,3204.947
				c0,0,3.461,21.178,3.021,28.716c-0.44,7.538-84.084,11.391-84.928,5.744c-0.845-5.646,13.826-14.625,24.151-17.794
				c10.325-3.169,40.547-11.627,40.547-11.627L2896.571,3204.947z"/>
			
				<linearGradient id="SVGID_00000111192478210538381400000017585848447369820032_" gradientUnits="userSpaceOnUse" x1="3367.8198" y1="2912.8459" x2="3369.3821" y2="2781.6155" gradientTransform="matrix(0.9968 0.0799 -0.0799 0.9968 -240.4599 65.4365)">
				<stop  offset="0" style="stop-color:#FFC444"/>
				<stop  offset="0.9964" style="stop-color:#F36F56"/>
			</linearGradient>
			<path style="fill:url(#SVGID_00000111192478210538381400000017585848447369820032_);" d="M2876.269,3183.833l2.668,26.334
				c0,0,9.715,6.421,18.276,1.464l4.283-28.664L2876.269,3183.833z"/>
			
				<linearGradient id="SVGID_00000078725048712565753350000017171561588213739416_" gradientUnits="userSpaceOnUse" x1="3140.4182" y1="2488.9973" x2="3280.1392" y2="2488.9973" gradientTransform="matrix(0.9968 0.0799 -0.0799 0.9968 -240.4599 65.4365)">
				<stop  offset="0" style="stop-color:#444B8C"/>
				<stop  offset="0.9964" style="stop-color:#26264F"/>
			</linearGradient>
			<path style="fill:url(#SVGID_00000078725048712565753350000017171561588213739416_);" d="M2742.213,2462.008
				c-9.668,19.601-19.337,39.202-29.005,58.802c-7.775,111.86-11.64,233.493-9.158,363.573
				c1.846,96.779,7.019,188.458,14.448,274.515c13.108-0.6,26.217-1.205,39.326-1.805c18.956-37.62,41.332-94.616,43.391-164.973
				c2.149-73.389-20.101-83.132-18.69-153.4c1.83-91.074,40.02-115.373,60.366-224.922c7.781-41.895,13.02-96.615,6.793-163.003
				C2813.86,2454.532,2778.037,2458.273,2742.213,2462.008z"/>
			
				<linearGradient id="SVGID_00000028312211684474547370000013492806691006897060_" gradientUnits="userSpaceOnUse" x1="3140.4209" y1="2488.9973" x2="3280.1396" y2="2488.9973" gradientTransform="matrix(0.9968 0.0799 -0.0799 0.9968 -240.4599 65.4365)">
				<stop  offset="0" style="stop-color:#444B8C"/>
				<stop  offset="0.9964" style="stop-color:#26264F"/>
			</linearGradient>
			<path style="opacity:0.3;fill:url(#SVGID_00000028312211684474547370000013492806691006897060_);" d="M2849.685,2450.796
				c-19.347,2.017-38.694,4.035-58.042,6.057c-34.826,60.605-44.55,123.686-38.438,151.587c8.646,39.477,31.517,52.123,30.26,91.759
				c-1.244,39.218-24.35,49.387-39.008,95.611c-10.146,32.004-7.469,61.429-1.696,118.974
				c11.625,115.914,39.615,151.362,16.17,189.366c-6.663,10.798-18.666,23.658-42.184,33.477c0.575,7.108,1.142,14.239,1.75,21.271
				c13.108-0.598,26.217-1.205,39.326-1.803c18.956-37.625,41.332-94.617,43.391-164.974c2.149-73.389-20.101-83.135-18.69-153.401
				c1.829-91.074,40.019-115.371,60.366-224.92C2850.673,2571.905,2855.912,2517.185,2849.685,2450.796z"/>
			
				<linearGradient id="SVGID_00000054976591879547069270000004226697697800020625_" gradientUnits="userSpaceOnUse" x1="3219.3" y1="2508.9556" x2="3431.4063" y2="2508.9556" gradientTransform="matrix(0.9968 0.0799 -0.0799 0.9968 -240.4599 65.4365)">
				<stop  offset="0" style="stop-color:#444B8C"/>
				<stop  offset="0.9964" style="stop-color:#26264F"/>
			</linearGradient>
			<path style="fill:url(#SVGID_00000054976591879547069270000004226697697800020625_);" d="M2794.227,2497.296
				c18.149,98.965,34.179,204.883,46.687,317.212c15.102,135.629,23.161,263.494,26.331,382.211
				c14.388,0.409,28.776,0.813,43.164,1.222c56.696-112.161,60.16-188.204,51.986-237.714
				c-3.15-19.078-11.706-56.487-13.659-112.395c-1.361-38.972,1.125-68.631,4.231-104.285
				c6.808-78.172,15.072-95.237,16.259-155.031c1.116-56.116,1.346-84.51-14.673-101.084
				C2912.349,2443.77,2802.556,2493.431,2794.227,2497.296z"/>
			
				<linearGradient id="SVGID_00000093163722938875805440000005802874252363029889_" gradientUnits="userSpaceOnUse" x1="3645.6226" y1="2534.0933" x2="3172.2588" y2="1854.5114" gradientTransform="matrix(0.9968 0.0799 -0.0799 0.9968 -240.4599 65.4365)">
				<stop  offset="0" style="stop-color:#FFC444"/>
				<stop  offset="0.9964" style="stop-color:#F36F56"/>
			</linearGradient>
			<path style="fill:url(#SVGID_00000093163722938875805440000005802874252363029889_);" d="M2702.196,2540.879
				c-13.785-22.874,3.53-44.935,7.471-88.272c4.467-49.117-14.454-57.295-33.167-138.693
				c-12.444-54.135-24.39-106.105-10.131-166.939c6.833-29.156,18.423-78.605,59.348-102.491
				c21.119-12.326,49.955-11.093,106.764-8.12c70.251,3.673,105.376,5.509,131.572,19.304c3.834,2.02,83.529,45.368,89.014,116.027
				c5.584,71.915-72.735,81.581-83.181,177.484c-4.689,43.052,3.669,109.266,9.09,152.214c5.205,41.237,8.787,51.795,0.649,64.28
				c-19.614,30.092-79.661,21.514-199.758,4.365C2732.759,2563.31,2712.483,2557.948,2702.196,2540.879z"/>
			
				<linearGradient id="SVGID_00000121278040551978412600000003336812523420671387_" gradientUnits="userSpaceOnUse" x1="3645.5791" y1="2534.1299" x2="3172.207" y2="1854.5359" gradientTransform="matrix(0.9968 0.0799 -0.0799 0.9968 -240.4599 65.4365)">
				<stop  offset="0" style="stop-color:#FFC444"/>
				<stop  offset="0.9964" style="stop-color:#F36F56"/>
			</linearGradient>
			<path style="opacity:0.3;fill:url(#SVGID_00000121278040551978412600000003336812523420671387_);" d="M2884.923,2333.752
				c5.078,18.692,23.342,32.653,36.055,78.118c2.745,9.817,22.294,79.72-3.064,96.927c-14.648,9.937-27.797-8.891-63.347-11.349
				c-61.603-4.261-90.949,47.513-131.19,33.375c-6.981-2.457-16.199-7.686-25.402-19.704c-1.833,10.83-1.518,20.236,4.221,29.761
				c10.287,17.069,30.563,22.431,77.671,29.159c120.097,17.149,180.144,25.727,199.758-4.365c8.138-12.485,4.556-23.043-0.649-64.28
				c-5.42-42.947-13.779-109.162-9.09-152.214c10.446-95.903,88.765-105.569,83.181-177.484
				c-1.492-19.225-8.565-36.344-18.021-51.244C2935.693,2160.654,2868.962,2275.015,2884.923,2333.752z"/>
			
				<linearGradient id="SVGID_00000098942558785030877890000012353329812687097020_" gradientUnits="userSpaceOnUse" x1="3357.3262" y1="2157.1614" x2="3433.6802" y2="2157.1614" gradientTransform="matrix(0.9968 0.0799 -0.0799 0.9968 -240.4599 65.4365)">
				<stop  offset="0" style="stop-color:#FFC444"/>
				<stop  offset="0.9964" style="stop-color:#F36F56"/>
			</linearGradient>
			<path style="fill:url(#SVGID_00000098942558785030877890000012353329812687097020_);" d="M3010.411,2475.215l-19.878,12.692
				c-3.57-4.121-11.832-12.436-24.734-15.275c-14.536-3.195-31.221,1.387-31.61,6.027c-0.311,3.717,9.849,7.465,11.42,8.045
				c12.682,4.68,22.092,0.793,27.22,5.892c1.813,1.803,4.073,5.156,9.27,8.263c1.364,0.817,2.795,1.537,3.549,1.832
				c8.465,3.291,22.985-11.445,24.234-12.732L3010.411,2475.215z"/>
			
				<linearGradient id="SVGID_00000069382902730838691850000001064274129915900092_" gradientUnits="userSpaceOnUse" x1="3778.3735" y1="2441.625" x2="3305.0051" y2="1762.0363" gradientTransform="matrix(0.9968 0.0799 -0.0799 0.9968 -240.4599 65.4365)">
				<stop  offset="0" style="stop-color:#FFC444"/>
				<stop  offset="0.9964" style="stop-color:#F36F56"/>
			</linearGradient>
			<path style="fill:url(#SVGID_00000069382902730838691850000001064274129915900092_);" d="M2951.684,2214.504
				c-14.379-34.44-24.342-87.17-1.63-165.478c149.654,58.969,225.978,198.763,196.177,309.582
				c-24.567,91.355-113.945,135.853-133.883,145.215c-4.639-10.56-9.279-21.116-13.918-31.676
				c23.106-25.73,49.142-63.774,45.459-107.188C3038.786,2304.771,2980.797,2284.229,2951.684,2214.504z"/>
			
				<linearGradient id="SVGID_00000141432970873958747140000012839185841568962187_" gradientUnits="userSpaceOnUse" x1="747.0859" y1="400.7633" x2="778.0342" y2="-77.5289" gradientTransform="matrix(0.7795 0.6265 -0.6265 0.7795 3083.9229 622.2045)">
				<stop  offset="0" style="stop-color:#FFC444"/>
				<stop  offset="0.9964" style="stop-color:#F36F56"/>
			</linearGradient>
			<path style="fill:url(#SVGID_00000141432970873958747140000012839185841568962187_);" d="M2836.159,1965.515
				c0,0,1.182,26.179,9.309,45.784c7.344,17.719,45.97,28.857,53.799,32.812c7.831,3.955-14.669,15.516-37.263,17.788
				c-22.593,2.272-87.118-2.859-98.749-11.424c-11.631-8.565,9.347-7.921,25.474-13.842c16.126-5.92,25.451-37.46,22.604-51.775
				C2808.488,1970.541,2836.159,1965.515,2836.159,1965.515z"/>
			
				<linearGradient id="SVGID_00000003823532092413053030000001340321742287618213_" gradientUnits="userSpaceOnUse" x1="3246.7065" y1="1733.7147" x2="3190.1045" y2="1589.9557" gradientTransform="matrix(0.9968 0.0799 -0.0799 0.9968 -240.4599 65.4365)">
				<stop  offset="0" style="stop-color:#444B8C"/>
				<stop  offset="0.9964" style="stop-color:#3E4177"/>
			</linearGradient>
			<path style="fill:url(#SVGID_00000003823532092413053030000001340321742287618213_);" d="M2800.424,1956.023
				c-11.724-11.519-13.36-12.864-14.637-16.845c-5.124-15.98,7.271-37.864,23.528-43.252c0.846-0.279,11.748-3.77,15.91,0.961
				c3.534,4.016-1.665,9.564,0.807,17.305c2.316,7.248,8.599,7.79,20.243,17.295c9.593,7.827,15.553,12.693,16.929,19.538
				c2.835,14.112-14.247,34.563-29.369,34.007C2828.395,1984.83,2826.916,1982.052,2800.424,1956.023z"/>
			<g>
				
					<linearGradient id="SVGID_00000003789695898113020690000000706811342019813026_" gradientUnits="userSpaceOnUse" x1="689.2825" y1="397.0234" x2="720.2307" y2="-81.2691" gradientTransform="matrix(0.7795 0.6265 -0.6265 0.7795 3083.9229 622.2045)">
					<stop  offset="0" style="stop-color:#FFC444"/>
					<stop  offset="0.9964" style="stop-color:#F36F56"/>
				</linearGradient>
				<path style="fill:url(#SVGID_00000003789695898113020690000000706811342019813026_);" d="M2832.354,1987.21
					c0,0-12.462,14.11-31.446,9.446c-16.997-4.176-12.66-43.187-0.221-49.419c4.149-2.078,11.69-1.906,17.36,0.826
					c3.35,1.615,4.281,3.291,9.805,5.823c5.094,2.334,6.71,2.01,8.08,3.655c1.715,2.055,2.453,6.478-2.919,17.155
					c3.872-2.74,8.036-3.314,10.592-1.501c0.408,0.29,1.447,1.303,1.894,2.638
					C2847.118,1980.665,2842.096,1985.575,2832.354,1987.21z"/>
			</g>
		</g>
		<g>
			<g>
				
					<rect x="1509.981" y="1998.294" transform="matrix(0.5473 -0.8369 0.8369 0.5473 -1103.5922 2284.6257)" style="fill:#FFFFFF;" width="100.479" height="328.464"/>
				
					<linearGradient id="SVGID_00000122001001097124745220000003926512766837750419_" gradientUnits="userSpaceOnUse" x1="1340.2128" y1="2064.6509" x2="1547.9849" y2="2064.6509">
					<stop  offset="0" style="stop-color:#40447E"/>
					<stop  offset="0.9964" style="stop-color:#3C3B6B"/>
				</linearGradient>
				
					<circle style="fill:url(#SVGID_00000122001001097124745220000003926512766837750419_);" cx="1444.099" cy="2064.651" r="103.886"/>
				
					<linearGradient id="SVGID_00000111913065759816296750000008098565169548550817_" gradientUnits="userSpaceOnUse" x1="1547.717" y1="2223.2808" x2="1718.3147" y2="2223.2808">
					<stop  offset="0" style="stop-color:#40447E"/>
					<stop  offset="0.9964" style="stop-color:#3C3B6B"/>
				</linearGradient>
				
					<circle style="fill:url(#SVGID_00000111913065759816296750000008098565169548550817_);" cx="1633.016" cy="2223.281" r="85.299"/>
			</g>
			<g>
				
					<linearGradient id="SVGID_00000179606646150804952130000006439348667789520558_" gradientUnits="userSpaceOnUse" x1="1497.9731" y1="1629.9092" x2="1759.6957" y2="1629.9092">
					<stop  offset="0" style="stop-color:#FFC444"/>
					<stop  offset="0.9964" style="stop-color:#F36F56"/>
				</linearGradient>
				
					<ellipse style="fill:url(#SVGID_00000179606646150804952130000006439348667789520558_);" cx="1628.834" cy="1629.909" rx="130.861" ry="183.899"/>
				
					<linearGradient id="SVGID_00000092443877660556564140000009966391507691414967_" gradientUnits="userSpaceOnUse" x1="525.3076" y1="1534.9332" x2="1686.1528" y2="1534.9332">
					<stop  offset="0" style="stop-color:#FCB148"/>
					<stop  offset="0.0521" style="stop-color:#FDBA46"/>
					<stop  offset="0.1424" style="stop-color:#FFC244"/>
					<stop  offset="0.3183" style="stop-color:#FFC444"/>
					<stop  offset="0.4849" style="stop-color:#FDB946"/>
					<stop  offset="0.7754" style="stop-color:#F99C4D"/>
					<stop  offset="0.8658" style="stop-color:#F8924F"/>
					<stop  offset="1" style="stop-color:#F8924F"/>
				</linearGradient>
				<path style="fill:url(#SVGID_00000092443877660556564140000009966391507691414967_);" d="M1228.878,1184.293H982.58
					c-252.545,0-457.273,204.728-457.273,457.273v0.004c0,134.76,109.245,244.004,244.004,244.004h672.836
					c134.76,0,244.005-109.245,244.005-244.005v-0.001C1686.153,1389.022,1481.424,1184.293,1228.878,1184.293z"/>
				
					<linearGradient id="SVGID_00000078758726926314177090000002922590967495625139_" gradientUnits="userSpaceOnUse" x1="729.1694" y1="2158.1042" x2="1482.2916" y2="2158.1042">
					<stop  offset="0" style="stop-color:#FCB148"/>
					<stop  offset="0.0521" style="stop-color:#FDBA46"/>
					<stop  offset="0.1424" style="stop-color:#FFC244"/>
					<stop  offset="0.3183" style="stop-color:#FFC444"/>
					<stop  offset="0.4849" style="stop-color:#FDB946"/>
					<stop  offset="0.7754" style="stop-color:#F99C4D"/>
					<stop  offset="0.8658" style="stop-color:#F8924F"/>
					<stop  offset="1" style="stop-color:#F8924F"/>
				</linearGradient>
				<path style="fill:url(#SVGID_00000078758726926314177090000002922590967495625139_);" d="M1185.625,2385.59h-159.791
					c-163.843,0-296.665-132.822-296.665-296.666v-0.002c0-87.429,70.875-158.303,158.303-158.303h436.516
					c87.428,0,158.303,70.875,158.303,158.303v0.001C1482.292,2252.767,1349.469,2385.59,1185.625,2385.59z"/>
				<g>
					
						<linearGradient id="SVGID_00000115517024968623268710000010444060842724081579_" gradientUnits="userSpaceOnUse" x1="868.7626" y1="1634.1322" x2="1554.5262" y2="1634.1322">
						<stop  offset="0" style="stop-color:#444B8C"/>
						<stop  offset="0.9964" style="stop-color:#26264F"/>
					</linearGradient>
					<path style="fill:url(#SVGID_00000115517024968623268710000010444060842724081579_);" d="M1452.442,1786.942H984.263
						c-63.447,0-115.501-48.633-115.501-108.624v-91.993c0-59.992,52.054-106.963,115.501-104.939l468.179,14.936
						c56.664,1.808,102.084,48.449,102.084,104.196v85.485C1554.526,1741.75,1509.106,1786.942,1452.442,1786.942z"/>
					<g>
						<g>
							<path style="fill:#FFFFFF;" d="M1134.267,1627.439c0,40.064-34.106,72.112-76.519,71.576
								c-42.796-0.54-77.772-33.992-77.772-74.712c0-40.72,34.976-72.75,77.772-71.551
								C1100.161,1553.941,1134.267,1587.375,1134.267,1627.439z"/>
							<path style="fill:#FFFFFF;" d="M1450.659,1633.87c0,38.719-31.85,69.705-71.448,69.205
								c-39.942-0.505-72.578-32.801-72.578-72.132c0-39.332,32.636-70.301,72.578-69.182
								C1418.809,1562.871,1450.659,1595.151,1450.659,1633.87z"/>
						</g>
					</g>
				</g>
				<path style="opacity:0.3;fill:#FFFFFF;" d="M1275.63,1821.435c-69.629-81.811-38.688-147.238-129.718-258.104
					c-125.25-152.546-271.365-135.284-304.833-238.747c-9.274-28.669-10.339-68.019,14.536-122.414
					c-190.771,55.027-330.307,230.908-330.307,439.396v0.004c0,134.76,109.244,244.004,244.003,244.004h586.367
					C1320.557,1866.428,1294.89,1844.065,1275.63,1821.435z"/>
				
					<linearGradient id="SVGID_00000141437846317077401040000005014583436442028932_" gradientUnits="userSpaceOnUse" x1="460.2511" y1="1628.6296" x2="721.9733" y2="1628.6296">
					<stop  offset="0" style="stop-color:#FFC444"/>
					<stop  offset="0.9964" style="stop-color:#F36F56"/>
				</linearGradient>
				
					<ellipse style="fill:url(#SVGID_00000141437846317077401040000005014583436442028932_);" cx="591.112" cy="1628.63" rx="130.861" ry="183.899"/>
				
					<linearGradient id="SVGID_00000008146711407220267660000015641406015387865502_" gradientUnits="userSpaceOnUse" x1="430.3689" y1="1628.6299" x2="544.8162" y2="1628.6299">
					<stop  offset="0" style="stop-color:#FFC444"/>
					<stop  offset="0.9964" style="stop-color:#F36F56"/>
				</linearGradient>
				
					<ellipse style="fill:url(#SVGID_00000008146711407220267660000015641406015387865502_);" cx="487.592" cy="1628.63" rx="57.224" ry="80.416"/>
				
					<linearGradient id="SVGID_00000049926637636009338450000005113245041418516356_" gradientUnits="userSpaceOnUse" x1="729.1694" y1="2158.1042" x2="1230.7832" y2="2158.1042">
					<stop  offset="0" style="stop-color:#FCB148"/>
					<stop  offset="0.0521" style="stop-color:#FDBA46"/>
					<stop  offset="0.1424" style="stop-color:#FFC244"/>
					<stop  offset="0.3183" style="stop-color:#FFC444"/>
					<stop  offset="0.4849" style="stop-color:#FDB946"/>
					<stop  offset="0.7754" style="stop-color:#F99C4D"/>
					<stop  offset="0.8658" style="stop-color:#F8924F"/>
					<stop  offset="1" style="stop-color:#F8924F"/>
				</linearGradient>
				<path style="opacity:0.4;fill:url(#SVGID_00000049926637636009338450000005113245041418516356_);" d="M1224.978,2222.269
					c-21.922-102.956-264.417-100.472-271.01-167.768c-5.084-51.878,134.142-103.24,151.637-109.694
					c14.963-5.52,29.813-10.192,44.517-14.188h-262.65c-87.428,0-158.303,70.874-158.303,158.303v0.002
					c0,163.844,132.821,296.666,296.664,296.666h159.792c15.353,0,30.433-1.167,45.158-3.416
					c-13.905-17.236-22.972-36.086-25.165-56.663C1200.758,2279.902,1233.472,2262.164,1224.978,2222.269z"/>
				
					<linearGradient id="SVGID_00000067916587418674129350000009898709342462791590_" gradientUnits="userSpaceOnUse" x1="996.743" y1="2813.1162" x2="1069.3101" y2="2251.6731">
					<stop  offset="0" style="stop-color:#FCB148"/>
					<stop  offset="0.0521" style="stop-color:#FDBA46"/>
					<stop  offset="0.1424" style="stop-color:#FFC244"/>
					<stop  offset="0.3183" style="stop-color:#FFC444"/>
					<stop  offset="0.3975" style="stop-color:#FEC045"/>
					<stop  offset="0.7095" style="stop-color:#FAA34B"/>
					<stop  offset="0.8658" style="stop-color:#F8924F"/>
					<stop  offset="1" style="stop-color:#F8924F"/>
				</linearGradient>
				
					<ellipse style="fill:url(#SVGID_00000067916587418674129350000009898709342462791590_);" cx="1109.667" cy="1939.434" rx="252.363" ry="30.555"/>
			</g>
			<g>
				
					<rect x="845.414" y="1998.294" transform="matrix(0.5473 -0.8369 0.8369 0.5473 -1404.4094 1728.4464)" style="fill:#FFFFFF;" width="100.479" height="328.464"/>
				
					<linearGradient id="SVGID_00000108285246331195017340000004593191754425306512_" gradientUnits="userSpaceOnUse" x1="675.6454" y1="2064.6509" x2="883.4175" y2="2064.6509">
					<stop  offset="0" style="stop-color:#40447E"/>
					<stop  offset="0.9964" style="stop-color:#3C3B6B"/>
				</linearGradient>
				
					<circle style="fill:url(#SVGID_00000108285246331195017340000004593191754425306512_);" cx="779.531" cy="2064.651" r="103.886"/>
				<polygon style="fill:#FFFFFF;" points="1016.827,2194.9 1257.447,2194.9 1247.898,2294.464 1012.053,2286.565 				"/>
				
					<linearGradient id="SVGID_00000027594143457200450760000004865583593298055610_" gradientUnits="userSpaceOnUse" x1="883.15" y1="2223.2808" x2="1053.7477" y2="2223.2808">
					<stop  offset="0" style="stop-color:#40447E"/>
					<stop  offset="0.9964" style="stop-color:#3C3B6B"/>
				</linearGradient>
				
					<circle style="fill:url(#SVGID_00000027594143457200450760000004865583593298055610_);" cx="968.449" cy="2223.281" r="85.299"/>
				
					<linearGradient id="SVGID_00000016771418195457601240000010605484123459069590_" gradientUnits="userSpaceOnUse" x1="1179.1495" y1="2227.1338" x2="1308.9586" y2="2227.1338">
					<stop  offset="0" style="stop-color:#40447E"/>
					<stop  offset="0.9964" style="stop-color:#3C3B6B"/>
				</linearGradient>
				<path style="fill:url(#SVGID_00000016771418195457601240000010605484123459069590_);" d="M1278.431,2192.138
					c-14.582-8.163-35.172-13.909-64.148-12.852c-13.762,0.502-25.132,10.954-26.743,24.629l-8.39,71.191h124.129l4.051-17.011
					C1313.511,2232.132,1301.72,2205.175,1278.431,2192.138z"/>
			</g>
			<g>
				
					<linearGradient id="SVGID_00000010309598034147554870000004561577555344991136_" gradientUnits="userSpaceOnUse" x1="1017.835" y1="2300.5701" x2="1505.9664" y2="2300.5701">
					<stop  offset="0" style="stop-color:#AA80F9"/>
					<stop  offset="0.9964" style="stop-color:#6165D7"/>
				</linearGradient>
				<path style="fill:url(#SVGID_00000010309598034147554870000004561577555344991136_);" d="M1497.612,2276.797l-447.785-7.736
					c-6.162-0.106-11.984,2.818-15.581,7.822l-13.657,19.008c-6.8,9.463-0.254,22.677,11.395,23.001l473.983,13.19
					L1497.612,2276.797z"/>
				
					<linearGradient id="SVGID_00000108992763602284507500000015765424277582129029_" gradientUnits="userSpaceOnUse" x1="1304.1398" y1="2187.6331" x2="1993.2017" y2="2187.6331">
					<stop  offset="0" style="stop-color:#AA80F9"/>
					<stop  offset="0.9964" style="stop-color:#6165D7"/>
				</linearGradient>
				<path style="fill:url(#SVGID_00000108992763602284507500000015765424277582129029_);" d="M1978.261,2058.875l-461.722-21.496
					c-13.662-0.637-26.647,5.971-34.173,17.391l-178.226,270.41l488.293,12.736c13.402,0.35,26.077-6.084,33.706-17.109
					l164.259-237.402C1997.392,2073.298,1990.537,2059.446,1978.261,2058.875z"/>
				
					<linearGradient id="SVGID_00000031181642402851098850000001987576266234359428_" gradientUnits="userSpaceOnUse" x1="1304.1398" y1="2187.6335" x2="1836.9562" y2="2187.6335">
					<stop  offset="0" style="stop-color:#AA80F9"/>
					<stop  offset="0.9964" style="stop-color:#6165D7"/>
				</linearGradient>
				<path style="opacity:0.3;fill:url(#SVGID_00000031181642402851098850000001987576266234359428_);" d="M1482.364,2054.771
					c7.528-11.421,20.513-18.029,34.175-17.392l10.117,0.471c0.525,14.987,4.194,28.904,12.577,40.498
					c26.168,36.199,74.807,18.146,107.621,56.791c36.046,42.452-2.821,87.591,29.311,127.009
					c33.819,41.487,94.778,13.549,160.792,43.026l-10.818,15.633c-7.628,11.026-20.303,17.46-33.705,17.111l-488.294-12.737
					L1482.364,2054.771z"/>
			</g>
		</g>
		<g>
			
				<linearGradient id="SVGID_00000089555436458348087030000001111010145412416698_" gradientUnits="userSpaceOnUse" x1="-40.2584" y1="2321.5698" x2="9.0916" y2="2321.5698" gradientTransform="matrix(-1 0 0 1 2068.189 0)">
				<stop  offset="0" style="stop-color:#FFC444"/>
				<stop  offset="0.9964" style="stop-color:#F36F56"/>
			</linearGradient>
			<path style="fill:url(#SVGID_00000089555436458348087030000001111010145412416698_);" d="M2107.828,2336.99
				c0,0-10.474-21.563-17.661-24.438s-32.448-27.724-31.01-16.224c1.438,11.5,18.688,19.099,14.992,25.671
				s11.911,24.849,24.849,27.519C2111.935,2352.187,2107.828,2336.99,2107.828,2336.99z"/>
			
				<linearGradient id="SVGID_00000084506634006048496610000001507534071044550018_" gradientUnits="userSpaceOnUse" x1="7984.0298" y1="3099.863" x2="7998.9258" y2="3367.9993" gradientTransform="matrix(1 0 0 1 -5583.7803 0)">
				<stop  offset="0" style="stop-color:#444B8C"/>
				<stop  offset="0.9964" style="stop-color:#26264F"/>
			</linearGradient>
			<path style="fill:url(#SVGID_00000084506634006048496610000001507534071044550018_);" d="M2437.564,3195.208
				c0,0,1.863,14.823,0.613,19.788c-1.252,4.966-44.347,8.554-58.976,6.828c-14.628-1.726,8.714-16.668,18.034-19.472
				C2406.554,3199.548,2437.564,3195.208,2437.564,3195.208z"/>
			
				<linearGradient id="SVGID_00000106853028896930673350000018211129369599228088_" gradientUnits="userSpaceOnUse" x1="8012.1631" y1="3232.0046" x2="8004.25" y2="2869.9814" gradientTransform="matrix(1 0 0 1 -5583.7803 0)">
				<stop  offset="0" style="stop-color:#FFC444"/>
				<stop  offset="0.9964" style="stop-color:#F36F56"/>
			</linearGradient>
			<path style="fill:url(#SVGID_00000106853028896930673350000018211129369599228088_);" d="M2415.871,3170.482l4.542,29.738
				c0,0,11.583,5.206,17.151,0.061l0.613-31.127L2415.871,3170.482z"/>
			
				<linearGradient id="SVGID_00000174593538540710117890000014858243822976353695_" gradientUnits="userSpaceOnUse" x1="8253.6455" y1="3084.8892" x2="8268.541" y2="3353.0139" gradientTransform="matrix(1 0 0 1 -5583.7803 0)">
				<stop  offset="0" style="stop-color:#444B8C"/>
				<stop  offset="0.9964" style="stop-color:#26264F"/>
			</linearGradient>
			<path style="fill:url(#SVGID_00000174593538540710117890000014858243822976353695_);" d="M2658.813,3169.154
				c0,0-9.145,6.785-6.707,14.911c2.437,8.127,23.774,40.688,38.98,49.93c15.205,9.242,10.439-10.012,6.015-22.004
				c-4.425-11.993-15.733-38.409-20.146-42.837C2672.541,3164.726,2658.813,3169.154,2658.813,3169.154z"/>
			
				<linearGradient id="SVGID_00000178894130244142648000000003666130080157418405_" gradientUnits="userSpaceOnUse" x1="8249.5391" y1="3226.8162" x2="8241.626" y2="2864.793" gradientTransform="matrix(1 0 0 1 -5583.7803 0)">
				<stop  offset="0" style="stop-color:#FFC444"/>
				<stop  offset="0.9964" style="stop-color:#F36F56"/>
			</linearGradient>
			<path style="fill:url(#SVGID_00000178894130244142648000000003666130080157418405_);" d="M2642.364,3136.483
				c4.42,12.321,8.672,22.451,11.998,29.922c7.357,16.531,11.379,22.734,15.932,28.11c3.973,4.684,13.375,14.678,15.901,13.014
				c2.568-1.687-4.313-13.838-17.57-49.425c-1.927-5.163-8.007-21.621-8.007-21.621l0,0H2642.364z"/>
			
				<linearGradient id="SVGID_00000137841267425849977220000000267620486767751859_" gradientUnits="userSpaceOnUse" x1="7897.2236" y1="2996.7063" x2="8047.5732" y2="2794.9211" gradientTransform="matrix(1 0 0 1 -5583.7803 0)">
				<stop  offset="0" style="stop-color:#311944"/>
				<stop  offset="1" style="stop-color:#6B3976"/>
			</linearGradient>
			<path style="fill:url(#SVGID_00000137841267425849977220000000267620486767751859_);" d="M2325.62,2621.643
				c-3.154,30.97-6.18,79.038-1.656,137.375c5.896,76.006,21.095,124.102,40.154,205.144
				c11.649,49.526,27.344,122.42,41.547,213.585c3.296,1.886,12.991,6.846,25.474,4.995c6.988-1.039,12.216-3.816,15.303-5.815
				c37.266-113.872,26.26-184.439,8.275-228.404c-7.665-18.74-16.959-33.524-21.927-62.332
				c-6.575-38.113,1.554-59.419,13.145-147.703c8.261-62.924,6.831-72.652,1.334-82.088
				C2425.297,2618.67,2358.089,2619.407,2325.62,2621.643z"/>
			
				<linearGradient id="SVGID_00000022526843921747711000000011565215283131126921_" gradientUnits="userSpaceOnUse" x1="8008.9102" y1="3021.7485" x2="8361.0459" y2="2693.3528" gradientTransform="matrix(1 0 0 1 -5583.7803 0)">
				<stop  offset="0" style="stop-color:#311944"/>
				<stop  offset="1" style="stop-color:#6B3976"/>
			</linearGradient>
			<path style="fill:url(#SVGID_00000022526843921747711000000011565215283131126921_);" d="M2453.89,2634.886
				c22.829,117.896,45.236,179.817,62.191,214.84c4.182,8.636,18.134,36.503,31.322,76.454
				c11.676,35.362,16.542,61.375,19.034,72.825c7.871,36.139,27.322,88.905,79.663,158.113c0.652,0.385,9.577,5.432,18.109,0.932
				c4.318-2.279,6.471-5.91,7.327-7.603c-6.844-66.169-14.698-121.772-21.516-164.685c-1.432-9.001-7.732-48.378-17.612-100.404
				c-3.866-20.359-9.531-50.19-16.319-80.83c-8.449-38.156-21.408-90.065-41.377-152.266
				C2534.439,2646.47,2494.164,2640.68,2453.89,2634.886z"/>
			
				<linearGradient id="SVGID_00000130638356598426624330000010605533191330377123_" gradientUnits="userSpaceOnUse" x1="7712.8145" y1="2301.4495" x2="8101.6592" y2="2266.3987" gradientTransform="matrix(1 0 0 1 -5583.7803 0)">
				<stop  offset="0" style="stop-color:#FF9085"/>
				<stop  offset="1" style="stop-color:#FB6FBB"/>
			</linearGradient>
			<path style="fill:url(#SVGID_00000130638356598426624330000010605533191330377123_);" d="M2091.081,2346.659
				c5.154-6.041,10.308-12.081,15.462-18.121c2.453,1.876,38.08,28.147,80.663,12.783c29.319-10.58,43.301-37.8,52.266-55.18
				c26.925-52.203,2.041-84.318,33.65-121.636c8.779-10.363,26.932-23.954,40.244-22.422c31.72,3.648,62.121,93.304,42.524,169.857
				c-3.955,15.451-25.736,100.531-99.255,119.614C2197.276,2446.963,2127.4,2413.321,2091.081,2346.659z"/>
			
				<linearGradient id="SVGID_00000028285088946517213600000005972265457714915974_" gradientUnits="userSpaceOnUse" x1="8450.3105" y1="2571.3059" x2="8105.2974" y2="2273.1155" gradientTransform="matrix(1 0 0 1 -5583.7803 0)">
				<stop  offset="0" style="stop-color:#311944"/>
				<stop  offset="1" style="stop-color:#6B3976"/>
			</linearGradient>
			<path style="fill:url(#SVGID_00000028285088946517213600000005972265457714915974_);" d="M2434.443,2168.559
				c-12.947-11.968-37.717-25.764-50.139-57.835c-3.74-9.653-16.988-43.858,2.555-70.022c11.6-15.532,33.146-26.078,52.136-22.344
				c16.228,3.19,18.766,14.493,46.342,37.241c10.733,8.854,27.987,23.085,47.189,30.997c32.898,13.558,52.663,0.801,85.691,2.256
				c40.575,1.789,87.711,24.433,110.419,57.362c40.308,58.445-18.08,117.732,26.068,186.199
				c14.467,22.43,21.596,17.402,55.86,60.825c34.309,43.479,51.464,65.217,48.413,91.858c-4.238,36.973-44.062,72.292-81.563,74.691
				c-36.632,2.347-59.92-26.474-78.569-13.866c-13.275,8.969-5.685,26.421-19.783,47.392
				c-18.173,27.039-53.894,32.427-59.662,33.293c-53.546,8.078-125.743-54.71-156.408-129.097
				C2407.699,2363.37,2504.829,2233.622,2434.443,2168.559z"/>
			
				<linearGradient id="SVGID_00000104691247013550145450000016198114167082114459_" gradientUnits="userSpaceOnUse" x1="7916.4023" y1="3010.9961" x2="8066.752" y2="2809.2112" gradientTransform="matrix(1 0 0 1 -5583.7803 0)">
				<stop  offset="0" style="stop-color:#311944"/>
				<stop  offset="1" style="stop-color:#6B3976"/>
			</linearGradient>
			<path style="opacity:0.3;fill:url(#SVGID_00000104691247013550145450000016198114167082114459_);" d="M2454.718,2948.524
				c-7.665-18.74-16.959-33.526-21.927-62.332c-6.575-38.113,1.554-59.419,13.145-147.703c8.261-62.924,6.831-72.652,1.334-82.088
				c-11.94-20.503-37.246-29.601-63.07-33.317c0.345,1.324,0.693,2.651,0.973,3.932c13.55,61.88-38.163,99.637-14.837,167.659
				c11.501,33.537,29.85,41.219,34.125,80.121c4.005,36.441-10.521,44.032-7.417,77.153c4.637,49.51,39.809,61.493,48.962,99.408
				c5.947,24.638,0.939,60.662-42.496,112.807c0.721,4.493,1.442,9,2.156,13.584c3.297,1.886,12.991,6.846,25.474,4.995
				c6.988-1.039,12.216-3.816,15.303-5.815C2483.708,3063.055,2472.702,2992.489,2454.718,2948.524z"/>
			
				<linearGradient id="SVGID_00000013151162131562679930000006670149312612096403_" gradientUnits="userSpaceOnUse" x1="7907.8257" y1="3369.9585" x2="8190.2764" y2="3369.9585" gradientTransform="matrix(0.9905 -0.1373 0.1373 0.9905 -6204.0181 96.6064)">
				<stop  offset="0" style="stop-color:#FF9085"/>
				<stop  offset="1" style="stop-color:#FB6FBB"/>
			</linearGradient>
			<path style="opacity:0.3;fill:url(#SVGID_00000013151162131562679930000006670149312612096403_);" d="M2318.734,2231.214
				c-49.182,51.281-31.434,134.097-64.798,143.046c-10.191,2.734-10.723-5.296-36.575-9.908c-37.81-6.746-53.16,7.491-79.849,2.083
				c-11.054-2.24-25.861-8.244-41.95-25.027c-1.494,1.75-2.988,3.5-4.48,5.251c36.319,66.662,106.195,100.304,165.554,84.895
				c73.519-19.083,95.299-104.162,99.255-119.614c9.195-35.919,7.382-74.724-0.41-106.174
				C2343.247,2211.254,2330.237,2219.219,2318.734,2231.214z"/>
			
				<linearGradient id="SVGID_00000132797747252485828410000002650617870414972033_" gradientUnits="userSpaceOnUse" x1="7729.5552" y1="2487.1714" x2="8118.3999" y2="2452.1206" gradientTransform="matrix(1 0 0 1 -5583.7803 0)">
				<stop  offset="0" style="stop-color:#FF9085"/>
				<stop  offset="1" style="stop-color:#FB6FBB"/>
			</linearGradient>
			<path style="fill:url(#SVGID_00000132797747252485828410000002650617870414972033_);" d="M2277.958,2159.646
				c3.416-5.309,14.28-20.013,60.379-30.852c16.534-3.888,43.11-9.758,77.034-8.514c5.686,0.209,24.01,1.145,43.759,5.425
				c42.092,9.12,126.001,41.168,128.926,84.824c2.088,31.176-39.48,33.18-62.996,88.37c-17.134,40.209-17.022,90.44,1.669,129.514
				c15.001,31.359,41.539,54.899,61.693,72.783c30.231,26.818,45.888,30.939,56.022,54.966
				c11.037,26.165-0.085,38.923,13.622,56.835c14.72,19.236,31.967,10.294,56.917,29.748c25.558,19.925,16.463,36.324,39.722,58.345
				c33.798,31.992,78.601,21.601,80.687,35.997c1.795,12.383-30.047,29.186-57.101,35.998
				c-53.575,13.494-100.306-9.155-114.201-16.137c-38.474-19.329-31.828-31.838-61.162-46.575
				c-49.116-24.671-82.683,2.783-194.552,5.61c-60.581,1.534-91.213,1.878-107.995-18.618
				c-15.327-18.723-7.269-39.258,1.928-127.762c0,0,0-0.002,0-0.01c2.955-29.556,9.144-91.441,9.182-126.706
				c0.022-20.842-7.206-54.895-21.662-123.001c-0.853-4.016-8.676-40.811-14.998-89.963
				C2269.138,2185.66,2269.963,2172.07,2277.958,2159.646z"/>
			<g style="opacity:0.3;">
				
					<linearGradient id="SVGID_00000103264202010914041480000014115276657946813345_" gradientUnits="userSpaceOnUse" x1="8143.4678" y1="2127.4604" x2="8228.668" y2="2648.4919" gradientTransform="matrix(1 0 0 1 -5583.7803 0)">
					<stop  offset="0" style="stop-color:#FF9085"/>
					<stop  offset="1" style="stop-color:#FB6FBB"/>
				</linearGradient>
				<path style="fill:url(#SVGID_00000103264202010914041480000014115276657946813345_);" d="M2754.704,2701.089
					c-23.259-22.02-14.163-38.419-39.722-58.344c-24.95-19.453-42.197-10.512-56.917-29.748
					c-13.707-17.912-2.584-30.67-13.622-56.834c-10.135-24.028-25.791-28.147-56.022-54.968
					c-20.154-17.883-46.692-41.424-61.694-72.782c-26.036-54.419-7.832-112.52-1.668-129.514
					c19.805-54.625,59.797-83.417,74.29-92.854c-1.395-1.503-69.099,58.769-70.859,56.966c-95.48,13.121-85.093,6.307-91.978,22.645
					c-15.916,37.762,9.281,51.637,9.931,160.547c0.309,52.058-5.305,72.613,11.585,94.342c19.318,24.85,41.58,17.16,69.514,49.652
					c21.464,24.963,18.027,40.79,38.069,51.308c21.55,11.307,35.277-1.872,59.583,3.312c40.608,8.659,49.289,55.482,76.134,81.098
					c20.301,19.371,57.833,32.914,131.855,18.377c1.712-2.492,2.54-4.926,2.208-7.206
					C2833.304,2722.691,2788.502,2733.081,2754.704,2701.089z"/>
			</g>
			
				<linearGradient id="SVGID_00000023991649103860219080000008289141899292393391_" gradientUnits="userSpaceOnUse" x1="7999.3428" y1="2139.7651" x2="8091.332" y2="2006.2321" gradientTransform="matrix(1 0 0 1 -5583.7803 0)">
				<stop  offset="0" style="stop-color:#FFC444"/>
				<stop  offset="0.9964" style="stop-color:#F36F56"/>
			</linearGradient>
			<path style="fill:url(#SVGID_00000023991649103860219080000008289141899292393391_);" d="M2428.139,2066.683
				c0,0,4.815,38.495,19.022,47.315c14.209,8.815,37.178,20.336,39.708,23.465c2.531,3.123-88.016,12.859-132.888-9.785l0,0
				c14.787-3.083,18.807-4.218,18.807-4.218c4.014-1.135,11.5-3.244,19.005-7.522c5.108-2.908,13.343-8.591,20.895-19.323
				l-0.165-21.315L2428.139,2066.683z"/>
			
				<linearGradient id="SVGID_00000076599898543284804580000006235800881469665699_" gradientUnits="userSpaceOnUse" x1="7446.958" y1="5161.083" x2="7592.3647" y2="5073.542" gradientTransform="matrix(0.8182 -0.5749 0.5749 0.8182 -6654.4321 2143.5503)">
				<stop  offset="0" style="stop-color:#FFC444"/>
				<stop  offset="0.9964" style="stop-color:#F36F56"/>
			</linearGradient>
			<path style="fill:url(#SVGID_00000076599898543284804580000006235800881469665699_);" d="M2429.419,2078.604
				c0,0-0.271,15.729-15.204,19.745c-13.372,3.596-26.333-28.357-20.094-37.425c2.082-3.023,7.578-6.195,12.549-6.466
				c3.497-0.192,15.656,3.312,18.284,14.964c2.142-2.668,5.005-3.624,6.533-2.708c1.939,1.159,1.278,5.06,1.129,5.942
				C2432.098,2075.72,2430.296,2077.741,2429.419,2078.604z"/>
			<g>
				<g>
					<g>
						
							<linearGradient id="SVGID_00000039852740786058802230000018429363538649712014_" gradientUnits="userSpaceOnUse" x1="2519.6848" y1="2729.5288" x2="2526.7727" y2="2729.5288">
							<stop  offset="0" style="stop-color:#444B8C"/>
							<stop  offset="0.9964" style="stop-color:#26264F"/>
						</linearGradient>
						<path style="fill:url(#SVGID_00000039852740786058802230000018429363538649712014_);" d="M2526.773,2738.389
							c0,1.957-1.587,3.544-3.544,3.544l0,0c-1.957,0-3.544-1.587-3.544-3.544v-17.719c0-1.957,1.587-3.544,3.544-3.544l0,0
							c1.957,0,3.544,1.586,3.544,3.544V2738.389z"/>
						
							<linearGradient id="SVGID_00000036944640432057468690000017580443176946285460_" gradientUnits="userSpaceOnUse" x1="2618.9131" y1="2729.5288" x2="2626.0007" y2="2729.5288">
							<stop  offset="0" style="stop-color:#444B8C"/>
							<stop  offset="0.9964" style="stop-color:#26264F"/>
						</linearGradient>
						<path style="fill:url(#SVGID_00000036944640432057468690000017580443176946285460_);" d="M2626.001,2738.389
							c0,1.957-1.586,3.544-3.544,3.544l0,0c-1.957,0-3.544-1.587-3.544-3.544v-17.719c0-1.957,1.587-3.544,3.544-3.544l0,0
							c1.957,0,3.544,1.586,3.544,3.544V2738.389z"/>
					</g>
					
						<linearGradient id="SVGID_00000157297441178990554340000000456020825993432454_" gradientUnits="userSpaceOnUse" x1="2505.5095" y1="2713.5815" x2="2640.1763" y2="2713.5815">
						<stop  offset="0" style="stop-color:#444B8C"/>
						<stop  offset="0.9964" style="stop-color:#26264F"/>
					</linearGradient>
					<path style="fill:url(#SVGID_00000157297441178990554340000000456020825993432454_);" d="M2640.176,2713.582
						c0,3.915-3.173,7.088-7.088,7.088h-120.491c-3.915,0-7.088-3.173-7.088-7.088l0,0c0-3.915,3.173-7.088,7.088-7.088h120.491
						C2637.003,2706.494,2640.176,2709.667,2640.176,2713.582L2640.176,2713.582z"/>
				</g>
				<g>
					
						<linearGradient id="SVGID_00000139984355851618722500000008260852149265674646_" gradientUnits="userSpaceOnUse" x1="2455.8953" y1="2656.8796" x2="2473.6147" y2="2656.8796">
						<stop  offset="0" style="stop-color:#444B8C"/>
						<stop  offset="0.9964" style="stop-color:#26264F"/>
					</linearGradient>
					<path style="fill:url(#SVGID_00000139984355851618722500000008260852149265674646_);" d="M2473.615,2772.952
						c0,4.398-3.565,7.962-7.963,7.962h-1.794c-4.398,0-7.963-3.565-7.963-7.962v-232.146c0-4.397,3.565-7.962,7.963-7.962h1.794
						c4.398,0,7.963,3.565,7.963,7.962V2772.952z"/>
					
						<linearGradient id="SVGID_00000116938373292294325980000012523426368582075012_" gradientUnits="userSpaceOnUse" x1="2672.071" y1="2656.8796" x2="2689.7903" y2="2656.8796">
						<stop  offset="0" style="stop-color:#444B8C"/>
						<stop  offset="0.9964" style="stop-color:#26264F"/>
					</linearGradient>
					<path style="fill:url(#SVGID_00000116938373292294325980000012523426368582075012_);" d="M2689.79,2772.952
						c0,4.398-3.565,7.962-7.962,7.962h-1.794c-4.398,0-7.963-3.565-7.963-7.962v-232.146c0-4.397,3.565-7.962,7.963-7.962h1.794
						c4.397,0,7.962,3.565,7.962,7.962V2772.952z"/>
				</g>
				
					<linearGradient id="SVGID_00000122721976900572609400000012987841084694502810_" gradientUnits="userSpaceOnUse" x1="2443.5559" y1="2527.5286" x2="2703.2571" y2="2527.5286">
					<stop  offset="0" style="stop-color:#444B8C"/>
					<stop  offset="0.9964" style="stop-color:#26264F"/>
				</linearGradient>
				<path style="fill:url(#SVGID_00000122721976900572609400000012987841084694502810_);" d="M2703.257,2527.529
					c0,8.795-8.775,15.948-19.6,15.948h-220.501c-10.825,0-19.6-7.152-19.6-15.948l0,0c0-8.795,8.775-15.947,19.6-15.947h220.501
					C2694.482,2511.581,2703.257,2518.733,2703.257,2527.529L2703.257,2527.529z"/>
				<g>
					<g>
						
							<linearGradient id="SVGID_00000083784826158507377660000005825527761245539739_" gradientUnits="userSpaceOnUse" x1="2677.0073" y1="3228.0283" x2="2706.0188" y2="3228.0283">
							<stop  offset="0" style="stop-color:#444B8C"/>
							<stop  offset="0.9964" style="stop-color:#26264F"/>
						</linearGradient>
						<path style="fill:url(#SVGID_00000083784826158507377660000005825527761245539739_);" d="M2706.019,3239.172
							c0,7.865-6.376,14.241-14.241,14.241h-0.529c-7.865,0-14.241-6.376-14.241-14.241v-22.287c0-7.865,6.376-14.241,14.241-14.241
							h0.529c7.865,0,14.241,6.376,14.241,14.241V3239.172z"/>
						
							<linearGradient id="SVGID_00000067940761192215255040000014057035028434584241_" gradientUnits="userSpaceOnUse" x1="2679.1587" y1="3197.3191" x2="2703.9658" y2="3197.3191">
							<stop  offset="0" style="stop-color:#AA80F9"/>
							<stop  offset="0.9964" style="stop-color:#6165D7"/>
						</linearGradient>
						<path style="fill:url(#SVGID_00000067940761192215255040000014057035028434584241_);" d="M2703.966,3201.629
							c0,6.427-5.21,11.637-11.637,11.637h-1.532c-6.427,0-11.638-5.21-11.638-11.637v-8.62c0-6.427,5.21-11.638,11.638-11.638
							h1.532c6.427,0,11.637,5.21,11.637,11.638V3201.629z"/>
					</g>
					<g>
						
							<linearGradient id="SVGID_00000144304590211756147220000003088032250899210657_" gradientUnits="userSpaceOnUse" x1="2441.3611" y1="3229.2749" x2="2470.7615" y2="3229.2749">
							<stop  offset="0" style="stop-color:#444B8C"/>
							<stop  offset="0.9964" style="stop-color:#26264F"/>
						</linearGradient>
						<path style="fill:url(#SVGID_00000144304590211756147220000003088032250899210657_);" d="M2470.761,3240.3
							c0,8.119-6.582,14.7-14.7,14.7l0,0c-8.119,0-14.7-6.581-14.7-14.7v-22.05c0-8.119,6.582-14.7,14.7-14.7l0,0
							c8.119,0,14.7,6.581,14.7,14.7V3240.3z"/>
						
							<linearGradient id="SVGID_00000152959087813603361280000005707389675297222802_" gradientUnits="userSpaceOnUse" x1="2441.72" y1="3197.3191" x2="2466.5269" y2="3197.3191">
							<stop  offset="0" style="stop-color:#AA80F9"/>
							<stop  offset="0.9964" style="stop-color:#6165D7"/>
						</linearGradient>
						<path style="fill:url(#SVGID_00000152959087813603361280000005707389675297222802_);" d="M2466.527,3201.629
							c0,6.427-5.21,11.637-11.637,11.637h-1.532c-6.427,0-11.637-5.21-11.637-11.637v-8.62c0-6.427,5.21-11.638,11.637-11.638
							h1.532c6.427,0,11.637,5.21,11.637,11.638V3201.629z"/>
					</g>
				</g>
				
					<linearGradient id="SVGID_00000071520160481645728670000003927632645229055114_" gradientUnits="userSpaceOnUse" x1="2392.1057" y1="2966.9678" x2="2753.5798" y2="2966.9678">
					<stop  offset="0" style="stop-color:#AA80F9"/>
					<stop  offset="0.9964" style="stop-color:#6165D7"/>
				</linearGradient>
				<path style="fill:url(#SVGID_00000071520160481645728670000003927632645229055114_);" d="M2753.58,3169.691
					c0,16.237-13.163,29.4-29.4,29.4h-302.674c-16.237,0-29.4-13.163-29.4-29.4v-405.446c0-16.237,13.163-29.4,29.4-29.4h302.674
					c16.237,0,29.4,13.163,29.4,29.4V3169.691z"/>
				<g>
					<g>
						
							<linearGradient id="SVGID_00000057855199907905650930000007861028164299281290_" gradientUnits="userSpaceOnUse" x1="2427.5444" y1="2968.3486" x2="2477.1584" y2="2968.3486">
							<stop  offset="0" style="stop-color:#AA80F9"/>
							<stop  offset="0.9964" style="stop-color:#6165D7"/>
						</linearGradient>
						<path style="opacity:0.6;fill:url(#SVGID_00000057855199907905650930000007861028164299281290_);" d="M2477.158,2815.223
							v306.251c0,10.29-7.54,19.012-16.801,22.075c-2.303,0.784-5.216,1.2-7.788,1.2c-0.416,0-1.028,0-1.444-0.024
							c-5.929-0.319-12.059-2.842-16.004-6.787c-4.214-4.214-7.577-10.045-7.577-16.464v-306.251
							c0-12.446,10.407-22.614,22.706-23.25c0.416-0.024,1.137-0.024,1.553-0.024c2.572,0,5.211,0.416,7.514,1.2
							c3.479,1.127,7.549,3.087,10.072,5.611C2473.603,2802.973,2477.158,2808.804,2477.158,2815.223z"/>
						
							<linearGradient id="SVGID_00000075123783342550826650000008333471087629062288_" gradientUnits="userSpaceOnUse" x1="2448.8076" y1="2968.3486" x2="2477.1584" y2="2968.3486">
							<stop  offset="0" style="stop-color:#AA80F9"/>
							<stop  offset="0.9964" style="stop-color:#6165D7"/>
						</linearGradient>
						<path style="opacity:0.6;fill:url(#SVGID_00000075123783342550826650000008333471087629062288_);" d="M2477.158,2815.223
							v306.251c0,10.29-7.54,19.012-16.801,22.075c-2.303,0.784-6.265,1.2-8.837,1.2c-0.417,0-2.712,0-2.712-0.024v-352.753
							c0-0.024,1.858-0.024,2.274-0.024c2.572,0,5.572,0.416,7.875,1.2c3.479,1.127,7.729,3.087,10.252,5.611
							C2473.423,2802.973,2477.158,2808.804,2477.158,2815.223z"/>
					</g>
					<g>
						
							<linearGradient id="SVGID_00000160875025291946192700000012548586333394812555_" gradientUnits="userSpaceOnUse" x1="2509.0532" y1="2968.3486" x2="2558.6675" y2="2968.3486">
							<stop  offset="0" style="stop-color:#AA80F9"/>
							<stop  offset="0.9964" style="stop-color:#6165D7"/>
						</linearGradient>
						<path style="opacity:0.6;fill:url(#SVGID_00000160875025291946192700000012548586333394812555_);" d="M2558.667,2815.223
							v306.251c0,10.29-7.869,19.012-17.131,22.075c-2.303,0.784-5.381,1.2-7.953,1.2c-0.416,0-1.11,0-1.526-0.024
							c-5.929-0.319-11.771-2.842-15.716-6.787c-4.215-4.214-7.289-10.045-7.289-16.464v-306.251
							c0-12.446,10.078-22.614,22.377-23.25c0.416-0.024,0.972-0.024,1.388-0.024c2.572,0,5.129,0.416,7.432,1.2
							c3.479,1.127,7.837,3.087,10.36,5.611C2554.824,2802.973,2558.667,2808.804,2558.667,2815.223z"/>
						
							<linearGradient id="SVGID_00000081641891348357429130000009415973088674985150_" gradientUnits="userSpaceOnUse" x1="2530.3164" y1="2968.3486" x2="2558.6675" y2="2968.3486">
							<stop  offset="0" style="stop-color:#AA80F9"/>
							<stop  offset="0.9964" style="stop-color:#6165D7"/>
						</linearGradient>
						<path style="opacity:0.6;fill:url(#SVGID_00000081641891348357429130000009415973088674985150_);" d="M2558.667,2815.223
							v306.251c0,10.29-7.869,19.012-17.131,22.075c-2.303,0.784-6.101,1.2-8.673,1.2c-0.416,0-2.548,0-2.548-0.024v-352.753
							c0-0.024,1.529-0.024,1.945-0.024c2.572,0,5.407,0.416,7.71,1.2c3.479,1.127,7.976,3.087,10.499,5.611
							C2554.685,2802.973,2558.667,2808.804,2558.667,2815.223z"/>
					</g>
					<g>
						
							<linearGradient id="SVGID_00000083067824180140248920000001160238651186090914_" gradientUnits="userSpaceOnUse" x1="2590.5623" y1="2968.3486" x2="2640.1763" y2="2968.3486">
							<stop  offset="0" style="stop-color:#AA80F9"/>
							<stop  offset="0.9964" style="stop-color:#6165D7"/>
						</linearGradient>
						<path style="opacity:0.6;fill:url(#SVGID_00000083067824180140248920000001160238651186090914_);" d="M2640.176,2815.223
							v306.251c0,10.29-8.198,19.012-17.46,22.075c-2.303,0.784-5.545,1.2-8.117,1.2c-0.416,0-1.192,0-1.609-0.024
							c-5.929-0.319-11.483-2.842-15.427-6.787c-4.215-4.214-7.001-10.045-7.001-16.464v-306.251
							c0-12.446,9.748-22.614,22.047-23.25c0.416-0.024,0.807-0.024,1.224-0.024c2.572,0,5.046,0.416,7.349,1.2
							c3.479,1.127,8.125,3.087,10.647,5.611C2636.045,2802.973,2640.176,2808.804,2640.176,2815.223z"/>
						
							<linearGradient id="SVGID_00000086673838926372922720000011301638904476381569_" gradientUnits="userSpaceOnUse" x1="2608.2815" y1="2968.3486" x2="2640.1763" y2="2968.3486">
							<stop  offset="0" style="stop-color:#AA80F9"/>
							<stop  offset="0.9964" style="stop-color:#6165D7"/>
						</linearGradient>
						<path style="opacity:0.6;fill:url(#SVGID_00000086673838926372922720000011301638904476381569_);" d="M2640.176,2815.223
							v306.251c0,10.29-8.198,19.012-17.46,22.075c-2.303,0.784-7.708,1.2-10.28,1.2c-0.416,0-0.611,0-4.155-0.024v-352.753
							c3.544-0.024,2.971-0.024,3.388-0.024c2.572,0,6.128,0.416,8.431,1.2c3.479,1.127,8.666,3.087,11.189,5.611
							C2635.504,2802.973,2640.176,2808.804,2640.176,2815.223z"/>
					</g>
					<g>
						
							<linearGradient id="SVGID_00000042015708886807184600000015370734801549370515_" gradientUnits="userSpaceOnUse" x1="2672.071" y1="2968.3486" x2="2718.1414" y2="2968.3486">
							<stop  offset="0" style="stop-color:#AA80F9"/>
							<stop  offset="0.9964" style="stop-color:#6165D7"/>
						</linearGradient>
						<path style="opacity:0.6;fill:url(#SVGID_00000042015708886807184600000015370734801549370515_);" d="M2718.141,2815.223
							v306.251c0,10.29-6.755,19.012-16.017,22.075c-2.303,0.784-4.824,1.2-7.396,1.2c-0.416,0-0.832,0-1.248-0.024
							c-5.929-0.319-10.974-2.842-14.918-6.787c-4.215-4.214-6.491-10.045-6.491-16.464v-306.251
							c0-12.446,9.419-22.614,21.718-23.25c0.416-0.024,0.643-0.024,1.059-0.024c2.572,0,4.964,0.416,7.267,1.2
							c3.479,1.127,6.641,3.087,9.164,5.611C2715.494,2802.973,2718.141,2808.804,2718.141,2815.223z"/>
						
							<linearGradient id="SVGID_00000101801663997797074410000000428875127379521945_" gradientUnits="userSpaceOnUse" x1="2693.3342" y1="2968.3486" x2="2718.1414" y2="2968.3486">
							<stop  offset="0" style="stop-color:#AA80F9"/>
							<stop  offset="0.9964" style="stop-color:#6165D7"/>
						</linearGradient>
						<path style="opacity:0.6;fill:url(#SVGID_00000101801663997797074410000000428875127379521945_);" d="M2718.141,2815.223
							v306.251c0,10.29-6.755,19.012-16.017,22.075c-2.303,0.784-4.885,1.2-7.458,1.2c-0.416,0-1.333,0-1.333-0.024v-352.753
							c0-0.024,0.87-0.024,1.286-0.024c2.572,0,5.078,0.416,7.381,1.2c3.479,1.127,6.698,3.087,9.221,5.611
							C2715.437,2802.973,2718.141,2808.804,2718.141,2815.223z"/>
					</g>
				</g>
			</g>
			
				<linearGradient id="SVGID_00000016041335559127704480000009148777619008886165_" gradientUnits="userSpaceOnUse" x1="8148.0469" y1="2476.5476" x2="8140.3794" y2="2164.377" gradientTransform="matrix(1 0 0 1 -5583.7803 0)">
				<stop  offset="0" style="stop-color:#FF9085"/>
				<stop  offset="1" style="stop-color:#FB6FBB"/>
			</linearGradient>
			<path style="fill:url(#SVGID_00000016041335559127704480000009148777619008886165_);" d="M2524.984,2148.406
				c28.741,14.237,119.106,56.955,138.822,180.18c19.716,123.225-85.436,187.302-85.436,187.302l-24.645-16.43
				c0,0,26.288-192.231-67.363-246.45C2392.71,2198.789,2524.984,2148.406,2524.984,2148.406z"/>
			
				<linearGradient id="SVGID_00000026132084029530592790000009490034969057191832_" gradientUnits="userSpaceOnUse" x1="8104.5977" y1="2500.1831" x2="8184.2832" y2="2558.5095" gradientTransform="matrix(1 0 0 1 -5583.7803 0)">
				<stop  offset="0" style="stop-color:#FFC444"/>
				<stop  offset="0.9964" style="stop-color:#F36F56"/>
			</linearGradient>
			<path style="fill:url(#SVGID_00000026132084029530592790000009490034969057191832_);" d="M2559.552,2503.344
				c-5.827,1.045-9.113,5.973-22.257-0.599c-13.144-6.572-46.004,1.643-46.004,1.643s16.43,14.787,34.503,11.501
				c18.073-3.286,34.838,5.633,39.6,6.924c4.761,1.291,6.4-11.308,6.4-11.308L2559.552,2503.344z"/>
		</g>
		<g>
			
				<linearGradient id="SVGID_00000133487857941731849400000011243886940529365908_" gradientUnits="userSpaceOnUse" x1="3590.9536" y1="1396.3778" x2="3186.0999" y2="1159.0889" gradientTransform="matrix(0.985 0.1724 -0.1724 0.985 -290.7817 -493.118)">
				<stop  offset="0" style="stop-color:#311944"/>
				<stop  offset="1" style="stop-color:#6B3976"/>
			</linearGradient>
			<path style="fill:url(#SVGID_00000133487857941731849400000011243886940529365908_);" d="M2841.021,1421.147
				c23.224,17.402,57.325,11.125,76.168-14.021c18.843-25.146,15.292-59.639-7.932-77.041c-1.203-0.902-2.451-1.701-3.709-2.477
				c7.409-14.443,13.673-29.209,18.762-44.187c1.462,0.251,2.932,0.484,4.445,0.612c29.533,2.497,57.29-20.184,61.998-50.664
				c4.707-30.479-15.419-57.212-44.953-59.709c-1.545-0.13-3.079-0.151-4.609-0.147c-0.403-15.583-1.991-31.015-4.752-46.164
				c1.475-0.548,2.947-1.124,4.407-1.807c27.93-13.076,41.906-46.086,31.216-73.73c-10.69-27.644-42-39.453-69.929-26.378
				c-1.432,0.671-2.8,1.426-4.156,2.197c-7.926-12.583-16.941-24.536-26.994-35.765c1.055-1.201,2.096-2.422,3.072-3.724
				c18.843-25.147,42.431-52.089,18.937-69.125c-54.347-39.41-84.194-19.04-103.038,6.106c-0.975,1.303-1.855,2.645-2.712,3.995
				c-13.6-6.495-27.604-11.791-41.906-15.865c0.36-1.518,0.699-3.043,0.942-4.606c4.706-30.478,16.594-45.337-12.496-51.013
				c-63.437-12.379-89.749,11.49-94.456,41.968c-0.246,1.593-0.385,3.169-0.498,4.738c-15.314,1.604-30.571,4.413-45.64,8.403
				c-0.426-1.471-0.878-2.938-1.436-4.383c-10.69-27.644-41.999-39.453-69.93-26.376c-27.931,13.077-41.906,46.086-31.216,73.73
				c0.548,1.417,1.184,2.762,1.836,4.094c-12.946,9.091-25.359,19.25-37.139,30.415c-1.098-0.989-2.216-1.964-3.419-2.865
				c-23.223-17.402-57.325-11.125-76.168,14.021c-18.843,25.146-15.292,59.639,7.932,77.041c1.203,0.901,2.453,1.701,3.71,2.476
				c-7.408,14.443-13.674,29.209-18.762,44.187c-1.462-0.252-2.932-0.484-4.444-0.613c-29.535-2.496-57.292,20.185-61.999,50.665
				c-4.707,30.479,15.42,57.211,44.953,59.708c1.543,0.13,3.078,0.153,4.608,0.148c0.403,15.584,1.992,31.015,4.752,46.165
				c-1.474,0.549-2.948,1.124-4.406,1.808c-27.93,13.075-41.906,46.086-31.215,73.729c10.69,27.645,58.54,47.993,86.469,34.917
				c1.432-0.67-13.741-9.964-12.385-10.735c7.926,12.583,16.941,24.536,26.993,35.765c-1.054,1.201-2.096,2.422-3.072,3.725
				c-18.843,25.146-15.292,59.639,7.931,77.041c23.224,17.402,57.326,11.124,76.168-14.022c0.976-1.302,1.856-2.645,2.712-3.994
				c13.6,6.495,27.604,11.791,41.906,15.864c-0.359,1.519-0.699,3.043-0.941,4.606c-4.707,30.477,15.419,57.211,44.953,59.708
				c29.534,2.497,57.292-20.186,61.998-50.664c0.245-1.592,0.385-3.168,0.497-4.737c15.316-1.604,30.572-4.413,45.641-8.402
				c0.425,1.471,0.878,2.937,1.437,4.382c10.69,27.644,41.998,39.455,69.929,26.377c27.93-13.076,41.906-46.085,31.216-73.731
				c-0.548-1.415-1.184-2.761-1.836-4.093c12.947-9.091,25.359-19.25,37.14-30.416
				C2838.7,1419.271,2839.818,1420.246,2841.021,1421.147z M2522.576,1369.566c-84.319-63.184-97.212-188.417-28.797-279.718
				c68.416-91.301,192.231-114.094,276.551-50.91c84.319,63.184,97.212,188.418,28.796,279.718
				C2730.711,1409.957,2606.896,1432.75,2522.576,1369.566z"/>
			
				<linearGradient id="SVGID_00000157277323333151030570000015440680214071468958_" gradientUnits="userSpaceOnUse" x1="3100.4243" y1="1117.2191" x2="3190.3916" y2="1157.7043" gradientTransform="matrix(0.985 0.1724 -0.1724 0.985 -290.7817 -493.118)">
				<stop  offset="0" style="stop-color:#311944"/>
				<stop  offset="1" style="stop-color:#6B3976"/>
			</linearGradient>
			<path style="fill:url(#SVGID_00000157277323333151030570000015440680214071468958_);" d="M2928.755,1284.034
				c29.534,2.496,57.29-20.186,61.998-50.665c4.707-30.478-15.419-57.212-44.953-59.709c-1.544-0.131-3.079-0.151-4.609-0.147
				c-0.403-15.584-1.991-31.014-4.752-46.164c1.475-0.547,2.947-1.124,4.407-1.808c27.93-13.076,66.082-49.805,52.612-76.206
				c-25.565-50.107-63.396-36.977-91.326-23.902c-1.432,0.671-2.8,1.425-4.156,2.196c-7.926-12.583-16.941-24.535-26.994-35.765
				c1.055-1.201,2.096-2.422,3.072-3.723c10.255-13.687,13.827-30.129,11.254-45.09c-31.434,38.089-62.575,76.413-93.331,115.041
				c64.359,67.022,69.204,177.749,7.147,260.563c-52.586,70.178-137.891,99.821-212.845,81.117
				c-4.923,8.188-9.792,16.435-14.94,24.496c-13.969,21.878-29.192,43.034-44.425,64.158c6.807,2.559,13.694,4.841,20.653,6.824
				c-0.359,1.52-0.699,3.045-0.941,4.606c-4.707,30.478,9.216,59.511,62.409,65.94c29.425,3.556,39.835-26.416,44.542-56.895
				c0.245-1.592,0.385-3.168,0.498-4.737c15.315-1.604,30.571-4.413,45.64-8.403c0.425,1.471,0.878,2.938,1.437,4.382
				c10.69,27.646,61.1,47.419,89.031,34.342c27.931-13.077,22.803-54.049,12.113-81.695c-0.548-1.416-1.183-2.761-1.835-4.094
				c12.946-9.09,25.359-19.249,37.139-30.415c1.098,0.99,2.216,1.965,3.419,2.864c23.223,17.404,57.325,11.125,76.169-14.021
				c18.842-25.145,15.292-59.639-7.932-77.041c-1.204-0.902-2.452-1.701-3.71-2.476c7.409-14.443,13.673-29.21,18.762-44.186
				C2925.772,1283.673,2927.243,1283.905,2928.755,1284.034z"/>
			
				<linearGradient id="SVGID_00000080182544790402863740000010377649084353977271_" gradientUnits="userSpaceOnUse" x1="3484.8577" y1="1512.0907" x2="2495.2153" y2="258.545" gradientTransform="matrix(0.985 0.1724 -0.1724 0.985 -290.7817 -493.118)">
				<stop  offset="0" style="stop-color:#FF9085"/>
				<stop  offset="1" style="stop-color:#FB6FBB"/>
			</linearGradient>
			<path style="fill:url(#SVGID_00000080182544790402863740000010377649084353977271_);" d="M2867.89,1429.063
				c23.224,17.402,57.325,11.125,76.168-14.022c18.843-25.147,15.292-59.638-7.931-77.041c-1.203-0.902-2.452-1.701-3.71-2.477
				c7.409-14.442,13.673-29.208,18.762-44.187c1.461,0.252,2.932,0.484,4.445,0.612c29.533,2.497,57.29-20.185,61.998-50.664
				c4.708-30.479-15.419-57.212-44.952-59.71c-1.544-0.129-3.079-0.152-4.61-0.148c-0.403-15.583-1.991-31.014-4.752-46.163
				c1.475-0.548,2.947-1.124,4.407-1.808c27.93-13.075,41.906-46.086,31.216-73.73c-10.69-27.644-41.999-39.453-69.929-26.377
				c-1.432,0.671-2.8,1.425-4.156,2.196c-7.926-12.583-16.941-24.536-26.994-35.765c1.055-1.2,2.096-2.422,3.072-3.724
				c18.843-25.146,15.292-59.638-7.931-77.041s-57.325-11.125-76.168,14.022c-0.977,1.302-1.856,2.645-2.713,3.994
				c-13.6-6.495-27.604-11.791-41.905-15.864c0.359-1.519,0.698-3.043,0.941-4.606c4.706-30.478-15.419-57.211-44.954-59.708
				c-29.534-2.498-57.291,20.186-61.997,50.662c-0.246,1.593-0.385,3.168-0.498,4.737c-15.315,1.606-30.571,4.414-45.641,8.403
				c-0.426-1.47-0.877-2.937-1.436-4.383c-10.69-27.643-41.999-39.453-69.929-26.376c-27.931,13.077-41.906,46.086-31.216,73.73
				c0.548,1.416,1.183,2.763,1.835,4.095c-12.946,9.09-25.359,19.249-37.14,30.415c-1.097-0.989-2.215-1.964-3.419-2.866
				c-23.223-17.402-57.325-11.124-76.168,14.022c-18.844,25.146-15.292,59.639,7.931,77.041c1.203,0.902,2.453,1.701,3.71,2.477
				c-7.409,14.442-13.673,29.208-18.762,44.186c-1.462-0.251-2.933-0.484-4.445-0.613c-29.534-2.496-57.291,20.186-61.998,50.665
				c-4.708,30.479,15.42,57.209,44.954,59.708c1.542,0.131,3.077,0.152,4.608,0.148c0.403,15.584,1.992,31.014,4.751,46.164
				c-1.474,0.548-2.947,1.124-4.406,1.808c-27.931,13.075-41.906,46.086-31.215,73.73c10.69,27.644,41.999,39.453,69.928,26.378
				c1.431-0.671,2.8-1.425,4.156-2.197c7.926,12.583,16.941,24.536,26.993,35.765c-1.054,1.201-2.096,2.422-3.072,3.725
				c-18.843,25.146-15.292,59.639,7.931,77.041c23.223,17.402,57.325,11.125,76.168-14.022c0.977-1.302,1.856-2.645,2.712-3.994
				c13.6,6.495,27.604,11.791,41.906,15.864c-0.359,1.519-0.699,3.044-0.941,4.606c-4.707,30.477,15.419,57.21,44.953,59.708
				c29.534,2.498,57.291-20.186,61.998-50.663c0.247-1.593,0.385-3.168,0.497-4.738c15.315-1.604,30.572-4.413,45.641-8.403
				c0.426,1.47,0.878,2.938,1.437,4.381c10.69,27.644,41.998,39.455,69.928,26.378c27.931-13.077,41.906-46.086,31.217-73.731
				c-0.549-1.415-1.184-2.761-1.836-4.093c12.947-9.09,25.359-19.249,37.14-30.415
				C2865.569,1427.187,2866.687,1428.161,2867.89,1429.063z M2549.445,1377.481c-84.319-63.184-97.212-188.418-28.797-279.719
				c68.416-91.3,192.231-114.093,276.55-50.909c84.319,63.184,97.212,188.418,28.797,279.719
				C2757.58,1417.873,2633.765,1440.665,2549.445,1377.481z"/>
		</g>
		<g>
			<g>
				
					<linearGradient id="SVGID_00000169532023980218322910000013001957264144521602_" gradientUnits="userSpaceOnUse" x1="893.3622" y1="2187.5874" x2="587.2571" y2="4557.418" gradientTransform="matrix(-0.9881 0.1541 0.1541 0.9881 1433.8188 -83.0386)">
					<stop  offset="0" style="stop-color:#FF9085"/>
					<stop  offset="1" style="stop-color:#FB6FBB"/>
				</linearGradient>
				<path style="fill:url(#SVGID_00000169532023980218322910000013001957264144521602_);" d="M1215.73,3172.563
					c38.005-9.054,85.57-27.426,128.006-65.689c45.913-41.398,101.79-120.475,77.658-161.047
					c-9.009-15.147-29.85-26.071-46.067-22.191c-23.958,5.732-21.527,39.873-57.941,83.099
					c-6.729,7.989-41.522,49.292-63.376,40.611c-10.864-4.316-16.342-20.115-16.647-32.73
					c-0.893-36.883,42.371-49.315,78.692-95.058c36.824-46.377,61.885-121.168,34.094-164.756
					c-15.97-25.049-50.434-41.423-69.981-32.261c-8.354,3.915-12.786,11.934-30.405,73.48
					c-14.461,50.516-17.169,65.007-30.533,71.667c-13.755,6.855-37.156,4.595-47.932-8.33
					c-28.064-33.661,59.649-103.503,52.183-208.792c-3.346-47.183-26.71-114.243-71.192-122.461
					c-30.071-5.555-68.307,16.055-78.911,44.501c-9.56,25.644,9.287,40.877,7.45,95.421c-0.557,16.552-1.705,50.612-14.742,54.423
					c-15.306,4.474-39.364-34.976-45.006-44.617c-42.476-72.585-13.801-117.789-48.335-150.855
					c-26.929-25.784-77.425-29.952-113.668-9.155c-31.715,18.199-53.454,56.052-49.819,91.201
					c3.698,35.762,39.044,66.424,109.734,127.749c33.523,29.081,59.568,48.2,63.479,81.692c1.907,16.327-0.968,40.159-12.268,44.057
					c-24.938,8.603-53.679-92.739-116.973-99.21c-32.397-3.313-68.57,18.77-81.19,49.475
					c-15.462,37.622,6.087,84.166,36.243,105.705c39.345,28.103,70.387-2.759,140.21,23.129
					c30.975,11.484,81.034,38.382,78.847,67.423c-0.951,12.644-11.874,26.584-25.659,30.366
					c-30.898,8.476-49.326-41.453-103.429-56.227c-38.979-10.644-89.083-1.021-97.846,21.392
					c-12.371,31.642,57.904,88.14,94.344,112.264C938.804,3146.002,1040.159,3198.526,1215.73,3172.563z"/>
				<g style="opacity:0.5;">
					<path style="fill:#FFFFFF;" d="M1197.818,3158.548c-8.391-87.327-93.086-254.492-147.707-331.208
						c-53.223-74.754-112.09-197.065-112.679-198.291l-5.935,2.847c0.59,1.232,59.698,124.044,113.252,199.261
						c54.204,76.132,138.228,241.764,146.516,328.021L1197.818,3158.548z"/>
				</g>
			</g>
			
				<linearGradient id="SVGID_00000068646962127238193480000002139474704916766636_" gradientUnits="userSpaceOnUse" x1="853.4825" y1="2839.2397" x2="470.1519" y2="3298.7744" gradientTransform="matrix(-0.9881 0.1541 0.1541 0.9881 1433.8188 -83.0386)">
				<stop  offset="0.0036" style="stop-color:#E38DDD"/>
				<stop  offset="1" style="stop-color:#9571F6"/>
			</linearGradient>
			<path style="fill:url(#SVGID_00000068646962127238193480000002139474704916766636_);" d="M1308.188,3169.659
				c22.702-44.749,53.888-123.965,46.364-222.268c-3.1-40.506-9.155-119.619-67.482-179.581
				c-29.071-29.886-87.359-71.7-119.27-52.039c-20.533,12.651-28.701,49.865-18.339,75.578
				c10.448,25.927,33.573,24.873,65.454,66.665c11.797,15.464,25.357,33.662,19.063,46.119c-5.256,10.403-23.442,14.983-38.15,11.53
				c-30.383-7.134-27.002-44.103-61.874-64.803c-24.797-14.719-62.745-17.538-76.229-0.212
				c-11.708,15.044-4.617,44.817,10.641,63.021c24.432,29.15,57.771,14.281,85.952,45.919
				c12.502,14.036,23.336,36.492,15.978,47.187c-8.385,12.186-39.366,7.611-60.135-1.176c-27.421-11.6-30.917-27.948-47.706-27.448
				c-18.727,0.559-38.962,21.632-39.535,41.543c-0.803,27.888,37.008,51.934,65.32,60.527c36.245,11.001,59.804-2.447,79.731,17.198
				c7.314,7.21,14.924,19.653,11.229,28.501c-5.273,12.623-31.416,12.804-48.774,12.924c-42.246,0.293-55.948-12.906-69.608-3.325
				c-13.83,9.701-17.675,35.783-8.477,52.224c5.112,9.137,18.27,22.473,73.325,23.522
				C1164.201,3212.001,1227.941,3206.805,1308.188,3169.659z"/>
		</g>
	</g>
</g>
</svg>
