<?xml version="1.0" encoding="utf-8"?>
<!-- Generator: Adobe Illustrator 27.5.0, SVG Export Plug-In . SVG Version: 6.00 Build 0)  -->
<svg version="1.1" id="Layer_1" xmlns="http://www.w3.org/2000/svg" xmlns:xlink="http://www.w3.org/1999/xlink" x="0px" y="0px"
	 viewBox="0 0 209.552 209.09" style="enable-background:new 0 0 209.552 209.09;" xml:space="preserve">
<g>
	<g>
		<path style="fill:#FFFFFF;" d="M188.576,161.268c-2.011-2.188-4.09-4.452-6.074-6.703l-0.302-0.34
			c-14.214-16.116-28.914-32.78-44.457-48.316c-12.813-12.811-25.422-26.433-40.645-43.924c0.097-0.634,0.123-1.273,0.076-1.913
			c-0.08-1.033-0.434-2.033-1.034-2.913c-4.505-6.524-9.909-14.571-11.568-17.589c-0.494-0.902-0.487-1.466-0.458-1.677
			c1.156-1.822,4.449-6.067,8.235-7.544c0.004-0.001,0.384-0.115,1.37-0.115c4.29,0,11.691,1.961,17.1,3.394l0.12,0.032
			c4.683,1.237,7.509,1.984,9.57,1.984c2.591,0,4.727-1.205,5.864-3.309c1.471-2.725,1.184-4.964,0.682-6.37
			c-0.686-1.911-2.083-3.134-3.309-3.722c-1.365-0.693-17.349-8.797-27.456-13.147c-3.568-1.537-7.449-2.315-11.534-2.315
			c-11.311,0-20.572,5.878-21.592,6.549c-0.051,0.033-0.102,0.068-0.152,0.104c-0.179,0.128-0.352,0.264-0.516,0.41l-0.113,0.1
			c-16.229,14.229-35.772,31.332-37.434,32.7c-0.983,0.808-1.748,1.771-2.271,2.839c-1.024,0.255-2.069,0.728-3.158,1.426
			c-1.946,1.25-7.204,6.048-10.205,8.833c-0.166,0.158-0.332,0.333-0.483,0.516c-3.44,4.061-1.153,9.944,7.872,20.275
			c10.088,11.547,14.034,11.547,15.519,11.547c0.99,0,1.933-0.21,2.802-0.622c0.466-0.209,0.905-0.479,1.339-0.828
			c3.826-3.143,8.683-7.238,10.075-8.884c0.272-0.319,0.523-0.645,0.76-0.984c0.211-0.246,0.4-0.508,0.568-0.784
			c2.822-0.462,5.092-2.512,5.927-5.379c1.648-2.904,3.859-5.494,4.986-6.155c2.118,0.632,7.658,4.53,11.897,8.408
			c1.541,1.502,3.427,3.017,5.854,3.229c4.779,5.754,9.318,11.305,12.85,15.635c1.319,1.617,2.65,3.231,4.01,4.876
			c2.146,2.6,4.367,5.288,6.476,7.942l0.125,0.157c5.987,7.521,58.971,73.932,78.862,94.304c0.916,1.06,3.068,2.96,6.731,2.96
			c1.26,0,2.568-0.24,3.91-0.722c4.175-1.518,15.049-11.086,16.659-17.079c0.725-2.434,0.321-5.112-1.092-7.197
			C200.171,173.882,194.276,167.469,188.576,161.268z"/>
		<path style="fill:#F1F1F1;" d="M188.197,160.936c-2.011-2.188-4.09-4.451-6.074-6.703l-0.302-0.34
			c-14.214-16.116-28.914-32.78-44.456-48.316c-12.814-12.81-25.423-26.433-40.646-43.924c0.097-0.634,0.125-1.272,0.076-1.912
			c-0.077-1.033-0.431-2.035-1.034-2.914c-4.489-6.534-9.909-14.57-11.568-17.589c-0.494-0.901-0.487-1.465-0.458-1.677
			c1.156-1.822,4.449-6.067,8.235-7.544c0.004-0.001,0.384-0.114,1.371-0.114c4.289,0,11.69,1.961,17.099,3.394l0.12,0.032
			c4.684,1.237,7.509,1.984,9.57,1.984c2.591,0,4.728-1.204,5.865-3.309c1.471-2.724,1.183-4.964,0.681-6.369
			c-0.686-1.911-2.09-3.12-3.309-3.722c-1.373-0.678-17.349-8.798-27.456-13.148C92.344,7.228,88.464,6.45,84.379,6.45
			c-11.312,0-20.571,5.881-21.593,6.548c-0.051,0.033-0.101,0.068-0.152,0.104c-0.179,0.127-0.352,0.264-0.516,0.41l-0.113,0.1
			c-16.23,14.228-35.772,31.331-37.434,32.699c-0.983,0.809-1.748,1.771-2.271,2.839c-1.023,0.255-2.069,0.728-3.158,1.426
			c-1.946,1.25-7.224,6.026-10.205,8.833c-0.167,0.157-0.331,0.334-0.483,0.516c-3.43,4.069-1.153,9.944,7.872,20.276
			c10.089,11.546,14.034,11.546,15.52,11.546c0.99,0,1.929-0.218,2.802-0.621c0.464-0.214,0.908-0.479,1.339-0.829
			c3.841-3.124,8.679-7.242,10.075-8.884c0.271-0.319,0.523-0.644,0.76-0.983c0.211-0.247,0.401-0.508,0.569-0.785
			c2.821-0.462,5.091-2.512,5.926-5.378c1.65-2.904,3.859-5.494,4.986-6.155c2.118,0.632,7.658,4.529,11.897,8.407
			c1.542,1.503,3.428,3.018,5.855,3.229c4.778,5.755,9.317,11.304,12.849,15.635c1.319,1.618,2.65,3.232,4.011,4.877
			c2.146,2.599,4.366,5.287,6.475,7.941l0.125,0.157c5.987,7.521,58.971,73.933,78.862,94.305c0.916,1.06,3.068,2.96,6.731,2.96
			c1.26,0,2.568-0.241,3.91-0.723c4.175-1.517,14.968-11.107,16.659-17.078c0.691-2.444,0.321-5.113-1.092-7.198
			C199.792,173.55,193.898,167.138,188.197,160.936z"/>
		<path style="fill:#E2E2E2;" d="M187.819,160.605c-2.011-2.188-4.09-4.452-6.074-6.703l-0.302-0.339
			c-14.214-16.116-28.914-32.781-44.457-48.317c-12.814-12.811-25.423-26.433-40.645-43.924c0.097-0.633,0.125-1.272,0.076-1.913
			c-0.077-1.032-0.431-2.034-1.034-2.913c-4.485-6.536-9.909-14.571-11.568-17.589c-0.494-0.901-0.487-1.465-0.458-1.677
			c1.156-1.822,4.449-6.066,8.234-7.544c0.005-0.001,0.385-0.115,1.371-0.115c4.29,0,11.691,1.961,17.1,3.395l0.12,0.033
			c4.683,1.236,7.508,1.984,9.57,1.984c2.591,0,4.728-1.206,5.864-3.31c1.471-2.724,1.184-4.963,0.681-6.37
			c-0.685-1.911-2.089-3.12-3.308-3.721c-1.374-0.677-17.349-8.798-27.456-13.148C91.966,6.897,88.085,6.119,84,6.119
			c-11.311,0-20.57,5.881-21.592,6.548c-0.051,0.033-0.103,0.069-0.152,0.104c-0.18,0.127-0.352,0.264-0.516,0.41l-0.113,0.1
			C45.397,27.51,25.854,44.612,24.193,45.981c-0.983,0.808-1.748,1.771-2.272,2.839c-1.023,0.254-2.068,0.727-3.157,1.425
			c-1.946,1.25-7.22,6.032-10.205,8.834c-0.167,0.156-0.331,0.334-0.483,0.515c-3.424,4.074-1.153,9.944,7.872,20.275
			c10.088,11.548,14.034,11.548,15.52,11.548c0.989,0,1.929-0.219,2.802-0.623c0.464-0.214,0.907-0.478,1.339-0.828
			c3.843-3.122,8.677-7.243,10.074-8.884c0.272-0.32,0.524-0.645,0.761-0.984c0.211-0.246,0.4-0.507,0.568-0.783
			c2.822-0.463,5.092-2.512,5.927-5.38c1.648-2.904,3.859-5.493,4.986-6.155c2.118,0.632,7.658,4.53,11.896,8.409
			c1.542,1.501,3.428,3.017,5.855,3.228c4.779,5.754,9.317,11.305,12.85,15.635c1.319,1.618,2.649,3.232,4.01,4.876
			c2.146,2.6,4.367,5.288,6.476,7.943l0.125,0.157c5.987,7.52,58.97,73.931,78.862,94.303c0.916,1.06,3.068,2.961,6.731,2.961
			c1.26,0,2.568-0.24,3.91-0.723c4.175-1.518,14.968-11.107,16.659-17.079c0.691-2.443,0.321-5.111-1.092-7.196
			C199.414,173.219,193.52,166.806,187.819,160.605z"/>
		<path style="fill:#D4D4D4;" d="M187.44,160.272c-2.011-2.188-4.09-4.451-6.074-6.703l-0.302-0.34
			c-14.214-16.116-28.914-32.78-44.457-48.316c-12.813-12.81-25.423-26.433-40.645-43.924c0.097-0.634,0.125-1.271,0.076-1.912
			c-0.077-1.033-0.431-2.036-1.034-2.914c-4.487-6.536-9.909-14.57-11.568-17.589c-0.495-0.901-0.487-1.465-0.458-1.677
			c1.156-1.822,4.449-6.066,8.235-7.544c0.004-0.001,0.384-0.114,1.37-0.114c4.29,0,11.691,1.961,17.1,3.394l0.12,0.032
			c4.683,1.237,7.509,1.984,9.57,1.984c2.591,0,4.728-1.204,5.864-3.309c1.471-2.724,1.184-4.964,0.682-6.369
			c-0.686-1.911-2.09-3.121-3.309-3.722c-1.374-0.678-17.349-8.798-27.456-13.149c-3.568-1.536-7.449-2.314-11.534-2.314
			c-11.311,0-20.57,5.881-21.592,6.548c-0.051,0.033-0.103,0.068-0.152,0.104c-0.179,0.128-0.352,0.264-0.516,0.41l-0.114,0.1
			C45.019,27.178,25.476,44.28,23.815,45.648c-0.983,0.809-1.748,1.771-2.273,2.839c-1.023,0.255-2.068,0.728-3.157,1.426
			c-1.946,1.25-7.225,6.028-10.205,8.833c-0.167,0.157-0.331,0.335-0.483,0.516c-3.425,4.075-1.153,9.944,7.872,20.276
			c10.088,11.546,14.034,11.546,15.519,11.546c0.99,0,1.929-0.218,2.802-0.621c0.464-0.214,0.907-0.479,1.339-0.829
			c3.842-3.121,8.682-7.238,10.075-8.884c0.271-0.318,0.524-0.644,0.76-0.983c0.211-0.247,0.4-0.507,0.568-0.785
			c2.822-0.462,5.092-2.511,5.927-5.378c1.648-2.904,3.859-5.493,4.986-6.155c2.118,0.632,7.658,4.529,11.896,8.407
			c1.542,1.503,3.428,3.018,5.855,3.229c4.779,5.755,9.318,11.306,12.85,15.635c1.319,1.618,2.65,3.233,4.01,4.877
			c2.146,2.599,4.367,5.287,6.475,7.941l0.125,0.157c5.987,7.521,58.97,73.933,78.862,94.305c0.915,1.06,3.068,2.96,6.731,2.96
			c1.26,0,2.569-0.237,3.91-0.721c4.179-1.509,14.968-11.109,16.659-17.08c0.691-2.444,0.321-5.113-1.092-7.198
			C199.035,172.887,193.141,166.475,187.44,160.272z"/>
		<path style="fill:#C5C5C5;" d="M187.063,159.941c-2.011-2.188-4.09-4.451-6.074-6.702l-0.303-0.34
			c-14.214-16.116-28.914-32.78-44.457-48.316c-12.813-12.811-25.423-26.433-40.645-43.924c0.097-0.635,0.126-1.273,0.077-1.913
			c-0.078-1.033-0.432-2.035-1.035-2.913c-4.487-6.536-9.909-14.571-11.567-17.589c-0.495-0.902-0.488-1.466-0.458-1.678
			c1.155-1.822,4.448-6.066,8.235-7.544c0.004,0,0.383-0.114,1.369-0.114c4.29,0,11.692,1.961,17.101,3.395l0.119,0.032
			c4.683,1.237,7.51,1.984,9.571,1.984c2.59,0,4.727-1.205,5.863-3.309c1.471-2.726,1.185-4.964,0.683-6.37
			c-0.686-1.912-2.091-3.12-3.31-3.722c-1.373-0.677-17.349-8.798-27.456-13.147c-3.568-1.537-7.449-2.316-11.534-2.316
			c-11.311,0-20.57,5.882-21.592,6.549c-0.051,0.033-0.102,0.068-0.151,0.104c-0.178,0.13-0.353,0.263-0.516,0.41l-0.114,0.099
			C44.64,26.848,25.098,43.95,23.437,45.318c-0.983,0.808-1.748,1.772-2.272,2.839c-1.024,0.255-2.068,0.728-3.158,1.426
			c-1.946,1.25-7.224,6.027-10.205,8.833c-0.166,0.156-0.331,0.334-0.483,0.515c-3.424,4.074-1.153,9.945,7.872,20.276
			c10.088,11.547,14.034,11.547,15.519,11.547c0.991,0,1.929-0.218,2.802-0.622c0.465-0.214,0.907-0.478,1.34-0.828
			c3.844-3.12,8.683-7.238,10.075-8.884c0.271-0.319,0.522-0.645,0.76-0.984c0.21-0.246,0.399-0.508,0.567-0.784
			c2.822-0.462,5.092-2.512,5.927-5.379c1.648-2.904,3.859-5.494,4.986-6.155c2.118,0.632,7.658,4.53,11.897,8.408
			c1.541,1.502,3.427,3.017,5.854,3.229c4.78,5.754,9.319,11.305,12.851,15.635c1.318,1.617,2.65,3.23,4.009,4.876
			c2.146,2.6,4.368,5.288,6.477,7.941l0.125,0.158c5.987,7.521,58.97,73.931,78.861,94.304c0.916,1.059,3.068,2.96,6.732,2.96
			c1.26,0,2.568-0.237,3.909-0.722c4.178-1.509,14.969-11.108,16.66-17.079c0.692-2.444,0.32-5.112-1.092-7.197
			C198.657,172.557,192.763,166.143,187.063,159.941z"/>
		<path style="fill:#B7B7B7;" d="M186.684,159.61c-2.011-2.188-4.09-4.451-6.074-6.703l-0.302-0.34
			c-14.214-16.116-28.914-32.78-44.456-48.315c-12.814-12.811-25.424-26.433-40.645-43.925c0.096-0.634,0.124-1.271,0.076-1.911
			c-0.077-1.034-0.432-2.037-1.034-2.914c-4.489-6.536-9.909-14.57-11.568-17.59c-0.494-0.901-0.487-1.465-0.458-1.677
			c1.156-1.822,4.449-6.067,8.235-7.544c0.004-0.001,0.384-0.114,1.37-0.114c4.29,0,11.691,1.961,17.1,3.395l0.12,0.032
			c4.683,1.237,7.509,1.983,9.57,1.983c2.591,0,4.729-1.204,5.865-3.308c1.471-2.725,1.183-4.965,0.681-6.369
			c-0.686-1.912-2.09-3.121-3.309-3.723c-1.373-0.678-17.348-8.798-27.455-13.149C90.83,5.903,86.95,5.125,82.865,5.125
			c-11.311,0-20.569,5.884-21.593,6.549c-0.05,0.032-0.102,0.067-0.152,0.104c-0.178,0.128-0.351,0.263-0.516,0.409l-0.113,0.101
			C44.262,26.516,24.719,43.619,23.058,44.987c-0.983,0.808-1.748,1.771-2.272,2.838c-1.023,0.256-2.068,0.728-3.157,1.426
			c-1.946,1.25-7.225,6.027-10.205,8.833c-0.167,0.157-0.331,0.334-0.483,0.516c-3.43,4.069-1.154,9.944,7.873,20.276
			C24.9,90.422,28.846,90.422,30.331,90.422c0.99,0,1.928-0.219,2.802-0.621c0.464-0.213,0.907-0.478,1.339-0.829
			c3.841-3.124,8.683-7.238,10.075-8.883c0.272-0.319,0.524-0.644,0.76-0.984c0.211-0.247,0.401-0.508,0.568-0.785
			c2.822-0.462,5.092-2.512,5.928-5.378c1.648-2.904,3.858-5.494,4.985-6.155c2.118,0.633,7.658,4.529,11.896,8.407
			c1.543,1.503,3.428,3.018,5.856,3.229c4.778,5.756,9.317,11.305,12.849,15.635c1.32,1.618,2.65,3.232,4.011,4.877
			c2.146,2.6,4.366,5.288,6.475,7.941L98,107.032c5.987,7.521,58.97,73.934,78.861,94.305c0.916,1.06,3.069,2.96,6.732,2.96
			c1.26,0,2.569-0.238,3.909-0.722c4.179-1.51,14.969-11.107,16.66-17.079c0.691-2.444,0.321-5.112-1.092-7.198
			C198.278,172.226,192.384,165.813,186.684,159.61z"/>
		<path style="fill:#A8A8A8;" d="M186.305,159.278c-2.011-2.188-4.09-4.451-6.074-6.702l-0.302-0.34
			c-14.213-16.116-28.914-32.78-44.457-48.316c-12.813-12.811-25.422-26.432-40.644-43.924c0.095-0.634,0.123-1.273,0.075-1.913
			c-0.08-1.033-0.431-2.035-1.034-2.913c-4.487-6.536-9.908-14.571-11.568-17.589c-0.494-0.902-0.486-1.466-0.458-1.677
			c1.157-1.823,4.45-6.067,8.235-7.544c0.004-0.001,0.385-0.115,1.37-0.115c4.29,0,11.692,1.961,17.1,3.396l0.12,0.032
			c4.683,1.236,7.509,1.983,9.57,1.983c2.591,0,4.728-1.205,5.864-3.308c1.471-2.726,1.184-4.965,0.682-6.371
			c-0.686-1.911-2.089-3.12-3.309-3.722c-1.373-0.677-17.349-8.797-27.456-13.147c-3.568-1.537-7.449-2.315-11.534-2.315
			c-11.311,0-20.565,5.889-21.592,6.55c-0.051,0.033-0.103,0.067-0.152,0.103c-0.178,0.129-0.351,0.263-0.516,0.409l-0.113,0.1
			C43.884,26.185,24.34,43.287,22.679,44.656c-0.983,0.807-1.747,1.771-2.272,2.838c-1.024,0.256-2.068,0.728-3.156,1.426
			c-1.947,1.25-7.226,6.027-10.206,8.833c-0.167,0.157-0.331,0.334-0.483,0.515c-3.418,4.08-1.155,9.945,7.871,20.276
			c10.088,11.547,14.034,11.547,15.521,11.547c0.989,0,1.928-0.217,2.802-0.622c0.463-0.213,0.906-0.477,1.338-0.828
			c3.843-3.122,8.679-7.242,10.075-8.884c0.271-0.32,0.523-0.644,0.76-0.984c0.211-0.246,0.4-0.508,0.568-0.784
			c2.821-0.462,5.092-2.512,5.927-5.379c1.648-2.904,3.86-5.494,4.987-6.155c2.117,0.632,7.658,4.53,11.896,8.408
			c1.542,1.502,3.428,3.017,5.855,3.229c4.779,5.754,9.318,11.305,12.85,15.635c1.319,1.617,2.65,3.231,4.01,4.876
			c2.146,2.6,4.368,5.288,6.476,7.942l0.125,0.157c5.987,7.521,58.97,73.932,78.861,94.305c0.916,1.059,3.07,2.959,6.732,2.959
			c1.26,0,2.57-0.237,3.91-0.722c4.178-1.509,14.968-11.107,16.659-17.079c0.691-2.444,0.321-5.111-1.092-7.197
			C197.899,171.893,192.005,165.48,186.305,159.278z"/>
		<path style="fill:#9A9A9A;" d="M185.926,158.947c-2.01-2.188-4.09-4.451-6.073-6.703l-0.302-0.339
			c-14.214-16.117-28.914-32.781-44.457-48.317c-12.813-12.81-25.423-26.432-40.645-43.924c0.096-0.634,0.125-1.271,0.076-1.912
			c-0.078-1.033-0.431-2.036-1.034-2.914c-4.487-6.536-9.909-14.57-11.569-17.589c-0.494-0.9-0.486-1.465-0.458-1.676
			c1.157-1.823,4.45-6.068,8.235-7.544c0.004-0.002,0.385-0.115,1.371-0.115c4.29,0,11.691,1.961,17.099,3.395l0.121,0.031
			c4.683,1.237,7.509,1.984,9.569,1.984c2.592,0,4.729-1.204,5.864-3.308c1.472-2.725,1.184-4.964,0.683-6.37
			c-0.687-1.911-2.09-3.12-3.309-3.722c-1.374-0.678-17.349-8.797-27.456-13.148c-3.568-1.536-7.45-2.314-11.535-2.314
			c-11.31,0-20.564,5.889-21.591,6.549c-0.051,0.033-0.103,0.067-0.153,0.104c-0.178,0.129-0.351,0.263-0.515,0.409l-0.114,0.101
			C43.505,25.853,23.962,42.955,22.3,44.323c-0.983,0.809-1.747,1.771-2.272,2.839c-1.023,0.256-2.067,0.727-3.156,1.426
			c-1.946,1.25-7.225,6.027-10.205,8.833c-0.168,0.158-0.332,0.335-0.483,0.516c-3.418,4.081-1.154,9.944,7.872,20.276
			c10.088,11.546,14.034,11.546,15.519,11.546c0.99,0,1.929-0.218,2.802-0.621c0.463-0.214,0.907-0.479,1.339-0.829
			c3.843-3.121,8.678-7.242,10.074-8.884c0.271-0.319,0.524-0.643,0.76-0.983c0.212-0.247,0.4-0.508,0.569-0.785
			c2.821-0.462,5.092-2.512,5.927-5.378c1.649-2.904,3.859-5.494,4.986-6.155c2.118,0.632,7.658,4.529,11.896,8.407
			c1.543,1.503,3.429,3.019,5.856,3.229c4.779,5.755,9.318,11.305,12.849,15.635c1.32,1.619,2.65,3.232,4.011,4.877
			c2.146,2.599,4.367,5.287,6.476,7.941l0.125,0.158c5.986,7.521,58.969,73.933,78.861,94.304c0.915,1.06,3.069,2.96,6.731,2.96
			c1.26,0,2.57-0.238,3.91-0.722c4.179-1.51,14.968-11.108,16.659-17.079c0.692-2.444,0.322-5.113-1.092-7.198
			C197.52,171.561,191.627,165.149,185.926,158.947z"/>
		<path style="fill:#8B8B8B;" d="M185.548,158.615c-2.011-2.188-4.09-4.45-6.074-6.702l-0.302-0.34
			c-14.214-16.116-28.914-32.779-44.457-48.315c-12.814-12.812-25.423-26.433-40.645-43.925c0.096-0.633,0.125-1.272,0.076-1.912
			c-0.077-1.034-0.432-2.036-1.034-2.913c-4.489-6.536-9.909-14.571-11.568-17.589c-0.494-0.903-0.487-1.467-0.458-1.678
			c1.156-1.822,4.449-6.067,8.235-7.544c0.004-0.001,0.384-0.115,1.37-0.115c4.29,0,11.691,1.961,17.1,3.396l0.12,0.031
			c4.683,1.238,7.509,1.984,9.57,1.984c2.591,0,4.728-1.204,5.864-3.308c1.471-2.725,1.184-4.965,0.682-6.37
			c-0.687-1.912-2.09-3.12-3.309-3.723c-1.373-0.678-17.349-8.797-27.456-13.146C89.694,4.908,85.813,4.13,81.729,4.13
			c-11.311,0-20.565,5.889-21.592,6.55c-0.051,0.033-0.103,0.067-0.152,0.104c-0.179,0.127-0.352,0.263-0.516,0.409l-0.113,0.101
			C43.126,25.521,23.583,42.625,21.921,43.992c-0.982,0.808-1.747,1.771-2.271,2.839c-1.023,0.256-2.068,0.728-3.157,1.427
			c-1.946,1.25-7.225,6.026-10.205,8.832c-0.167,0.157-0.331,0.334-0.483,0.515c-3.425,4.075-1.154,9.946,7.872,20.276
			C23.764,89.428,27.71,89.428,29.195,89.428c0.99,0,1.929-0.218,2.802-0.621c0.464-0.214,0.907-0.479,1.339-0.828
			c3.843-3.123,8.683-7.238,10.075-8.884c0.273-0.32,0.524-0.645,0.76-0.985c0.211-0.245,0.4-0.508,0.568-0.784
			c2.821-0.461,5.092-2.512,5.927-5.378c1.648-2.905,3.859-5.495,4.986-6.156c2.118,0.633,7.658,4.531,11.896,8.408
			c1.542,1.502,3.428,3.017,5.855,3.229c4.779,5.754,9.318,11.304,12.85,15.635c1.319,1.616,2.65,3.231,4.01,4.876
			c2.146,2.6,4.367,5.288,6.476,7.942l0.125,0.156c5.987,7.521,58.97,73.933,78.861,94.305c0.916,1.059,3.069,2.959,6.732,2.959
			c1.26,0,2.569-0.237,3.909-0.722c4.179-1.509,14.969-11.106,16.66-17.079c0.691-2.444,0.321-5.112-1.092-7.197
			C197.143,171.231,191.248,164.818,185.548,158.615z"/>
		<path style="fill:#7D7D7D;" d="M185.169,158.285c-2.011-2.188-4.089-4.452-6.074-6.703l-0.302-0.34
			c-14.214-16.117-28.914-32.78-44.457-48.316c-12.813-12.811-25.423-26.433-40.645-43.925c0.096-0.633,0.125-1.271,0.076-1.912
			c-0.077-1.032-0.431-2.035-1.034-2.913c-4.487-6.536-9.909-14.571-11.567-17.589c-0.495-0.901-0.488-1.465-0.458-1.677
			c1.155-1.823,4.448-6.068,8.234-7.544c0.005-0.001,0.384-0.114,1.37-0.114c4.29,0,11.691,1.96,17.1,3.394l0.12,0.032
			c4.683,1.236,7.509,1.984,9.57,1.984c2.591,0,4.728-1.205,5.864-3.309c1.471-2.725,1.184-4.964,0.682-6.369
			c-0.687-1.912-2.091-3.12-3.309-3.722c-1.374-0.678-17.349-8.798-27.456-13.148C89.315,4.578,85.435,3.8,81.35,3.8
			c-11.311,0-20.57,5.881-21.592,6.548c-0.051,0.033-0.103,0.068-0.152,0.104c-0.179,0.128-0.352,0.263-0.516,0.409l-0.113,0.1
			c-16.229,14.228-35.772,31.331-37.434,32.7c-0.983,0.809-1.748,1.771-2.271,2.839c-1.024,0.255-2.069,0.727-3.158,1.425
			c-1.946,1.25-7.224,6.027-10.205,8.834c-0.167,0.157-0.331,0.335-0.483,0.516C2,61.35,4.271,67.218,13.297,77.55
			c10.088,11.547,14.034,11.547,15.52,11.547c0.99,0,1.929-0.219,2.802-0.622c0.464-0.214,0.907-0.479,1.339-0.829
			c3.843-3.121,8.678-7.242,10.075-8.884c0.271-0.318,0.523-0.643,0.76-0.983c0.211-0.246,0.4-0.507,0.568-0.784
			c2.821-0.462,5.092-2.513,5.927-5.379c1.648-2.903,3.859-5.493,4.986-6.154c2.118,0.631,7.658,4.528,11.896,8.407
			c1.542,1.503,3.428,3.018,5.855,3.228c4.779,5.756,9.318,11.305,12.851,15.635c1.318,1.619,2.649,3.233,4.009,4.877
			c2.146,2.599,4.367,5.287,6.476,7.942l0.125,0.157c5.987,7.521,58.97,73.932,78.861,94.304c0.916,1.061,3.069,2.961,6.733,2.961
			c1.259,0,2.567-0.242,3.908-0.723c4.176-1.517,14.971-11.108,16.661-17.079c0.691-2.443,0.32-5.112-1.092-7.198
			C196.765,170.899,190.869,164.487,185.169,158.285z"/>
		<path style="fill:#6E6E6E;" d="M184.79,157.953c-2.011-2.188-4.089-4.452-6.074-6.703l-0.302-0.34
			c-14.214-16.115-28.914-32.779-44.456-48.315c-12.814-12.812-25.423-26.433-40.645-43.925c0.096-0.633,0.126-1.272,0.077-1.912
			c-0.077-1.033-0.432-2.034-1.035-2.913c-4.489-6.534-9.909-14.571-11.567-17.589c-0.494-0.902-0.488-1.466-0.458-1.678
			c1.156-1.823,4.449-6.066,8.234-7.544c0.005,0,0.384-0.115,1.371-0.115c4.29,0,11.691,1.962,17.1,3.396l0.119,0.032
			c4.684,1.237,7.509,1.984,9.571,1.984c2.591,0,4.728-1.205,5.864-3.309c1.471-2.725,1.183-4.964,0.681-6.37
			c-0.687-1.912-2.09-3.12-3.308-3.722c-1.373-0.677-17.349-8.798-27.456-13.147c-3.569-1.538-7.449-2.315-11.534-2.315
			c-11.312,0-20.57,5.882-21.592,6.549c-0.051,0.033-0.103,0.067-0.152,0.104c-0.179,0.127-0.353,0.263-0.516,0.409l-0.113,0.101
			c-16.229,14.229-35.772,31.332-37.434,32.7c-0.982,0.808-1.748,1.771-2.272,2.839c-1.023,0.255-2.068,0.727-3.157,1.425
			c-1.947,1.25-7.22,6.032-10.205,8.834c-0.167,0.156-0.332,0.333-0.484,0.515c-3.429,4.069-1.154,9.945,7.873,20.276
			c10.088,11.547,14.034,11.547,15.519,11.547c0.99,0,1.93-0.218,2.803-0.622c0.464-0.214,0.907-0.479,1.339-0.829
			c3.84-3.123,8.677-7.242,10.074-8.883c0.272-0.32,0.524-0.645,0.76-0.985c0.212-0.245,0.401-0.507,0.569-0.783
			c2.821-0.462,5.091-2.513,5.927-5.379c1.648-2.904,3.859-5.494,4.985-6.155c2.118,0.632,7.658,4.53,11.897,8.408
			c1.542,1.501,3.428,3.017,5.855,3.229c4.779,5.754,9.317,11.305,12.85,15.634c1.319,1.618,2.649,3.232,4.01,4.876
			c2.146,2.601,4.367,5.289,6.475,7.943l0.125,0.157c5.988,7.521,58.971,73.932,78.862,94.304c0.916,1.059,3.068,2.96,6.732,2.96
			c1.26,0,2.568-0.237,3.909-0.722c4.179-1.508,14.97-11.107,16.66-17.079c0.691-2.444,0.321-5.112-1.092-7.197
			C196.386,170.568,190.49,164.155,184.79,157.953z"/>
		<path style="fill:#606060;" d="M184.412,157.622c-2.011-2.189-4.09-4.451-6.074-6.703l-0.302-0.34
			c-14.215-16.116-28.914-32.78-44.457-48.316c-12.813-12.81-25.423-26.433-40.646-43.924c0.097-0.634,0.124-1.271,0.077-1.912
			c-0.08-1.033-0.434-2.034-1.034-2.914c-4.505-6.523-9.909-14.57-11.568-17.589c-0.494-0.901-0.487-1.465-0.458-1.677
			c1.156-1.822,4.449-6.067,8.235-7.544c0.004-0.001,0.384-0.114,1.37-0.114c4.29,0,11.691,1.961,17.1,3.394l0.12,0.032
			c4.683,1.237,7.509,1.984,9.57,1.984c2.591,0,4.728-1.204,5.864-3.309c1.471-2.725,1.184-4.964,0.682-6.369
			c-0.687-1.912-2.083-3.135-3.309-3.722c-1.365-0.693-17.349-8.798-27.456-13.148c-3.568-1.536-7.449-2.315-11.534-2.315
			c-11.311,0-20.572,5.877-21.592,6.548c-0.051,0.033-0.103,0.068-0.152,0.104c-0.179,0.128-0.351,0.263-0.516,0.41l-0.113,0.1
			C41.99,24.527,22.447,41.63,20.785,42.998c-0.983,0.809-1.747,1.771-2.271,2.839c-1.024,0.255-2.068,0.728-3.157,1.426
			c-1.946,1.25-7.204,6.048-10.205,8.833c-0.166,0.158-0.332,0.334-0.483,0.516c-3.44,4.061-1.154,9.944,7.872,20.276
			c10.088,11.546,14.034,11.546,15.52,11.546c0.99,0,1.933-0.209,2.802-0.621c0.466-0.21,0.905-0.48,1.339-0.829
			c3.826-3.142,8.683-7.238,10.075-8.884c0.273-0.318,0.523-0.644,0.76-0.983c0.211-0.247,0.4-0.508,0.568-0.785
			c2.821-0.462,5.092-2.512,5.927-5.378c1.648-2.904,3.859-5.494,4.986-6.155c2.118,0.632,7.658,4.529,11.896,8.407
			c1.542,1.503,3.428,3.018,5.855,3.229c4.779,5.755,9.318,11.305,12.85,15.635c1.319,1.618,2.65,3.232,4.01,4.877
			c2.146,2.599,4.367,5.287,6.476,7.941l0.125,0.157c5.987,7.521,58.97,73.933,78.861,94.304c0.916,1.061,3.069,2.961,6.732,2.961
			c1.26,0,2.568-0.241,3.909-0.722c4.176-1.518,15.05-11.086,16.66-17.08c0.725-2.434,0.321-5.112-1.092-7.197
			C196.007,170.236,190.112,163.824,184.412,157.622z"/>
	</g>
	<path style="fill:#FFFFFF;" d="M184.412,157.622c-2.011-2.189-4.09-4.451-6.074-6.703l-0.302-0.34
		c-14.215-16.116-28.914-32.78-44.457-48.316c-12.813-12.81-25.423-26.433-40.646-43.924c0.097-0.634,0.124-1.271,0.077-1.912
		c-0.08-1.033-0.434-2.034-1.034-2.914c-4.505-6.523-9.909-14.57-11.568-17.589c-0.494-0.901-0.487-1.465-0.458-1.677
		c1.156-1.822,4.449-6.067,8.235-7.544c0.004-0.001,0.384-0.114,1.37-0.114c4.29,0,11.691,1.961,17.1,3.394l0.12,0.032
		c4.683,1.237,7.509,1.984,9.57,1.984c2.591,0,4.728-1.204,5.864-3.309c1.471-2.725,1.184-4.964,0.682-6.369
		c-0.687-1.912-2.083-3.135-3.309-3.722c-1.365-0.693-17.349-8.798-27.456-13.148c-3.568-1.536-7.449-2.315-11.534-2.315
		c-11.311,0-20.572,5.877-21.592,6.548c-0.051,0.033-0.103,0.068-0.152,0.104c-0.179,0.128-0.351,0.263-0.516,0.41l-0.113,0.1
		C41.99,24.527,22.447,41.63,20.785,42.998c-0.983,0.809-1.747,1.771-2.271,2.839c-1.024,0.255-2.068,0.728-3.157,1.426
		c-1.946,1.25-7.204,6.048-10.205,8.833c-0.166,0.158-0.332,0.334-0.483,0.516c-3.44,4.061-1.154,9.944,7.872,20.276
		c10.088,11.546,14.034,11.546,15.52,11.546c0.99,0,1.933-0.209,2.802-0.621c0.466-0.21,0.905-0.48,1.339-0.829
		c3.826-3.142,8.683-7.238,10.075-8.884c0.273-0.318,0.523-0.644,0.76-0.983c0.211-0.247,0.4-0.508,0.568-0.785
		c2.821-0.462,5.092-2.512,5.927-5.378c1.648-2.904,3.859-5.494,4.986-6.155c2.118,0.632,7.658,4.529,11.896,8.407
		c1.542,1.503,3.428,3.018,5.855,3.229c4.779,5.755,9.318,11.305,12.85,15.635c1.319,1.618,2.65,3.232,4.01,4.877
		c2.146,2.599,4.367,5.287,6.476,7.941l0.125,0.157c5.987,7.521,58.97,73.933,78.861,94.304c0.916,1.061,3.069,2.961,6.732,2.961
		c1.26,0,2.568-0.241,3.909-0.722c4.176-1.518,15.05-11.086,16.66-17.08c0.725-2.434,0.321-5.112-1.092-7.197
		C196.007,170.236,190.112,163.824,184.412,157.622z"/>
	<g>
		<g>
			<g>
				<g>
					<g>
						<g>
							<g>
								<g>
									<g>
										<path style="fill:#F7AC67;" d="M196.179,182.896c0,0,0.434-1.189-0.291-2.258c-6.23-9.196-14.674-17.486-21.996-25.79
											c-14.513-16.452-28.987-32.876-44.508-48.389C107.457,84.54,87.23,61.124,67.26,37.427
											c-0.548-0.647-9.314-11.019-9.175-11.138L44.823,37.871c1.764-1.537,16.753,16.753,17.919,18.1
											c9.179,10.625,18.104,21.471,26.974,32.348c3.502,4.298,7.09,8.542,10.534,12.881c0.004,0,58.136,73.139,78.762,94.186
											c0,0,1.158,1.722,4.193,0.621C186.244,194.904,195.47,186.188,196.179,182.896z"/>
										<path style="fill:#5C2F10;" d="M181.322,197.458L181.322,197.458c-1.894,0-2.855-1.014-3.133-1.365
											c-19.601-20.02-72.676-86.545-78.667-94.069l-0.115-0.146c-2.152-2.71-4.396-5.427-6.567-8.055
											c-1.326-1.604-2.65-3.21-3.962-4.819C80.38,78.586,71.235,67.458,61.924,56.679c-0.118-0.136-0.378-0.442-0.749-0.888
											C49.146,41.441,45.964,39.206,45.17,38.896c-0.407,0.136-0.866,0.027-1.164-0.313c-0.392-0.452-0.346-1.135,0.105-1.53
											h0.001l0,0l13.142-11.479c0.041-0.035,0.081-0.07,0.125-0.107c0.454-0.388,1.136-0.338,1.524,0.114
											c0.071,0.08,0.127,0.17,0.17,0.265c0.577,0.83,5.025,6.161,9.011,10.879c22.228,26.374,41.285,48.193,62.066,68.969
											c15.456,15.449,30.123,32.08,44.308,48.16l0.246,0.278c1.984,2.251,4.053,4.504,6.137,6.771
											c5.587,6.078,11.361,12.363,15.944,19.127c0.917,1.354,0.558,2.783,0.438,3.16c-0.902,3.787-10.399,12.657-13.648,13.838
											C182.783,197.313,182.026,197.458,181.322,197.458z M179.912,194.779c0,0,0.409,0.514,1.41,0.514
											c0.451,0,0.96-0.103,1.512-0.303c2.837-1.029,11.686-9.545,12.284-12.32c0.012-0.05,0.024-0.097,0.043-0.145
											c0.004-0.013,0.224-0.697-0.172-1.28c-4.49-6.629-10.211-12.855-15.744-18.877c-2.095-2.277-4.172-4.54-6.167-6.804
											l-0.246-0.278c-14.162-16.057-28.806-32.658-44.215-48.061c-20.835-20.826-39.93-42.688-62.185-69.102
											c-4.806-5.685-7.305-8.641-8.497-10.265l-10.979,9.587c2.015,1.4,6.215,5.422,15.88,16.955
											c0.359,0.43,0.609,0.73,0.727,0.86c9.328,10.802,18.486,21.941,26.995,32.371c1.309,1.608,2.631,3.209,3.953,4.811
											c2.178,2.635,4.428,5.36,6.588,8.083l0,0c0.044,0.05,0.081,0.1,0.119,0.147c5.989,7.521,59.083,74.071,78.567,93.952
											C179.833,194.674,179.875,194.725,179.912,194.779L179.912,194.779z"/>
									</g>
								</g>
							</g>
						</g>
						<g>
							<path style="opacity:0.4;fill:#DE7E38;" d="M83.966,70.358c2.136-1.978,4.485-3.757,6.955-5.305
								c-7.983-9.117-15.838-18.35-23.661-27.627c-0.548-0.647-9.314-11.019-9.175-11.138L44.823,37.871
								c1.764-1.537,16.753,16.753,17.919,18.1c5.708,6.61,11.315,13.306,16.876,20.043C80.48,73.826,82.559,71.661,83.966,70.358z"
								/>
						</g>
						<g style="opacity:0.4;">
							<path style="fill:#FAD194;" d="M72.205,62.736c-1.216-1.4-2.469-2.957-3.961-4.092c-0.481-0.363-1.581-0.73-1.743,0.057
								c0.05,0.045,0.1,0.103,0.125,0.18c0.367,1.127,0.841,2.197,1.369,3.245c-0.351-0.915-0.691-1.835-1.034-2.754
								c-0.418-1.132,0.861-0.193,1.217,0.081c0.634,0.485,1.218,1.095,1.703,1.728c1.585,2.058,3.463,3.901,5.043,5.985
								c1.87,2.453,3.567,5.021,5.188,7.643c0.07,0.028,0.146,0.075,0.194,0.161c1.383,2.241,2.801,4.461,4.367,6.573
								C81.016,74.94,77.173,68.459,72.205,62.736z"/>
							<path style="fill:#FAD194;" d="M91.664,87.333c-1.827-3.81-3.585-7.685-5.821-11.276c-2.236-3.588-4.739-6.995-7.414-10.263
								c-1.146-1.388-2.423-2.655-3.592-4.021c-1.351-1.593-2.463-3.364-3.825-4.947c-1.09-1.272-2.313-2.521-3.56-3.638
								c-0.59-0.525-2.052-1.73-2.964-1.467c-0.629,0.18-0.818,0.695-0.93,1.287c-0.095,0.507,0.263,1.428,0.295,1.917
								c0.02,0.415,0.095,0.831,0.184,1.238c0.34,0.862,0.7,1.723,1.142,2.515c-0.014-0.048-0.028-0.1-0.04-0.15
								c-0.434-1.662-0.643-3.285-0.98-4.954c-0.47-2.376,2.193-0.242,2.915,0.35c2.916,2.377,4.931,5.675,7.285,8.549
								c2.188,2.664,4.504,5.186,6.645,7.899c4.388,5.568,7.465,11.853,10.515,18.192c0.127,0.005,0.239,0.06,0.312,0.209
								c1.12,2.459,2.572,4.708,4.15,6.881C94.447,92.934,93.017,90.158,91.664,87.333z"/>
							<path style="fill:#FAD194;" d="M102.034,91.466c-4.738-5.935-8.952-12.205-13.492-18.282
								c-4.466-5.965-9.229-11.875-14.379-17.26c-2.439-2.543-5.12-4.638-7.942-6.743c-1.168-0.875-2.261-1.919-3.495-2.697
								c-0.846-0.542-1.202-0.026-1.563,0.721c-0.468,0.962-0.147,2.557-0.101,3.572c0.033,0.725,0.087,1.445,0.149,2.162
								c0.163,0.341,0.332,0.676,0.506,1.01c-0.117-0.954-0.199-1.912-0.244-2.882c-0.04-0.775-0.059-1.558-0.073-2.331
								c-0.114-0.72,0.217-1.249,1-1.604c0.39,0.195,0.737,0.561,1.063,0.851c2.173,1.959,4.642,3.575,6.895,5.445
								c2.667,2.217,4.988,4.957,7.252,7.572c4.251,4.905,8.507,9.958,12.229,15.282c3.735,5.35,7.54,10.725,11.942,15.555
								C101.898,91.963,102.124,91.576,102.034,91.466z"/>
							<path style="fill:#FAD194;" d="M103.087,83.424c-2.097-2.05-4.391-3.87-6.505-5.902c-2.221-2.134-4.29-4.42-6.355-6.7
								c-4.08-4.523-7.727-9.492-11.523-14.256c-2.009-2.514-4.229-4.857-6.362-7.268c-2.157-2.448-4.258-4.849-6.625-7.094
								c-0.091-0.087-0.248,0.188-0.18,0.264c4.375,4.482,8.391,9.422,12.338,14.286c3.972,4.913,7.625,10.105,11.85,14.801
								c1.931,2.147,3.883,4.271,5.945,6.295c2.101,2.055,4.448,3.825,6.605,5.813c2.469,2.274,4.861,4.647,7.311,6.947
								c2.147,2.005,4.005,4.343,6.231,6.26c0.081,0.076,0.279-0.26,0.203-0.345C111.828,92.028,107.488,87.724,103.087,83.424z"/>
							<path style="fill:#FAD194;" d="M156.656,156.433c-2.884-2.914-5.726-5.86-8.502-8.874
								c-5.488-5.951-10.667-12.15-16.02-18.226c-2.624-2.982-5.238-5.977-7.718-9.081c-2.414-3.027-4.607-6.216-6.979-9.276
								c-1.095-1.404-2.369-2.63-3.535-3.976c-1.235-1.403-2.321-2.965-3.401-4.492c-2.188-3.068-4.288-6.174-6.928-8.889
								c-0.091-0.096-0.254,0.194-0.187,0.274c2.336,2.765,4.328,5.79,6.359,8.774c1.072,1.568,2.166,3.116,3.357,4.604
								c1.093,1.371,2.383,2.574,3.491,3.939c2.444,3.002,4.608,6.221,6.986,9.276c2.425,3.12,5.076,6.083,7.731,9.011
								c5.417,5.973,10.671,12.083,16.146,17.996c2.797,3.001,5.664,5.934,8.565,8.834c2.758,2.755,5.24,5.732,7.891,8.584
								c0.09,0.099,0.271-0.212,0.196-0.286C161.602,161.907,159.254,159.073,156.656,156.433z"/>
							<path style="fill:#FAD194;" d="M137.688,145.031c0.566,0.512,1.155,1.004,1.753,1.479
								c-5.714-7.628-11.245-15.39-16.684-23.212c-1.479-2.141-3.035-4.21-4.587-6.29c-1.604-2.156-3.059-4.418-4.782-6.488
								c-3.181-3.829-6.479-7.417-9.077-11.695c-0.055-0.084-0.205,0.155-0.16,0.236c2.488,4.394,5.642,8.147,8.856,12.017
								c1.597,1.922,2.929,4.03,4.394,6.048c1.642,2.271,3.336,4.498,4.913,6.81c3.041,4.458,6.167,8.85,9.309,13.229
								c1.447,2.018,2.871,4.019,4.486,5.905C136.654,143.705,137.172,144.366,137.688,145.031z"/>
							<path style="fill:#FAD194;" d="M176.434,164.501c-0.979-1.216-1.909-2.221-3.039-3.3c-2.39-2.277-4.583-4.769-6.952-7.069
								c-5.285-5.126-10.696-10.106-15.924-15.304c-5.21-5.178-9.941-10.779-14.989-16.102c-2.402-2.533-4.939-4.934-7.346-7.466
								c-2.548-2.683-4.807-5.557-7.138-8.43c-0.076-0.1-0.263,0.199-0.194,0.29c2.144,2.812,4.191,5.688,6.547,8.325
								c2.321,2.597,4.869,4.99,7.249,7.526c5.027,5.351,9.743,10.958,14.929,16.155c5.072,5.089,10.306,9.965,15.523,14.891
								c2.429,2.296,4.695,4.748,7.076,7.088c1.095,1.076,2.317,2.099,3.248,3.317c0.371,0.484,0.747,0.964,1.152,1.417
								c0.201,0.227,0.661,0.859,0.955,1.369c-0.733-0.193-1.602-1.064-2.053-1.387c-1.598-1.143-3.307-2.068-4.802-3.354
								c-1.389-1.189-2.677-2.472-4.111-3.608c-1.678-1.328-3.458-2.533-5.17-3.817c-3.491-2.611-7.054-5.176-10.16-8.259
								c-3.136-3.114-6.238-6.272-9.252-9.511c-2.822-3.031-5.132-6.426-7.73-9.639c-2.605-3.21-5.104-6.481-7.627-9.757
								c-2.508-3.248-4.955-6.554-7.468-9.787c-1.261-1.62-2.528-3.246-3.737-4.897c-0.563-0.771-1.076-1.563-1.553-2.374
								c-0.356-0.599-0.811-1.094-1.093-1.712c0.911,0.654,1.757,1.5,2.599,2.188c1.182,0.97,2.296,2.023,3.465,3.003
								c2.503,2.099,5.168,4.007,7.731,6.041c5.407,4.301,10.355,8.964,15.044,14.039c4.536,4.914,9.146,9.765,13.741,14.622
								c4.669,4.944,9.356,9.91,13.522,15.292c0.051,0.063,0.18-0.138,0.132-0.196c-4.122-5.441-8.778-10.409-13.462-15.369
								c-4.605-4.884-9.07-9.878-13.62-14.811c-4.435-4.81-9.089-9.247-14.18-13.359c-2.558-2.058-5.201-4.006-7.767-6.054
								c-1.35-1.08-2.655-2.217-3.95-3.372c-1.053-0.945-2.284-2.122-3.509-2.82c-0.158-0.09-0.289,0.309-0.274,0.405
								c0.211,1.415,1.481,2.792,2.249,3.955c1.122,1.705,2.471,3.253,3.689,4.895c2.546,3.465,5.15,6.88,7.76,10.304
								c2.637,3.438,5.244,6.879,7.986,10.236c2.866,3.52,5.433,7.195,8.559,10.518c2.863,3.042,5.728,6.331,8.898,9.065
								c3.333,2.872,6.751,5.524,10.268,8.167c1.702,1.276,3.442,2.505,5.089,3.846c1.577,1.279,2.919,2.804,4.468,4.119
								c1.298,1.099,2.87,1.845,4.22,2.885c0.617,0.478,1.662,1.529,2.523,1.167c0.196-0.079,0.326-0.388,0.301-0.599
								C178.126,166.28,177.049,165.268,176.434,164.501z"/>
							<path style="fill:#FAD194;" d="M158.942,151.26c-1.942-2.052-3.96-4.043-5.949-6.055c-1.916-1.939-3.693-3.977-5.535-5.992
								c-3.633-3.973-7.924-7.47-10.713-12.163c-0.069-0.111-0.267,0.203-0.211,0.311c2.584,4.922,6.733,8.567,10.411,12.612
								c1.835,2.021,3.591,4.056,5.56,5.952c1.998,1.938,3.905,4.123,6.218,5.703C158.83,151.7,159.018,151.346,158.942,151.26z"/>
							<path style="fill:#FAD194;" d="M149.524,128.751c-0.735-0.716-1.482-1.423-2.203-2.141c-2.092-2.068-4.064-4.257-6.153-6.335
								c-3.932-3.914-8.006-7.662-11.963-11.56c-4.1-4.048-8.822-7.325-13.46-10.71c-2.42-1.768-4.814-3.583-7.066-5.563
								c-1.027-0.915-2.221-1.85-3.021-2.979c-0.639-0.9-1.338-1.753-2.188-2.468c-0.065-0.053-0.212,0.2-0.136,0.265
								c0.959,0.868,1.603,1.923,2.311,2.975c0.592,0.873,1.599,1.668,2.363,2.378c2.182,2.025,4.541,3.855,6.918,5.65
								c4.886,3.688,9.876,7.178,14.25,11.489c1.662,1.635,3.214,3.44,4.956,4.972c2.286,1.998,4.47,4.031,6.613,6.166
								c3.707,3.678,7.232,7.582,11.086,11.107C151.024,130.945,150.29,129.835,149.524,128.751z"/>
							<path style="fill:#FAD194;" d="M101.158,79.528c-6.077-7.285-11.965-14.799-18.442-21.718
								c-1.427-1.527-2.612-3.241-4.026-4.776c-1.559-1.703-3.145-3.381-4.685-5.1c-1.472-1.643-2.753-3.413-4.124-5.146
								c-1.248-1.572-2.239-3.388-3.742-4.742c-0.068-0.063-0.233,0.21-0.169,0.274c1.437,1.434,2.41,3.312,3.578,4.958
								c1.275,1.815,2.573,3.609,4.028,5.287c1.514,1.745,3.097,3.422,4.666,5.122c1.406,1.54,2.604,3.253,4.024,4.777
								c3.128,3.35,6.119,6.723,9.048,10.24c3.144,3.761,6.253,7.578,9.631,11.14C101.046,79.943,101.237,79.618,101.158,79.528z"/>
							<path style="fill:#FAD194;" d="M178.508,191.115c-0.076-0.095-0.098-0.2-0.086-0.299c-1.577-1.632-3.135-3.297-4.596-5.036
								c-3.183-3.802-6.096-7.953-8.854-12.075c-1.337-2.007-2.999-3.799-4.536-5.655c-1.573-1.898-3.082-3.85-4.632-5.771
								c-3.164-3.927-6.267-7.896-9.267-11.952c-0.058-0.074-0.183,0.143-0.143,0.205c2.62,4.162,5.56,8.012,8.602,11.876
								c1.534,1.955,3.046,3.928,4.57,5.889c1.609,2.058,3.436,3.993,4.878,6.182c2.737,4.153,5.725,8.203,8.874,12.055
								c1.386,1.692,2.945,3.283,4.485,4.841c1.236,1.237,2.471,2.543,3.849,3.64C180.69,193.656,179.535,192.436,178.508,191.115z"
								/>
							<path style="fill:#FAD194;" d="M184.262,191.07c-3.421-4.004-7.116-7.654-10.297-11.86
								c-3.344-4.422-7.361-8.318-10.641-12.772c-0.059-0.086-0.205,0.151-0.157,0.226c3.186,4.59,6.977,8.75,10.343,13.202
								c1.714,2.263,3.366,4.476,5.368,6.487c0.783,0.792,1.538,1.645,2.305,2.485C182.202,189.591,183.237,190.319,184.262,191.07z
								"/>
							<path style="fill:#FAD194;" d="M185.798,184.23c-0.414-0.466-0.85-0.915-1.299-1.303c-1.724-1.485-3.085-3.186-4.653-4.818
								c-2.598-2.709-4.922-5.682-7.586-8.334c-0.065-0.063-0.185,0.143-0.133,0.195c2.598,2.768,4.749,5.905,7.382,8.645
								c2.551,2.66,4.948,5.49,7.61,8.056C186.671,185.858,186.229,185.047,185.798,184.23z"/>
							<path style="fill:#FAD194;" d="M187.917,190.303c-0.591-0.8-1.162-1.62-1.811-2.378c-0.105-0.123-0.112-0.26-0.071-0.375
								c-0.305-0.307-0.623-0.611-0.964-0.909c-1.511-1.32-2.916-2.745-4.294-4.206c-1.288-1.364-2.54-2.757-3.74-4.2
								c-0.97-1.169-1.893-2.417-2.896-3.547c-0.104-0.104-0.285,0.211-0.211,0.304c0.991,1.186,1.773,2.52,2.802,3.687
								c1.248,1.415,2.393,2.908,3.681,4.297c1.135,1.233,2.294,2.444,3.526,3.579c1.455,1.341,2.717,2.917,4.232,4.177
								c0.005,0.002,0.006,0,0.014,0C188.095,190.587,188.008,190.443,187.917,190.303z"/>
							<path style="fill:#FAD194;" d="M194.007,185.643c0.033-0.074,0.053-0.161,0.025-0.199c-0.473-0.731-1.12-1.227-1.799-1.766
								c-1.139-0.907-2.173-1.918-3.202-2.942c-1.552-1.548-3.076-3.112-4.682-4.607c-3.712-3.444-7.809-6.449-11.522-9.903
								c-0.058-0.057-0.218,0.189-0.148,0.253c3.654,3.54,7.676,6.664,11.363,10.167c2.964,2.809,5.753,5.703,8.832,8.363
								C193.241,185.233,193.62,185.447,194.007,185.643z"/>
							<path style="fill:#FAD194;" d="M192.872,179.843c-1.787-2.262-3.817-4.388-5.686-6.583c-2.184-2.569-4.357-5.142-6.597-7.656
								c-0.305-0.148-0.601-0.301-0.906-0.445c2.435,2.823,4.773,5.744,7.15,8.622c1.421,1.723,2.886,3.414,4.33,5.133
								c0.98,1.171,1.948,2.602,3.066,3.616c0.021,0.026,0.052,0.016,0.082,0.008C193.749,181.692,193.3,180.775,192.872,179.843z"
								/>
						</g>
						<path style="opacity:0.4;fill:#DE7E38;" d="M59.249,50.858c-0.781-2.924,0.901-4.272,2.896-6.106
							c2.597-2.394,4.645-3.553,7.873-1.458c1.792,1.168,3.547,2.393,5.287,3.642c-2.688-3.161-5.37-6.334-8.046-9.509
							c-0.548-0.647-9.314-11.019-9.175-11.138L44.823,37.871c1.362-1.185,10.6,9.438,15.281,14.968
							C59.742,52.208,59.434,51.551,59.249,50.858z"/>
						<path style="opacity:0.6;fill:#FAD194;" d="M171.318,175.925c-8.385-9.357-17.392-18.109-25.207-27.989
							c-3.948-4.992-8.153-9.797-12.197-14.717c-4.177-5.091-8.027-10.382-12.11-15.533c-2.624-3.317-5.163-6.743-7.705-10.175
							c-5.55-6.334-11.147-12.632-16.51-19.132c-7.238-8.775-13.926-18.233-22.591-25.681c15.53,18.557,30.659,37.463,45.988,56.183
							c2.104,2.574,3.701,5.03,5.154,7.03c1.937,2.668,4.237,5.079,6.251,7.686c3.884,5.037,8.133,9.739,12.108,14.689
							c8.148,10.126,17.545,18.917,26.186,28.554C170.971,177.152,171.553,176.185,171.318,175.925z"/>
					</g>
				</g>
				<g>
					<g>
						<g>
							<g>
								<path style="fill:#ACACAC;" d="M41.773,69.599L24.461,49.774c0,0-1.762,3.364-4.007,2.802l18.079,20.697
									C38.533,73.273,38.936,70.674,41.773,69.599z"/>
								<path style="fill:#5C2F10;" d="M38.528,74.354c-0.307,0-0.604-0.13-0.812-0.367L19.639,53.288
									c-0.312-0.357-0.356-0.874-0.109-1.276c0.249-0.406,0.731-0.603,1.189-0.487c1.099,0.282,2.359-1.448,2.781-2.253
									c0.165-0.318,0.478-0.533,0.834-0.575c0.353-0.042,0.709,0.095,0.941,0.365l17.312,19.824
									c0.235,0.266,0.323,0.631,0.236,0.976c-0.086,0.345-0.336,0.626-0.667,0.75c-2.182,0.827-2.542,2.757-2.555,2.837
									c-0.072,0.413-0.376,0.75-0.778,0.865C38.727,74.341,38.626,74.354,38.528,74.354z M22.548,53.326l15.641,17.907
									c0.39-0.654,0.978-1.372,1.86-1.963L24.58,51.557C24.088,52.186,23.399,52.896,22.548,53.326z"/>
							</g>
						</g>
					</g>
					<g>
						<g>
							<g>
								<path style="fill:#FFFFFF;" d="M37.769,74.242c1.392-1.629,0.836-2.102,0.836-2.102l-7.778-8.912l-2.28-2.612l-7.783-8.912
									c0,0-0.397-0.607-2.199,0.552c-1.802,1.155-9.336,8.153-9.336,8.153h0.002c-1.003,0.877,2.479,6.505,7.778,12.574
									c5.301,6.07,10.408,10.28,11.415,9.4l0.011,0.015C28.434,82.398,36.387,75.873,37.769,74.242z"/>
								<path style="fill:#5C2F10;" d="M28.06,83.584c-3.144,0-10.982-8.875-11.867-9.888c-3.038-3.478-9.775-11.69-7.807-13.971
									c0.031-0.039,0.068-0.077,0.104-0.111c0.778-0.723,7.657-7.095,9.487-8.271c0.923-0.592,1.688-0.882,2.338-0.882
									c0.695,0,1.086,0.323,1.262,0.529l17.829,20.42c0.146,0.157,0.35,0.457,0.386,0.923c0.059,0.744-0.334,1.599-1.201,2.612
									c-1.4,1.654-8.647,7.614-9.47,8.29c-0.091,0.072-0.189,0.13-0.293,0.172C28.633,83.508,28.379,83.584,28.06,83.584z
									 M10.149,61.031c0.15,1.095,2.392,5.191,7.676,11.24c5.315,6.085,9.083,8.857,10.122,9.124
									c2.331-1.917,7.946-6.613,8.994-7.854c0.397-0.463,0.566-0.766,0.64-0.928L20.158,52.659
									c-0.172,0.05-0.492,0.178-1.009,0.507C17.776,54.049,12.358,58.986,10.149,61.031z"/>
							</g>
						</g>
					</g>
					<g>
						<g>
							<g>
								<path style="fill:#ACACAC;" d="M37.769,74.242c1.392-1.629,0.836-2.102,0.836-2.102l-7.778-8.912l-2.28-2.612l-7.783-8.912
									c0,0-0.397-0.607-2.199,0.552c-1.802,1.155-9.336,8.153-9.336,8.153h0.002c-1.003,0.877,2.479,6.505,7.778,12.574
									c5.301,6.07,10.408,10.28,11.415,9.4l0.011,0.015C28.434,82.398,36.387,75.873,37.769,74.242z"/>
								<path style="fill:#5C2F10;" d="M28.06,83.584c-3.144,0-10.982-8.875-11.867-9.888c-3.038-3.478-9.775-11.69-7.807-13.971
									c0.031-0.039,0.068-0.077,0.104-0.111c0.778-0.723,7.657-7.095,9.487-8.271c0.923-0.592,1.688-0.882,2.338-0.882
									c0.695,0,1.086,0.323,1.262,0.529l17.829,20.42c0.146,0.157,0.35,0.457,0.386,0.923c0.059,0.744-0.334,1.599-1.201,2.612
									c-1.4,1.654-8.647,7.614-9.47,8.29c-0.091,0.072-0.189,0.13-0.293,0.172C28.633,83.508,28.379,83.584,28.06,83.584z
									 M10.149,61.031c0.15,1.095,2.392,5.191,7.676,11.24c5.315,6.085,9.083,8.857,10.122,9.124
									c2.331-1.917,7.946-6.613,8.994-7.854c0.397-0.463,0.566-0.766,0.64-0.928L20.158,52.659
									c-0.172,0.05-0.492,0.178-1.009,0.507C17.776,54.049,12.358,58.986,10.149,61.031z"/>
							</g>
						</g>
					</g>
					<g>
						<path style="fill:#696A6D;" d="M38.604,72.141l-7.003-8.029c-3.263,3.061-7.3,7.375-11.83,7.323
							c-5.545-0.068-7.585-4.778-10.185-8.811c1.1,2.372,3.843,6.265,7.422,10.359c5.301,6.07,10.408,10.28,11.415,9.4l0.011,0.015
							c0,0,7.953-6.525,9.335-8.156C39.161,72.613,38.604,72.141,38.604,72.141z"/>
					</g>
					<g>
						<g>
							<g>
								<path style="fill:#ACACAC;" d="M86.729,58.479c0.256-0.528,0.405-1.056,0.365-1.594
									c-2.093-3.032-9.646-14.032-11.884-18.104c-2.348-4.271-0.532-7.29-0.532-7.29s4.477-7.639,11.388-10.331
									c6.915-2.692,30.063,6.303,30.923,4.713c0.854-1.59-0.021-1.947-0.021-1.947S100.26,15.415,89.78,10.902
									c-13.238-5.703-27.514,3.739-27.514,3.739s-35.283,30.939-37.713,32.94c-2.402,1.974,0.546,4.981,1.185,5.502
									c0.357,0.297,14.326,16.402,14.326,16.402c3.535,2.605,3.859-0.642,3.859-0.642s5.287-10.094,10.454-10.049
									c5.158,0.051,16.126,10.111,16.126,10.111c2.436,2.387,2.646,1.426,2.646,1.426L86.729,58.479z"/>
								<path style="fill:#5C2F10;" d="M72.846,71.608L72.846,71.608c-0.795,0-1.723-0.578-3.1-1.927
									c-2.94-2.698-11.49-9.766-15.379-9.801c-3.642,0-7.928,6.561-9.397,9.301c-0.203,1.197-1.067,2.399-2.59,2.399
									c-0.873,0-1.842-0.399-2.956-1.223c-0.066-0.048-0.125-0.103-0.177-0.162c-5.449-6.279-13.738-15.811-14.252-16.324l0,0
									c-0.004,0-2.446-2.036-2.451-4.45c-0.003-1.038,0.452-1.963,1.322-2.679c2.387-1.964,37.334-32.607,37.686-32.916
									c0.036-0.033,0.075-0.063,0.115-0.091c0.356-0.235,8.811-5.75,18.926-5.75c3.425,0,6.661,0.647,9.616,1.92
									c10.391,4.472,27.084,12.97,27.252,13.056c0.075,0.027,0.612,0.292,0.865,0.997c0.244,0.682,0.117,1.501-0.385,2.43
									c-0.272,0.505-0.81,0.761-1.596,0.761c-1.445,0-4.384-0.78-8.451-1.856c-5.981-1.585-13.427-3.556-18.339-3.556
									c-1.317,0-2.36,0.146-3.096,0.434c-6.485,2.527-10.805,9.794-10.846,9.867c-0.062,0.104-1.446,2.598,0.544,6.22
									c2.186,3.978,9.606,14.793,11.827,18.01c0.11,0.161,0.176,0.345,0.19,0.538c0.05,0.688-0.105,1.39-0.474,2.148
									c-0.063,0.13-0.151,0.247-0.262,0.342L74.002,71.028C73.773,71.351,73.382,71.608,72.846,71.608z M40.803,68.684
									c0.917,0.657,1.406,0.73,1.577,0.73c0.379,0,0.462-0.661,0.468-0.688c0.015-0.131,0.056-0.271,0.115-0.386
									c0.57-1.087,5.731-10.627,11.378-10.627c5.467,0.049,15.74,9.334,16.895,10.395c0.729,0.712,1.182,1.05,1.433,1.207
									l13.171-11.498c0.092-0.22,0.148-0.417,0.17-0.6c-2.448-3.55-9.577-13.96-11.75-17.915c-2.614-4.762-0.596-8.225-0.508-8.37
									c0.185-0.316,4.742-7.984,11.922-10.782c1.003-0.39,2.272-0.58,3.883-0.58c5.194,0,12.789,2.012,18.894,3.628
									c3.336,0.882,6.494,1.721,7.76,1.777c0.031-0.08,0.049-0.146,0.058-0.195c-2.281-1.151-17.318-8.755-26.915-12.885
									c-2.684-1.155-5.63-1.743-8.759-1.743c-9.032,0-16.927,4.881-17.673,5.356c-2.134,1.869-35.289,30.944-37.679,32.906
									c-0.472,0.39-0.533,0.74-0.53,1c0.002,1.095,1.256,2.455,1.713,2.828C26.781,52.544,34.419,61.323,40.803,68.684z"/>
							</g>
						</g>
					</g>
					<g>
						<path style="fill:#696A6D;" d="M76.891,67.074c-5.002-6.303-11.788-14.044-19.563-15.737c-5.14-1.125-9.704,0.015-13.744,3.39
							c-1.828,1.522-3.583,2.963-5.975,3.395c-4.582,0.822-8.66-5.303-10.262-8.737c-0.587-1.266-0.787-2.463-0.7-3.598
							c-1.068,0.923-1.815,1.563-2.094,1.796c-2.402,1.974,0.546,4.981,1.185,5.502c0.357,0.297,14.326,16.402,14.326,16.402
							c3.535,2.605,3.859-0.642,3.859-0.642s5.287-10.094,10.454-10.049c5.158,0.051,16.126,10.111,16.126,10.111
							c2.436,2.387,2.646,1.426,2.646,1.426L76.891,67.074z"/>
						<path style="fill:#696A6D;" d="M117.307,24.356c-0.091,0.018-0.197,0.012-0.318-0.01c-8.804-2.143-16.818-6.705-25.953-7.878
							c-8.458-1.092-15.247,1.72-21.014,7.98c-3.167,3.44-6.65,8.257-4.522,13.132c1.452,3.318,13.917,18.851,18.316,23.438
							l2.913-2.539c0.256-0.528,0.405-1.056,0.365-1.594c-2.093-3.032-9.646-14.032-11.884-18.104
							c-2.348-4.271-0.532-7.29-0.532-7.29s4.477-7.639,11.388-10.331c6.915-2.692,30.063,6.303,30.923,4.713
							C117.393,25.118,117.405,24.646,117.307,24.356z"/>
					</g>
					<path style="opacity:0.6;fill:#9FA1A4;" d="M62.828,14.776c2.414-1.03,5.004-2.082,7.592-2.57
						c5.319-0.994,10.926-0.737,16.115,0.82c5.75,1.724,11.208,4.237,16.716,6.598c4.62,1.98,9.387,3.583,14.069,5.409
						c0.192-0.877-0.353-1.106-0.353-1.106S100.26,15.415,89.78,10.902c-13.238-5.703-27.514,3.739-27.514,3.739
						s-0.438,0.388-1.217,1.072C61.628,15.363,62.218,15.043,62.828,14.776z"/>
					<path style="opacity:0.8;fill:#9FA1A4;" d="M16.021,68.994c0.913,0.697,1.862,1.337,2.839,1.941
						c-2.719-3.027-5.544-6.587-4.971-7.752c1.065-2.158,5.64-6.13,5.64-6.13s-0.958-1.528-5.169,2.147c0,0-3.531,1.703-1.83,4.7
						C13.231,65.145,14.49,67.048,16.021,68.994z"/>
					<path style="opacity:0.8;fill:#9FA1A4;" d="M35.681,53.186c0,0-6.271-5.251-4.2-6.972c2.068-1.728,30.521-25.912,30.521-25.912
						s6.373-3.915,10.46-2.165c0,0-5.029-0.255-10.073,4.024c-5.047,4.282-28.001,25.558-28.001,25.558S32.361,48.92,35.681,53.186z
						"/>
					<path style="opacity:0.6;fill:#9FA1A4;" d="M78.87,23.281c0,0,5.964-5.604,13.34-4.385c7.379,1.229,23.215,6.53,23.215,6.53
						s-22.027-10.175-29.046-8.88C79.36,17.834,73.635,26.557,78.87,23.281z"/>
				</g>
			</g>
		</g>
	</g>
</g>
</svg>
