<?xml version="1.0" encoding="utf-8"?>
<!-- Generator: Adobe Illustrator 27.5.0, SVG Export Plug-In . SVG Version: 6.00 Build 0)  -->
<svg version="1.1" xmlns="http://www.w3.org/2000/svg" xmlns:xlink="http://www.w3.org/1999/xlink" x="0px" y="0px"
	 viewBox="0 0 2500 2500" style="enable-background:new 0 0 2500 2500;" xml:space="preserve">
<g id="Background">
	<rect style="fill:#FFFFFF;" width="2500" height="2500"/>
</g>
<g id="Illustration">
	<g id="Mobile_expense_management_1_">
		<circle style="fill:#F2E6DC;" cx="1250" cy="1250" r="915"/>
		<g>
			<g>
				<g>
					<rect x="1419.823" y="468.587" style="fill:#E6D0BE;" width="677.068" height="1277.336"/>
					<path style="fill:#363E44;" d="M2067.303,1823.553h-622.574c-43.375,0-78.664-35.288-78.664-78.663V457.478
						c0-43.375,35.289-78.663,78.664-78.663h622.574c43.375,0,78.663,35.288,78.663,78.663V1744.89
						C2145.966,1788.265,2110.678,1823.553,2067.303,1823.553z M1444.729,383.224c-40.944,0-74.254,33.309-74.254,74.253V1744.89
						c0,40.944,33.31,74.253,74.254,74.253h622.574c40.943,0,74.253-33.309,74.253-74.253V457.478
						c0-40.944-33.31-74.253-74.253-74.253H1444.729z"/>
				</g>
			</g>
			<g>
				<g>
					<rect x="1565.738" y="601.213" style="fill:#D3BBA3;" width="428.511" height="367.398"/>
					<rect x="1532.933" y="560.988" style="fill:#FFFFFF;" width="425.564" height="367.398"/>
				</g>
				<g>
					<path style="fill:#8B865C;" d="M1693.782,671.896c6.726-3.368,13.702-5.707,20.749-7.084l-2.671-38.203
						c-11.917,1.841-23.749,5.529-35.099,11.211c-27.566,13.802-47.47,36.917-57.819,63.647l36.68,10.811
						C1662.954,695.336,1676.035,680.782,1693.782,671.896z"/>
					<path style="fill:#E2A18D;" d="M1653.521,771.848c-4.7-13.255-5.744-27.127-3.552-40.367l-36.68-10.813
						c-4.591,22.278-2.893,45.992,6.025,68.307L1653.521,771.848z"/>
					<path style="fill:#D87355;" d="M1840.96,700.378l-34.207,17.128c13.523,38.137-3.204,81.397-40.261,99.952
						c-37.057,18.555-81.663,6.004-104.028-27.706l-34.207,17.128c31.905,52.465,99.417,72.612,155.257,44.653
						C1839.353,823.574,1863.75,757.407,1840.96,700.378z"/>
					<path style="fill:#EFBC73;" d="M1734.478,663.436c25.045,1.384,48.85,14.339,63.331,36.166l34.208-17.128
						c-21.804-35.855-60.235-56.613-100.21-57.239L1734.478,663.436z"/>
				</g>
			</g>
			<g>
				<path style="fill:#D3BBA3;" d="M2046.86,1258.389h-519.082c-1.218,0-2.205-0.986-2.205-2.205v-133.573
					c0-1.219,0.987-2.205,2.205-2.205h519.082c1.218,0,2.205,0.986,2.205,2.205v133.573
					C2049.065,1257.403,2048.078,1258.389,2046.86,1258.389z M1529.983,1253.979h514.672v-129.163h-514.672V1253.979z"/>
				<g>
					<path style="fill:#D3BBA3;" d="M1982.693,1078.658c-22.137-6.71-24.758-39.425-43.223-38.959
						c-45.721,1.154-66.479,143.861-101.154,141.977c-28.624-1.556-33.311-99.828-66.459-103.017
						c-35.382-3.405-60.33,105.64-98.543,103.017c-33.554-2.303-32.216-87.61-91.668-116.168
						c-9.989-4.798-20.455-7.394-30.951-8.423v171.485h473.248v-161.453C2006.083,1079.386,1992.791,1081.719,1982.693,1078.658z"/>
				</g>
			</g>
			<g>
				<path style="fill:#8B865C;" d="M1934.24,1673.048h-388.409c-1.218,0-2.205-0.986-2.205-2.205v-292.877
					c0-1.219,0.987-2.205,2.205-2.205c1.218,0,2.205,0.986,2.205,2.205v290.672h386.204c1.218,0,2.205,0.986,2.205,2.205
					C1936.445,1672.062,1935.458,1673.048,1934.24,1673.048z"/>
				<g>
					<path style="fill:#8B865C;" d="M1832.197,1475.484c-0.75,0-1.481-0.383-1.895-1.074c-0.624-1.044-0.284-2.399,0.761-3.023
						l53.01-31.681c1.043-0.624,2.398-0.284,3.024,0.762c0.624,1.044,0.284,2.399-0.761,3.023l-53.01,31.681
						C1832.972,1475.383,1832.582,1475.484,1832.197,1475.484z"/>
					<path style="fill:#8B865C;" d="M1798.632,1467.014c-0.718,0-1.421-0.349-1.845-0.995l-71.823-109.343
						c-0.669-1.016-0.385-2.383,0.633-3.053c1.018-0.67,2.384-0.385,3.053,0.633l71.823,109.343
						c0.669,1.016,0.385,2.383-0.633,3.053C1799.467,1466.897,1799.047,1467.014,1798.632,1467.014z"/>
					<path style="fill:#8B865C;" d="M1639.725,1396.037c-0.659,0-1.311-0.295-1.746-0.857c-0.744-0.965-0.566-2.349,0.397-3.092
						l55.798-43.106c0.962-0.743,2.346-0.568,3.093,0.396c0.744,0.965,0.566,2.349-0.397,3.092l-55.798,43.106
						C1640.671,1395.887,1640.197,1396.037,1639.725,1396.037z"/>
					<path style="fill:#8B865C;" d="M1621.628,1433.45c-13.903,0-25.213-11.31-25.213-25.213s11.31-25.213,25.213-25.213
						c13.903,0,25.213,11.311,25.213,25.213S1635.531,1433.45,1621.628,1433.45z M1621.628,1387.433
						c-11.471,0-20.804,9.332-20.804,20.804s9.333,20.804,20.804,20.804s20.804-9.332,20.804-20.804
						S1633.099,1387.433,1621.628,1387.433z"/>
					<path style="fill:#8B865C;" d="M1714.392,1361.867c-13.903,0-25.213-11.31-25.213-25.213c0-13.903,11.31-25.213,25.213-25.213
						s25.213,11.311,25.213,25.213C1739.605,1350.557,1728.295,1361.867,1714.392,1361.867z M1714.392,1315.85
						c-11.471,0-20.804,9.332-20.804,20.804c0,11.472,9.333,20.804,20.804,20.804s20.804-9.332,20.804-20.804
						C1735.196,1325.182,1725.863,1315.85,1714.392,1315.85z"/>
					<path style="fill:#8B865C;" d="M1811.927,1509.497c-13.903,0-25.213-11.31-25.213-25.213s11.31-25.213,25.213-25.213
						s25.213,11.311,25.213,25.213S1825.83,1509.497,1811.927,1509.497z M1811.927,1463.48c-11.471,0-20.804,9.332-20.804,20.804
						s9.333,20.804,20.804,20.804s20.804-9.332,20.804-20.804S1823.398,1463.48,1811.927,1463.48z"/>
					<path style="fill:#8B865C;" d="M1905.43,1455.834c-13.903,0-25.213-11.31-25.213-25.213c0-13.903,11.311-25.213,25.213-25.213
						c13.903,0,25.213,11.31,25.213,25.213C1930.643,1444.524,1919.333,1455.834,1905.43,1455.834z M1905.43,1409.817
						c-11.471,0-20.804,9.332-20.804,20.804c0,11.472,9.333,20.804,20.804,20.804c11.471,0,20.804-9.332,20.804-20.804
						C1926.234,1419.149,1916.901,1409.817,1905.43,1409.817z"/>
				</g>
				<rect x="1594.439" y="1467.798" style="fill:#FFFFFF;" width="57.222" height="156.899"/>
				<rect x="1688.87" y="1436.541" style="fill:#FFFFFF;" width="57.222" height="188.156"/>
				<rect x="1783.3" y="1523.304" style="fill:#FFFFFF;" width="57.222" height="101.393"/>
				<rect x="1877.73" y="1494.188" style="fill:#FFFFFF;" width="57.222" height="130.509"/>
			</g>
		</g>
		<g>
			<g>
				<path style="fill:#FFFFFF;" d="M1064.033,2073.825h-90.575c-1.218,0-2.205-0.986-2.205-2.205v-24.933
					c-11.754-2.25-23.437-5.376-34.782-9.304l-12.458,21.579c-0.611,1.051-1.956,1.415-3.012,0.807l-78.441-45.287
					c-1.054-0.609-1.416-1.957-0.807-3.012l12.489-21.633c-9.053-7.85-17.598-16.396-25.439-25.442l-21.633,12.49
					c-0.508,0.288-1.113,0.366-1.673,0.22c-0.565-0.151-1.047-0.521-1.339-1.027l-45.287-78.441
					c-0.292-0.506-0.371-1.109-0.22-1.673c0.151-0.564,0.521-1.046,1.027-1.339l21.579-12.456
					c-3.927-11.345-7.053-23.028-9.304-34.784h-24.933c-1.218,0-2.205-0.986-2.205-2.205v-90.574c0-1.219,0.987-2.205,2.205-2.205
					l24.933-0.002c2.251-11.758,5.376-23.441,9.304-34.782l-21.579-12.458c-1.055-0.609-1.416-1.957-0.807-3.012l45.287-78.441
					c0.293-0.506,0.774-0.876,1.339-1.027c0.56-0.151,1.165-0.073,1.673,0.22l21.633,12.49c7.843-9.047,16.389-17.593,25.439-25.439
					l-12.489-21.633c-0.608-1.055-0.246-2.403,0.807-3.012l78.441-45.287c1.056-0.609,2.401-0.25,3.012,0.807l12.455,21.575
					c10.499-3.703,22.491-7.695,34.785-10.115v-24.117c0-1.219,0.987-2.205,2.205-2.205h90.575c1.218,0,2.205,0.986,2.205,2.205
					v24.933c11.764,2.252,23.448,5.376,34.782,9.304l12.458-21.579c0.609-1.053,1.954-1.417,3.012-0.807l78.441,45.287
					c1.055,0.609,1.416,1.957,0.807,3.012l-12.489,21.633c9.045,7.842,17.59,16.385,25.439,25.439l21.633-12.49
					c0.507-0.293,1.111-0.37,1.673-0.22c0.565,0.151,1.047,0.521,1.339,1.027l45.287,78.441c0.608,1.055,0.248,2.403-0.807,3.012
					l-21.579,12.458c3.927,11.341,7.053,23.023,9.304,34.782h24.933c1.218,0,2.205,0.986,2.205,2.205v90.576
					c0,1.219-0.987,2.205-2.205,2.205h-24.933c-2.251,11.756-5.375,23.439-9.304,34.784l21.579,12.456
					c0.506,0.293,0.876,0.775,1.027,1.339c0.152,0.564,0.072,1.167-0.22,1.673l-45.287,78.441c-0.293,0.506-0.774,0.876-1.339,1.027
					c-0.562,0.151-1.166,0.073-1.673-0.22l-21.633-12.49c-7.847,9.052-16.392,17.595-25.439,25.442l12.489,21.633
					c0.608,1.055,0.248,2.403-0.807,3.012l-78.441,45.287c-1.055,0.607-2.403,0.248-3.012-0.807l-12.458-21.579
					c-11.345,3.927-23.028,7.054-34.782,9.304v24.933C1066.238,2072.839,1065.251,2073.825,1064.033,2073.825z M975.663,2069.416
					h86.166v-24.559c0-1.064,0.76-1.977,1.807-2.168c12.733-2.338,25.398-5.727,37.644-10.068c1-0.359,2.113,0.054,2.646,0.975
					l12.27,21.252l74.622-43.082l-12.3-21.305c-0.531-0.919-0.331-2.089,0.478-2.78c9.852-8.417,19.118-17.682,27.539-27.539
					c0.69-0.812,1.86-1.005,2.779-0.478l21.304,12.301l43.082-74.621l-21.252-12.269c-0.92-0.532-1.331-1.645-0.975-2.646
					c4.341-12.245,7.729-24.91,10.068-37.646c0.192-1.046,1.104-1.807,2.168-1.807h24.559v-86.167h-24.559
					c-1.064,0-1.977-0.76-2.168-1.806c-2.34-12.738-5.727-25.403-10.068-37.643c-0.355-1.001,0.055-2.114,0.975-2.646l21.252-12.271
					l-43.082-74.622l-21.304,12.301c-0.917,0.53-2.089,0.334-2.779-0.478c-8.423-9.859-17.689-19.124-27.539-27.537
					c-0.809-0.691-1.009-1.86-0.478-2.78l12.3-21.305l-74.622-43.082l-12.27,21.252c-0.534,0.922-1.649,1.326-2.647,0.975
					c-12.233-4.339-24.898-7.725-37.643-10.068c-1.046-0.192-1.807-1.104-1.807-2.168v-24.559h-86.166v23.736
					c0,1.064-0.76,1.977-1.807,2.168c-13.286,2.442-26.398,6.901-37.643,10.891c-1.001,0.358-2.115-0.056-2.647-0.975l-12.27-21.252
					l-74.622,43.082l12.3,21.305c0.531,0.919,0.331,2.089-0.478,2.78c-9.857,8.419-19.122,17.684-27.539,27.537
					c-0.69,0.81-1.858,1.008-2.779,0.478l-21.304-12.301l-43.082,74.622l21.252,12.271c0.92,0.532,1.331,1.645,0.975,2.646
					c-4.341,12.241-7.728,24.905-10.068,37.643c-0.192,1.046-1.105,1.806-2.168,1.806h-24.559v86.167h24.559
					c1.064,0,1.977,0.76,2.168,1.807c2.339,12.736,5.727,25.401,10.068,37.646c0.355,1.001-0.055,2.114-0.975,2.646l-21.252,12.269
					l43.082,74.621l21.304-12.301c0.919-0.525,2.089-0.332,2.779,0.478c8.415,9.851,17.68,19.116,27.539,27.539
					c0.809,0.691,1.009,1.86,0.478,2.78l-12.3,21.305l74.622,43.082l12.27-21.252c0.534-0.919,1.648-1.328,2.646-0.975
					c12.246,4.341,24.912,7.73,37.644,10.068c1.046,0.192,1.807,1.105,1.807,2.168V2069.416z M1019.101,1963.597
					c-43.378,0-84.964-16.543-116.241-47.819c-45.534-45.535-59.839-112.926-37.331-175.875
					c15.605-43.644,49.586-77.625,93.23-93.229c62.949-22.507,130.342-8.199,175.873,37.338
					c45.532,45.535,59.837,112.926,37.329,175.873c-15.606,43.644-49.587,77.625-93.231,93.227
					C1059.021,1960.159,1038.875,1963.597,1019.101,1963.597z M1018.373,1640.604c-19.274,0-38.912,3.35-58.13,10.221
					c-42.395,15.158-75.404,48.168-90.563,90.563c-21.926,61.326-8.018,126.954,36.298,171.27
					c44.314,44.32,109.943,58.223,171.269,36.302c42.394-15.156,75.403-48.164,90.563-90.561
					c21.927-61.326,8.019-126.954-36.296-171.27C1101.085,1656.699,1060.606,1640.604,1018.373,1640.604z M1169.886,1859.142h0.022
					H1169.886z"/>
			</g>
		</g>
		<g>
			<path style="fill:#EFBC73;" d="M1063.182,1444.878l101.765,715.992c-376.802-17.936-570.558-224.123-663.975-401.499
				l19.583-225.077L1063.182,1444.878z"/>
			<g>
				<path style="fill:#FFFFFF;" d="M866.688,854.367c0,0,74.491-102.354,209.039,34.061
					c134.548,136.415,199.263,361.981,199.263,361.981l-204.809,78.782L866.688,854.367z"/>
				<path style="fill:#8B865C;" d="M498.815,954.325c85.708-39.362,226.811-94.104,381.315-112.767l295.176,701.231l-591.46,105.966
					l-63.291-121.966l-31.14,138.884l-60.083,20.447l-16.05-598.216C413.283,1030.497,446.647,978.284,498.815,954.325z"/>
				<path style="fill:#FFFFFF;" d="M548.352,944.258c0,0,123.765-64.594,250.851-81.734l8.567,241.37L548.352,944.258z"/>
				<polygon style="fill:#363E44;" points="1351.093,1475.827 1032.231,1475.827 1176.411,1039.803 1495.273,1039.803 				"/>
				<g>
					<path style="fill:#E2A18D;" d="M1416.567,1303.88c22.678,6.4,29.035,17.894,26.306,29.089
						c-2.729,11.195-13.511,17.851-36.189,11.451c-22.678-6.4-48.664-23.434-45.935-34.629
						C1363.478,1298.597,1393.889,1297.48,1416.567,1303.88z"/>
					<path style="fill:#E2A18D;" d="M1421.036,1263.766c26.284,7.418,33.652,20.74,30.489,33.714
						c-3.163,12.975-15.66,20.69-41.944,13.272c-26.284-7.418-56.402-27.161-53.239-40.136
						C1359.505,1257.642,1394.752,1256.348,1421.036,1263.766z"/>
					<path style="fill:#E2A18D;" d="M1432.396,1238.952c22.678,6.4,33.46-0.256,36.189-11.451
						c2.729-11.195-3.628-22.689-26.306-29.089c-22.678-6.4-53.089-5.283-55.818,5.911
						C1383.731,1215.518,1409.718,1232.552,1432.396,1238.952z"/>
					<path style="fill:#E2A18D;" d="M1417.99,1276.262c26.284,7.418,38.78-0.297,41.943-13.272s-4.205-26.296-30.489-33.714
						c-26.285-7.418-61.531-6.124-64.694,6.851C1361.587,1249.101,1391.705,1268.844,1417.99,1276.262z"/>
				</g>
				<g>
					<path style="fill:#FFFFFF;" d="M987.969,1117.591c0,0-13.021-37.547-54.088,1.003
						c-41.066,38.55-122.057,130.066-176.321,117.736C703.296,1224,600.824,907.837,431.913,990.48
						c-168.912,82.643-35.053,346.536,40.829,434.737c75.882,88.201,201.608,169.808,343.235,153.676
						c141.627-16.132,252.279-268.486,267.68-300.06C1111.328,1222.102,987.969,1117.591,987.969,1117.591z"/>
					<g>
						<path style="fill:#E2A18D;" d="M992.072,1085.823c0,0,95.533-157.975,160.059-136.578s-19.889,27.478-15.816,50.07
							c0,0,41.517,9.246,32.594,34.528c0,0,19.115,15.597,17.839,28.105c0,0,40.941,33.27,20.652,50.124
							c-17.286,14.359-24.306-14.666-43.05-11.299c-18.745,3.368-25.442,78.663-63.352,81.003l-25.27,56.815
							C1075.728,1238.591,985.737,1138.377,992.072,1085.823z"/>
						<path style="fill:#363E44;" d="M1147.136,1066.141c-0.566,0-1.133-0.217-1.563-0.65c-0.859-0.863-0.855-2.259,0.009-3.118
							c10.012-9.952,30.393-4.89,31.255-4.67c1.179,0.301,1.89,1.501,1.59,2.681c-0.3,1.178-1.492,1.897-2.681,1.591
							c-0.186-0.043-18.824-4.661-27.055,3.525C1148.26,1065.928,1147.698,1066.141,1147.136,1066.141z"/>
						<path style="fill:#363E44;" d="M1130.964,1036.04c-0.631,0-1.257-0.267-1.692-0.79c-0.777-0.93-0.661-2.31,0.266-3.094
							c0.462-0.388,11.514-9.446,29.272-1.99c1.123,0.471,1.65,1.763,1.179,2.887c-0.47,1.12-1.765,1.656-2.886,1.178
							c-15.177-6.371-24.346,0.986-24.729,1.303C1131.961,1035.875,1131.462,1036.04,1130.964,1036.04z"/>
					</g>
					<path style="fill:#FFFFFF;" d="M1001.023,1065.26l-26.328,41.124c0,0,42.659,107.805,101.034,144.025l21.297-42.443
						C1097.024,1207.965,1030.384,1110.667,1001.023,1065.26z"/>
					<path style="fill:#E6D0BE;" d="M1070.181,1243.653c-0.271,0-0.548-0.05-0.815-0.157
						c-49.409-19.699-74.792-89.061-75.849-92.004c-0.411-1.145,0.184-2.409,1.331-2.821c1.14-0.413,2.408,0.183,2.82,1.331
						c0.253,0.702,25.781,70.44,73.331,89.398c1.131,0.45,1.683,1.733,1.232,2.864
						C1071.887,1243.127,1071.058,1243.653,1070.181,1243.653z"/>
					<path style="fill:#E6D0BE;" d="M714.093,1299.624c-1.449,0-2.886-0.168-4.262-0.512c-3.794-0.952-6.81-3.195-8.494-6.317
						c-4.063-7.536,0.703-16.235,3.906-20.75c7.937-11.196,19.344-20.121,32.121-25.131c1.136-0.446,2.414,0.112,2.858,1.247
						c0.445,1.135-0.114,2.414-1.248,2.857c-11.986,4.703-22.689,13.076-30.134,23.577c-2.612,3.682-6.553,10.669-3.62,16.108
						c1.394,2.588,3.861,3.675,5.684,4.132c3.61,0.906,7.979,0.146,11.119-1.933c5.985-3.97,9.41-11.412,12.163-17.391
						c0.508-1.107,1.819-1.593,2.924-1.081c1.107,0.508,1.59,1.817,1.081,2.924c-2.985,6.487-6.702,14.56-13.731,19.221
						C721.462,1298.56,717.74,1299.624,714.093,1299.624z"/>
					<path style="fill:#E6D0BE;" d="M777.293,1298.33c-0.857,0-1.672-0.502-2.029-1.339l-16.179-37.936
						c-0.478-1.122,0.043-2.416,1.164-2.894c1.119-0.478,2.415,0.043,2.893,1.163l16.179,37.936
						c0.478,1.122-0.043,2.416-1.164,2.894C777.875,1298.274,777.582,1298.33,777.293,1298.33z"/>
					<path style="fill:#E6D0BE;" d="M1000.217,1115.666c-5.707,0-10.349-4.642-10.349-10.348c0-5.708,4.642-10.35,10.349-10.35
						s10.349,4.642,10.349,10.35C1010.566,1111.024,1005.924,1115.666,1000.217,1115.666z M1000.217,1099.377
						c-3.275,0-5.939,2.666-5.939,5.941c0,3.275,2.664,5.938,5.939,5.938s5.94-2.663,5.94-5.938
						C1006.156,1102.043,1003.492,1099.377,1000.217,1099.377z"/>
					<path style="fill:#E6D0BE;" d="M1080.221,1243.653c-0.332,0-0.67-0.075-0.987-0.235c-1.087-0.545-1.528-1.871-0.981-2.958
						l13.531-26.966c0.545-1.085,1.869-1.531,2.959-0.982c1.087,0.545,1.528,1.871,0.981,2.959l-13.531,26.966
						C1081.807,1243.207,1081.03,1243.653,1080.221,1243.653z"/>
				</g>
				<g>
					<path style="fill:#E0AA63;" d="M635.963,968.01c-3.246,0-6.64-1.089-9.919-3.234c-4.851-3.169-8.913-8.315-11.438-14.493
						c-5.324-13.026-2.057-26.731,7.283-30.549c4.668-1.908,10.053-1.126,15.159,2.213c4.85,3.169,8.912,8.315,11.436,14.493
						c5.325,13.027,2.058,26.731-7.282,30.549l0,0C639.533,967.672,637.771,968.01,635.963,968.01z M640.369,964.948h0.022H640.369z
						 M627.118,923.132c-1.242,0-2.438,0.226-3.56,0.685c-7.089,2.898-9.274,14.023-4.869,24.8
						c2.189,5.355,5.657,9.784,9.767,12.469c3.855,2.519,7.788,3.167,11.079,1.822c7.089-2.898,9.274-14.023,4.868-24.8
						c-2.189-5.355-5.657-9.784-9.767-12.469C632.095,923.978,629.52,923.132,627.118,923.132z"/>
					<path style="fill:#E0AA63;" d="M656.948,989.965c-5.778,0-12.277-2.149-18.053-6.425c-11.31-8.376-15.628-21.788-9.624-29.896
						c6.005-8.109,20.09-7.893,31.403,0.482c11.311,8.376,15.629,21.788,9.623,29.896l0,0
						C667.358,987.991,662.485,989.965,656.948,989.965z M642.581,952.033c-4.123,0-7.664,1.395-9.766,4.233
						c-4.557,6.156-0.652,16.801,8.704,23.73c9.357,6.929,20.679,7.557,25.234,1.404l0,0c4.558-6.156,0.654-16.801-8.704-23.73
						C653.009,953.939,647.396,952.033,642.581,952.033z M668.525,982.711h0.021H668.525z"/>
					<path style="fill:#E0AA63;" d="M685.665,1003.952c-2.824,0-5.775-0.37-8.748-1.152c-6.453-1.692-12.088-5.047-15.864-9.441
						c-3.974-4.625-5.457-9.859-4.176-14.738c1.281-4.879,5.144-8.712,10.878-10.787c5.448-1.97,12.005-2.127,18.457-0.431
						c13.613,3.576,22.603,14.424,20.04,24.182C704.249,999.211,695.772,1003.952,685.665,1003.952z M677.351,970.641
						c-2.881,0-5.631,0.448-8.095,1.339c-4.331,1.568-7.212,4.324-8.114,7.76c-0.902,3.436,0.254,7.252,3.255,10.744
						c3.199,3.723,8.043,6.582,13.639,8.053c11.262,2.958,22.005-0.665,23.949-8.072c1.945-7.407-5.634-15.841-16.895-18.799
						C682.482,970.981,679.867,970.641,677.351,970.641z"/>
					<path style="fill:#E0AA63;" d="M712.93,1002.105c-10.37,0-19.051-4.935-20.951-12.749c-2.383-9.805,6.803-20.487,20.479-23.812
						c13.673-3.329,26.741,1.946,29.126,11.752l0,0c2.382,9.803-6.804,20.485-20.479,23.812
						C718.326,1001.784,715.573,1002.105,712.93,1002.105z M720.794,968.935c-2.343,0-4.803,0.288-7.295,0.894
						c-11.313,2.75-19.045,11.043-17.236,18.485c1.81,7.441,12.486,11.252,23.799,8.509c11.313-2.752,19.044-11.043,17.236-18.485
						l0,0C735.886,972.536,729.084,968.935,720.794,968.935z"/>
					<path style="fill:#E0AA63;" d="M742.509,990.333c-5.717,0-10.73-2.065-13.67-6.19c-2.928-4.108-3.397-9.528-1.32-15.262
						c1.974-5.448,6.054-10.581,11.487-14.452c11.461-8.169,25.55-8.128,31.406,0.09l0,0c5.855,8.216,1.295,21.547-10.166,29.716
						C754.538,988.303,748.179,990.333,742.509,990.333z M756.798,952.664c-4.741,0-10.242,1.8-15.233,5.357
						c-4.711,3.357-8.227,7.747-9.899,12.363c-1.569,4.33-1.296,8.307,0.765,11.201c4.445,6.236,15.774,5.814,25.256-0.941
						c9.48-6.759,13.578-17.329,9.134-23.566l0,0C764.716,954.124,761.064,952.664,756.798,952.664z"/>
					<path style="fill:#E0AA63;" d="M767.315,964.17c-1.283,0-2.56-0.179-3.812-0.549c-9.674-2.872-14.286-16.185-10.281-29.677
						c4.005-13.494,15.139-22.124,24.805-19.264c0.001,0,0.001,0,0.001,0c9.673,2.872,14.284,16.185,10.279,29.677
						C784.821,956.103,775.937,964.17,767.315,964.17z M774.106,918.524c-6.664,0-13.739,6.843-16.658,16.674
						c-3.313,11.162-0.034,22.016,7.309,24.195c7.336,2.183,16.01-5.129,19.323-16.289c3.313-11.162,0.035-22.016-7.308-24.195
						h0.001C775.899,918.649,775.006,918.524,774.106,918.524z"/>
					<path style="fill:#E0AA63;" d="M776.275,929.199c-4.581,0-9.01-2.308-12.593-6.595c-3.716-4.446-6.1-10.552-6.714-17.197
						c-1.294-14.013,5.828-26.169,15.874-27.1c5.02-0.469,9.944,1.856,13.856,6.537c3.716,4.446,6.1,10.552,6.714,17.197
						c0.614,6.645-0.612,13.085-3.452,18.136c-2.987,5.316-7.399,8.501-12.424,8.964
						C777.116,929.18,776.695,929.199,776.275,929.199z M774.084,882.661c-0.279,0-0.557,0.013-0.834,0.039l0,0
						c-7.628,0.704-12.961,10.71-11.891,22.302c0.533,5.762,2.559,11.009,5.707,14.775c2.952,3.533,6.526,5.292,10.066,4.972
						c3.538-0.325,6.729-2.715,8.985-6.731c2.405-4.278,3.436-9.81,2.905-15.572c-0.532-5.762-2.559-11.009-5.707-14.775
						C780.593,884.416,777.345,882.661,774.084,882.661z M773.046,880.504h0.022H773.046z"/>
				</g>
				<path style="fill:#FFFFFF;" d="M832.032,1154.403c-0.41,0-0.819-0.114-1.179-0.342L531.042,964.338
					c-1.029-0.65-1.335-2.013-0.685-3.042c0.65-1.029,2.011-1.337,3.042-0.682l296.317,187.511l-7.411-274.832
					c-0.033-1.219,0.927-2.231,2.145-2.265c1.219,0.004,2.231,0.926,2.263,2.145l7.523,278.966c0.023,0.814-0.406,1.574-1.114,1.977
					C832.783,1154.308,832.407,1154.403,832.032,1154.403z"/>
			</g>
			<g>
				<path style="fill:#363E44;" d="M450.633,836.41c0,0,275.062,130.824,451.789-100.7c0,0-103.325-106.222-186.762-140.172
					C632.224,561.588,553.169,610.755,450.633,836.41z"/>
				<path style="fill:#363E44;" d="M611.619,617.077c0,0-23.516-124.657-128.754-80.547
					c-74.026,31.028-26.507,100.688,16.628,108.198C543.977,652.473,611.619,617.077,611.619,617.077z"/>
				<path style="fill:#363E44;" d="M611.623,619.282c-0.093,0-0.185-0.007-0.278-0.017c-1.208-0.153-2.065-1.255-1.913-2.463
					c0.076-0.607,7.303-61.121-21.442-81.574c-14.957-10.645-37.319-8.74-66.458,5.654c-1.095,0.536-2.414,0.09-2.953-1.001
					c-0.539-1.092-0.092-2.414,1-2.952c30.714-15.169,54.594-16.952,70.974-5.288c30.886,21.984,23.58,83.12,23.254,85.712
					C613.667,618.468,612.718,619.282,611.623,619.282z"/>
				<path style="fill:#2D353A;" d="M510.352,840.246c-0.063,0-0.128-0.002-0.194-0.009c-1.212-0.105-2.11-1.173-2.005-2.388
					c9.032-103.758,59.169-153.663,59.674-154.156c0.873-0.848,2.269-0.827,3.117,0.041c0.849,0.872,0.832,2.267-0.039,3.118
					c-0.494,0.482-49.479,49.37-58.36,151.381C512.446,839.381,511.483,840.246,510.352,840.246z"/>
				<path style="fill:#2D353A;" d="M533.097,631.417c-17.244,0-32.683-4.965-46.146-14.874
					c-20.693-15.231-29.376-37.292-29.342-39.756c0.017-1.206,1.001-2.172,2.204-2.172c0.011,0,0.021,0,0.032,0
					c1.135,0.017,2.057,0.887,2.164,1.992c0.692,3.163,10.656,26.99,33.96,40.597c19.769,11.545,43.683,12.856,71.076,3.904
					c1.164-0.383,2.403,0.254,2.781,1.41c0.378,1.156-0.254,2.403-1.411,2.78C555.932,629.38,544.144,631.417,533.097,631.417z"/>
				<g>
					<path style="fill:#E2A18D;" d="M787.416,792.208c-19.116,24.451-101.556-1.884-101.556-1.884l-63.633-70.297
						c-12.474-41.842,11.334-85.874,53.176-98.348c41.843-12.474,85.874,11.334,98.348,53.176
						C773.75,674.857,806.885,767.304,787.416,792.208z"/>
					<path style="fill:#E2A18D;" d="M746.586,904.419l-6.746-176.831l-95.703,4.252l6.746,176.831
						c1.174,26.428,23.55,46.899,49.977,45.725C727.289,953.222,747.76,930.846,746.586,904.419z"/>
					<path style="fill:#E2A18D;" d="M770.983,697.373c0,0,27.888,15.929,28.509,22.144c0.742,7.418-21.653,18.755-21.653,18.755
						S771.564,697.259,770.983,697.373z"/>
					<g>
						<path style="fill:#FFFFFF;" d="M702.524,724.685c0,0,6.475-13.562,19.35-22.985c2.739-2.005,13.616,23.697,10.107,24.359
							C716.554,728.971,702.524,724.685,702.524,724.685z"/>
						<path style="fill:#363E44;" d="M742.575,722.821c18.912-8.32,28.437-28.267,28.437-28.267s-21.14-6.456-40.052,1.864
							c-3.312,1.457-6.318,3.282-9.054,5.283c-1.14,9.609,2.921,18.705,10.058,24.357
							C735.479,725.397,739.065,724.366,742.575,722.821z"/>
					</g>
					<path style="fill:#363E44;" d="M759.818,759.648c-1.241,0-2.492-0.174-3.717-0.536c-4.814-1.417-8.482-5.544-9.345-10.514
						c-0.208-1.199,0.596-2.34,1.796-2.549c1.2-0.205,2.34,0.596,2.549,1.796c0.577,3.329,3.028,6.091,6.244,7.039
						c3.341,0.98,6.972-0.106,9.26-2.767c0.794-0.924,2.185-1.029,3.109-0.237c0.924,0.794,1.028,2.185,0.235,3.109
						C767.372,757.99,763.641,759.648,759.818,759.648z"/>
					<path style="fill:#363E44;" d="M747.121,805.858c-0.045,0-0.091-0.002-0.138-0.004c-28.722-1.768-61.082-12.021-61.405-12.124
						c-1.161-0.37-1.8-1.611-1.43-2.771c0.37-1.158,1.609-1.809,2.771-1.428c0.319,0.101,32.171,10.189,60.335,11.922
						c1.216,0.075,2.14,1.12,2.065,2.336C749.248,804.958,748.277,805.858,747.121,805.858z"/>
				</g>
				<g>
					<path style="fill:#363E44;" d="M618.276,768.039c-22.575-10.819-29.512-64.038-15.641-98.127
						c17.881-43.949,69.742-69.895,111.644-66.359c10.301,0.869,33.839,5.906,41.657,20.588
						c6.087,11.431-5.513,35.186-25.164,42.014c-27.63,9.6-66.35,3.208-52.039,34.692
						C722.098,796.252,643.081,779.927,618.276,768.039z"/>
				</g>
			</g>
		</g>
		<g>
			<g>
				<path style="fill:#D87355;" d="M1955.417,2002.815c-71.503,0-131.909-58.576-131.909-127.91
					c0-70.531,57.556-127.912,128.3-127.912s128.301,57.381,128.301,127.912C2080.109,1946.631,2025.337,2002.815,1955.417,2002.815
					z M1951.809,1751.403c-68.314,0-123.891,55.403-123.891,123.502c0,66.943,58.388,123.5,127.5,123.5
					c67.448,0,120.282-54.248,120.282-123.5C2075.699,1806.806,2020.123,1751.403,1951.809,1751.403z"/>
				<path style="fill:#D87355;" d="M2011.495,1975.879c-0.769,0-1.516-0.403-1.922-1.12c-0.599-1.059-0.226-2.405,0.834-3.004
					c15.229-8.61,25.154-20.931,35.372-36.78c0.659-1.025,2.022-1.316,3.048-0.659c1.023,0.661,1.318,2.024,0.658,3.049
					c-10.571,16.396-20.892,29.173-36.907,38.227C2012.235,1975.786,2011.862,1975.879,2011.495,1975.879z"/>
				<path style="fill:#D87355;" d="M2065.507,1871.761c-1.17,0-2.146-0.922-2.201-2.101
					c-2.767-59.453-51.742-106.023-111.497-106.023c-51.406,0-95.954,34.685-108.331,84.349c-0.296,1.18-1.495,1.891-2.672,1.606
					c-1.182-0.295-1.901-1.492-1.606-2.674c12.867-51.63,59.174-87.691,112.609-87.691c62.115,0,113.026,48.418,115.903,110.226
					c0.056,1.217-0.884,2.25-2.1,2.306C2065.576,1871.761,2065.542,1871.761,2065.507,1871.761z"/>
				<ellipse style="fill:#D87355;" cx="1951.808" cy="1874.904" rx="104.718" ry="104.395"/>
				<g>
					<path style="fill:#EFBC73;" d="M1973.535,1904.461c0-4.785-1.726-8.898-5.177-12.339c-3.452-3.44-9.115-6.505-16.988-9.194
						c-10.895-3.279-19.12-7.662-24.674-13.145c-5.556-5.484-8.332-12.795-8.332-21.936c0-8.871,2.548-16.101,7.645-21.694
						c5.096-5.591,12.12-8.952,21.073-10.081v-17.823h12.782v17.903c9.06,1.29,16.084,5.149,21.073,11.573
						c4.988,6.425,7.483,15.04,7.483,25.847h-15.855c0-7.311-1.699-13.226-5.097-17.742c-3.398-4.516-8.118-6.774-14.157-6.774
						c-6.364,0-11.123,1.653-14.278,4.96c-3.155,3.307-4.732,7.837-4.732,13.589c0,5.215,1.631,9.435,4.894,12.661
						c3.262,3.226,9.154,6.29,17.675,9.194c11.055,3.548,19.254,7.971,24.592,13.266c5.339,5.296,8.009,12.487,8.009,21.573
						c0,9.247-2.778,16.6-8.332,22.056c-5.555,5.458-13.186,8.696-22.893,9.718v15.484h-12.701v-15.403
						c-9.276-0.968-16.881-4.341-22.813-10.121c-5.933-5.779-8.791-14.261-8.575-25.444l0.162-0.403h15.37
						c0,8.28,2.09,14.181,6.27,17.702c4.178,3.522,9.316,5.282,15.411,5.282c6.957,0,12.389-1.653,16.3-4.96
						C1971.579,1914.905,1973.535,1910.322,1973.535,1904.461z"/>
				</g>
			</g>
			<g>
				<path style="fill:#D87355;" d="M1677.684,2133.92c-57.172,0-105.473-46.844-105.473-102.289
					c0-56.401,46.026-102.289,102.598-102.289c56.574,0,102.599,45.888,102.599,102.289
					C1777.409,2088.988,1733.605,2133.92,1677.684,2133.92z M1674.81,1933.75c-54.142,0-98.189,43.909-98.189,97.88
					c0,53.056,46.281,97.88,101.063,97.88c53.448,0,95.315-42.994,95.315-97.88C1773,1977.66,1728.952,1933.75,1674.81,1933.75z"/>
				<path style="fill:#D87355;" d="M1722.331,2112.474c-0.769,0-1.516-0.403-1.922-1.12c-0.599-1.059-0.226-2.405,0.834-3.004
					c12.048-6.813,19.909-16.575,28.007-29.136c0.659-1.025,2.023-1.316,3.048-0.659c1.023,0.661,1.318,2.026,0.658,3.049
					c-8.451,13.108-16.709,23.327-29.542,30.583C1723.072,2112.382,1722.698,2112.474,1722.331,2112.474z"/>
				<path style="fill:#D87355;" d="M1765.333,2029.578c-1.17,0-2.146-0.922-2.2-2.101c-2.192-47.096-40.988-83.985-88.323-83.985
					c-40.721,0-76.009,27.476-85.815,66.816c-0.295,1.18-1.497,1.888-2.672,1.606c-1.182-0.295-1.901-1.492-1.606-2.674
					c10.295-41.308,47.343-70.158,90.093-70.158c49.695,0,90.426,38.737,92.728,88.188c0.056,1.217-0.884,2.25-2.1,2.306
					C1765.403,2029.578,1765.368,2029.578,1765.333,2029.578z"/>
				<ellipse style="fill:#D87355;" cx="1674.81" cy="2031.631" rx="83.374" ry="83.116"/>
				<g>
					<path style="fill:#EFBC73;" d="M1692.108,2055.163c0-3.81-1.374-7.084-4.122-9.824c-2.748-2.739-7.257-5.179-13.525-7.32
						c-8.674-2.611-15.222-6.1-19.644-10.466c-4.423-4.366-6.634-10.187-6.634-17.465c0-7.063,2.029-12.82,6.087-17.272
						c4.057-4.451,9.65-7.127,16.778-8.026v-14.19h10.177v14.254c7.214,1.027,12.806,4.099,16.778,9.214
						c3.971,5.115,5.958,11.975,5.958,20.579h-12.624c0-5.821-1.353-10.53-4.058-14.126c-2.705-3.596-6.463-5.394-11.271-5.394
						c-5.067,0-8.856,1.316-11.368,3.949c-2.512,2.633-3.768,6.239-3.768,10.819c0,4.152,1.298,7.512,3.897,10.081
						c2.598,2.568,7.288,5.008,14.073,7.32c8.802,2.825,15.329,6.346,19.58,10.562c4.251,4.217,6.376,9.942,6.376,17.176
						c0,7.363-2.212,13.217-6.634,17.561c-4.423,4.345-10.498,6.924-18.227,7.737v12.328h-10.112v-12.264
						c-7.386-0.771-13.44-3.456-18.163-8.058c-4.724-4.601-6.999-11.354-6.827-20.258l0.129-0.321h12.237
						c0,6.593,1.664,11.291,4.992,14.094c3.327,2.804,7.417,4.206,12.27,4.206c5.539,0,9.864-1.316,12.978-3.949
						C1690.552,2063.478,1692.108,2059.829,1692.108,2055.163z"/>
				</g>
			</g>
			<g>
				<path style="fill:#D87355;" d="M1378.325,2136.512c-47.506,0-87.641-38.929-87.641-85.006c0-46.872,38.25-85.006,85.263-85.006
					c47.014,0,85.262,38.134,85.262,85.006C1461.21,2099.172,1424.803,2136.512,1378.325,2136.512z M1375.948,1970.91
					c-44.583,0-80.854,36.156-80.854,80.597c0,43.687,38.115,80.596,83.231,80.596c44.005,0,78.476-35.402,78.476-80.596
					C1456.801,2007.065,1420.53,1970.91,1375.948,1970.91z"/>
				<path style="fill:#D87355;" d="M1415.264,2118.77c-0.769,0-1.516-0.403-1.922-1.12c-0.599-1.059-0.226-2.405,0.834-3.003
					c9.897-5.596,16.367-13.634,23.038-23.982c0.659-1.025,2.022-1.316,3.048-0.659c1.023,0.661,1.318,2.026,0.658,3.049
					c-7.024,10.895-13.891,19.389-24.573,25.429C1416.004,2118.677,1415.631,2118.77,1415.264,2118.77z"/>
				<path style="fill:#D87355;" d="M1450.839,2050.188c-1.17,0-2.146-0.922-2.2-2.101c-1.804-38.759-33.733-69.12-72.69-69.12
					c-33.515,0-62.557,22.612-70.627,54.991c-0.295,1.18-1.5,1.888-2.672,1.606c-1.182-0.295-1.901-1.492-1.606-2.674
					c8.56-34.345,39.362-58.333,74.906-58.333c41.317,0,75.181,32.207,77.095,73.323c0.056,1.217-0.884,2.25-2.1,2.306
					C1450.909,2050.188,1450.874,2050.188,1450.839,2050.188z"/>
				<ellipse style="fill:#D87355;" cx="1375.948" cy="2051.505" rx="68.977" ry="68.764"/>
				<g>
					<path style="fill:#EFBC73;" d="M1390.259,2070.974c0-3.152-1.137-5.861-3.41-8.128c-2.274-2.266-6.004-4.284-11.19-6.056
						c-7.176-2.16-12.594-5.047-16.252-8.659c-3.659-3.612-5.488-8.428-5.488-14.449c0-5.843,1.678-10.606,5.036-14.289
						c3.357-3.683,7.984-5.896,13.881-6.64v-11.74h8.419v11.793c5.968,0.85,10.595,3.391,13.881,7.623
						c3.286,4.232,4.929,9.907,4.929,17.025h-10.444c0-4.816-1.119-8.712-3.357-11.687c-2.238-2.975-5.347-4.462-9.325-4.462
						c-4.192,0-7.327,1.089-9.405,3.267c-2.078,2.178-3.117,5.162-3.117,8.951c0,3.435,1.074,6.215,3.224,8.34
						c2.149,2.125,6.029,4.143,11.643,6.056c7.282,2.337,12.682,5.25,16.199,8.738c3.517,3.488,5.275,8.225,5.275,14.21
						c0,6.091-1.83,10.935-5.488,14.529c-3.659,3.595-8.685,5.728-15.08,6.401v10.199h-8.366v-10.146
						c-6.11-0.637-11.119-2.86-15.026-6.667c-3.908-3.806-5.791-9.393-5.648-16.76l0.107-0.266h10.124
						c0,5.454,1.376,9.341,4.13,11.66c2.752,2.32,6.136,3.479,10.151,3.479c4.582,0,8.161-1.089,10.737-3.267
						C1388.971,2077.853,1390.259,2074.835,1390.259,2070.974z"/>
				</g>
			</g>
		</g>
		<g>
			<g>
				<path style="fill:#FFFFFF;" d="M1156.958,775.269h-51.995c-1.218,0-2.205-0.986-2.205-2.205v-13.539
					c-6.288-1.238-12.529-2.909-18.602-4.976l-6.764,11.72c-0.293,0.506-0.774,0.876-1.339,1.027
					c-0.564,0.146-1.167,0.069-1.673-0.22l-45.03-25.999c-1.055-0.609-1.416-1.957-0.807-3.012l6.782-11.747
					c-4.82-4.224-9.383-8.789-13.604-13.604l-11.749,6.782c-1.059,0.607-2.404,0.248-3.012-0.807l-25.997-45.031
					c-0.608-1.055-0.248-2.403,0.807-3.012l11.717-6.765c-2.068-6.078-3.738-12.32-4.976-18.601h-13.539
					c-1.218,0-2.205-0.986-2.205-2.205V591.08c0-1.219,0.987-2.205,2.205-2.205h13.539c1.238-6.281,2.908-12.523,4.976-18.601
					l-11.717-6.765c-1.055-0.609-1.416-1.957-0.807-3.012l25.997-45.031c0.293-0.506,0.774-0.876,1.339-1.027
					c0.564-0.148,1.168-0.071,1.673,0.22l11.75,6.784c4.218-4.812,8.782-9.377,13.604-13.606l-6.783-11.748
					c-0.608-1.055-0.248-2.403,0.807-3.012l45.03-25.997c0.506-0.293,1.109-0.37,1.673-0.22c0.565,0.151,1.046,0.521,1.339,1.027
					l6.76,11.709c5.668-1.985,12.051-4.078,18.606-5.43v-13.076c0-1.219,0.987-2.205,2.205-2.205h51.995
					c1.218,0,2.205,0.986,2.205,2.205v13.539c6.28,1.236,12.521,2.907,18.602,4.976l6.764-11.717
					c0.293-0.506,0.774-0.876,1.339-1.027c0.566-0.149,1.167-0.071,1.673,0.22l45.03,25.997c0.506,0.293,0.876,0.775,1.027,1.339
					c0.152,0.564,0.072,1.167-0.22,1.673l-6.783,11.748c4.818,4.225,9.382,8.789,13.604,13.606l11.75-6.784
					c0.506-0.293,1.11-0.37,1.673-0.22c0.565,0.151,1.046,0.521,1.339,1.027l25.997,45.031c0.608,1.055,0.248,2.403-0.807,3.012
					l-11.717,6.765c2.068,6.078,3.738,12.32,4.976,18.601h13.539c1.218,0,2.205,0.986,2.205,2.205v51.994
					c0,1.219-0.987,2.205-2.205,2.205h-13.539c-1.238,6.281-2.908,12.523-4.976,18.601l11.717,6.765
					c1.055,0.609,1.416,1.957,0.807,3.012l-25.997,45.031c-0.609,1.055-1.955,1.415-3.012,0.807l-11.75-6.782
					c-4.222,4.819-8.787,9.381-13.604,13.604l6.783,11.747c0.292,0.506,0.371,1.109,0.22,1.673
					c-0.151,0.564-0.521,1.047-1.027,1.339l-45.03,25.999c-0.508,0.289-1.112,0.366-1.673,0.22
					c-0.565-0.151-1.047-0.521-1.339-1.027l-6.764-11.72c-6.073,2.067-12.314,3.738-18.602,4.976v13.539
					C1159.163,774.283,1158.176,775.269,1156.958,775.269z M1107.168,770.859h47.586v-13.158c0-1.064,0.76-1.977,1.807-2.168
					c7.27-1.335,14.492-3.268,21.466-5.742c1-0.355,2.115,0.054,2.647,0.975l6.573,11.388l41.21-23.794l-6.592-11.416
					c-0.531-0.919-0.33-2.089,0.478-2.78c5.619-4.797,10.902-10.081,15.705-15.703c0.691-0.81,1.857-1.005,2.779-0.478l11.417,6.591
					l23.792-41.211l-11.386-6.574c-0.921-0.532-1.331-1.645-0.975-2.646c2.476-6.985,4.408-14.206,5.741-21.467
					c0.192-1.047,1.104-1.807,2.168-1.807h13.159v-47.585h-13.159c-1.064,0-1.977-0.76-2.168-1.806
					c-1.334-7.26-3.265-14.482-5.741-21.467c-0.355-1.001,0.055-2.114,0.975-2.646l11.386-6.574l-23.792-41.211l-11.417,6.593
					c-0.918,0.53-2.087,0.331-2.779-0.478c-4.8-5.618-10.084-10.904-15.705-15.705c-0.808-0.691-1.009-1.86-0.478-2.78l6.592-11.416
					l-41.21-23.792l-6.573,11.386c-0.533,0.922-1.645,1.333-2.646,0.975c-6.987-2.476-14.21-4.41-21.467-5.742
					c-1.047-0.192-1.807-1.105-1.807-2.168v-13.158h-47.586v12.686c0,1.064-0.76,1.977-1.807,2.168
					c-7.546,1.387-15.036,3.934-21.467,6.214c-1.002,0.357-2.114-0.056-2.646-0.975l-6.573-11.386l-41.21,23.792l6.591,11.416
					c0.531,0.919,0.331,2.089-0.477,2.778c-5.626,4.808-10.91,10.094-15.705,15.707c-0.688,0.81-1.861,1.005-2.779,0.478
					l-11.417-6.593l-23.792,41.211l11.386,6.574c0.921,0.532,1.331,1.645,0.975,2.646c-2.476,6.985-4.407,14.206-5.741,21.467
					c-0.192,1.046-1.104,1.806-2.168,1.806h-13.159v47.585h13.159c1.064,0,1.977,0.76,2.168,1.807
					c1.334,7.26,3.265,14.482,5.741,21.467c0.355,1.001-0.055,2.114-0.975,2.646l-11.386,6.574l23.792,41.211l11.417-6.591
					c0.922-0.525,2.091-0.332,2.779,0.478c4.797,5.617,10.081,10.899,15.704,15.703c0.808,0.691,1.009,1.86,0.478,2.78
					l-6.591,11.416l41.21,23.794l6.573-11.388c0.533-0.922,1.65-1.331,2.647-0.975c6.974,2.474,14.196,4.408,21.466,5.742
					c1.047,0.192,1.807,1.105,1.807,2.168V770.859z M1131.161,711.992c-25.146,0-49.254-9.59-67.39-27.726
					c-26.398-26.4-34.694-65.462-21.65-101.943c9.052-25.319,28.766-45.035,54.088-54.087c36.477-13.044,75.541-4.75,101.941,21.654
					c26.399,26.4,34.695,65.46,21.65,101.943l0,0c-9.054,25.319-28.768,45.033-54.087,54.085
					C1154.294,710,1142.618,711.992,1131.161,711.992z M1130.744,526.576c-10.958,0-22.122,1.906-33.051,5.811
					c-24.072,8.608-42.813,27.349-51.42,51.421c-12.464,34.859-4.564,72.158,20.616,97.339
					c25.182,25.183,62.482,33.079,97.339,20.619c24.07-8.606,42.812-27.347,51.42-51.419l0,0
					c12.464-34.859,4.565-72.158-20.616-97.339C1177.745,535.721,1154.744,526.576,1130.744,526.576z M1217.724,651.091h0.021
					H1217.724z"/>
			</g>
		</g>
	</g>
</g>
</svg>
